%
M48
M72
T01C0.0120
T02C0.0236
T03C0.0276
T04C0.0354
T05C0.0400
T06C0.0440
T07C0.1300
%
T01
X1000Y14752
T02
X7520Y10782
X12970Y21792
T03
X11050Y23262
X10050Y23262
X9900Y11332
X8900Y11332
T04
X3520Y8222
X6520Y8222
T05
X7820Y8202
X8820Y8202
X5740Y14252
X4740Y14252
X4480Y16062
X5480Y16062
X6480Y16062
X6400Y17702
X5400Y17702
X4400Y17702
X3400Y17702
X3950Y19182
X4950Y19182
X5950Y19182
X5860Y20922
X4860Y20922
X3860Y20922
X3850Y22492
X4850Y22492
X5850Y22492
X5800Y24102
X4800Y24102
X3800Y24102
X3790Y25642
X4790Y25642
X5790Y25642
X5790Y27062
X4790Y27062
X3790Y27062
X1500Y26752
X1500Y25752
X1500Y24752
X1500Y23752
X1500Y22752
X1500Y21752
X1500Y20752
X1500Y19252
X1500Y18252
X1500Y17252
X1500Y16252
X1500Y15252
X1500Y14252
X1500Y13252
X1500Y12252
X3480Y16062
X10090Y25602
X11090Y25602
X8820Y26922
X8820Y27922
X8820Y28922
X13500Y27752
X20500Y27752
X20500Y26752
X20500Y25752
X20500Y24752
X20500Y23752
X20500Y22752
X20500Y20752
X20500Y19752
X20500Y18752
X20500Y17752
X20500Y16752
X20500Y15752
X1500Y27752
T06
X9070Y21172
X10070Y21172
X11070Y21172
T07
X10070Y15272
X1500Y8752
X18500Y28752
M30
