G75*
G70*
%OFA0B0*%
%FSLAX24Y24*%
%IPPOS*%
%LPD*%
%AMOC8*
5,1,8,0,0,1.08239X$1,22.5*
%
%ADD10C,0.0000*%
%ADD11C,0.0740*%
%ADD12C,0.0600*%
%ADD13OC8,0.0600*%
%ADD14R,0.0650X0.0650*%
%ADD15C,0.0650*%
%ADD16C,0.0660*%
%ADD17C,0.0100*%
%ADD18R,0.0356X0.0356*%
%ADD19C,0.0160*%
%ADD20C,0.0240*%
D10*
X000500Y007222D02*
X001500Y006252D01*
X020500Y006252D01*
X021500Y007252D01*
X021520Y028748D01*
X020504Y028748D01*
X019500Y029752D01*
X006500Y029752D01*
X005500Y028752D01*
X001000Y028752D01*
X000490Y028248D01*
X000500Y007222D01*
X000850Y008752D02*
X000852Y008802D01*
X000858Y008852D01*
X000868Y008902D01*
X000881Y008950D01*
X000898Y008998D01*
X000919Y009044D01*
X000943Y009088D01*
X000971Y009130D01*
X001002Y009170D01*
X001036Y009207D01*
X001073Y009242D01*
X001112Y009273D01*
X001153Y009302D01*
X001197Y009327D01*
X001243Y009349D01*
X001290Y009367D01*
X001338Y009381D01*
X001387Y009392D01*
X001437Y009399D01*
X001487Y009402D01*
X001538Y009401D01*
X001588Y009396D01*
X001638Y009387D01*
X001686Y009375D01*
X001734Y009358D01*
X001780Y009338D01*
X001825Y009315D01*
X001868Y009288D01*
X001908Y009258D01*
X001946Y009225D01*
X001981Y009189D01*
X002014Y009150D01*
X002043Y009109D01*
X002069Y009066D01*
X002092Y009021D01*
X002111Y008974D01*
X002126Y008926D01*
X002138Y008877D01*
X002146Y008827D01*
X002150Y008777D01*
X002150Y008727D01*
X002146Y008677D01*
X002138Y008627D01*
X002126Y008578D01*
X002111Y008530D01*
X002092Y008483D01*
X002069Y008438D01*
X002043Y008395D01*
X002014Y008354D01*
X001981Y008315D01*
X001946Y008279D01*
X001908Y008246D01*
X001868Y008216D01*
X001825Y008189D01*
X001780Y008166D01*
X001734Y008146D01*
X001686Y008129D01*
X001638Y008117D01*
X001588Y008108D01*
X001538Y008103D01*
X001487Y008102D01*
X001437Y008105D01*
X001387Y008112D01*
X001338Y008123D01*
X001290Y008137D01*
X001243Y008155D01*
X001197Y008177D01*
X001153Y008202D01*
X001112Y008231D01*
X001073Y008262D01*
X001036Y008297D01*
X001002Y008334D01*
X000971Y008374D01*
X000943Y008416D01*
X000919Y008460D01*
X000898Y008506D01*
X000881Y008554D01*
X000868Y008602D01*
X000858Y008652D01*
X000852Y008702D01*
X000850Y008752D01*
X009420Y015272D02*
X009422Y015322D01*
X009428Y015372D01*
X009438Y015422D01*
X009451Y015470D01*
X009468Y015518D01*
X009489Y015564D01*
X009513Y015608D01*
X009541Y015650D01*
X009572Y015690D01*
X009606Y015727D01*
X009643Y015762D01*
X009682Y015793D01*
X009723Y015822D01*
X009767Y015847D01*
X009813Y015869D01*
X009860Y015887D01*
X009908Y015901D01*
X009957Y015912D01*
X010007Y015919D01*
X010057Y015922D01*
X010108Y015921D01*
X010158Y015916D01*
X010208Y015907D01*
X010256Y015895D01*
X010304Y015878D01*
X010350Y015858D01*
X010395Y015835D01*
X010438Y015808D01*
X010478Y015778D01*
X010516Y015745D01*
X010551Y015709D01*
X010584Y015670D01*
X010613Y015629D01*
X010639Y015586D01*
X010662Y015541D01*
X010681Y015494D01*
X010696Y015446D01*
X010708Y015397D01*
X010716Y015347D01*
X010720Y015297D01*
X010720Y015247D01*
X010716Y015197D01*
X010708Y015147D01*
X010696Y015098D01*
X010681Y015050D01*
X010662Y015003D01*
X010639Y014958D01*
X010613Y014915D01*
X010584Y014874D01*
X010551Y014835D01*
X010516Y014799D01*
X010478Y014766D01*
X010438Y014736D01*
X010395Y014709D01*
X010350Y014686D01*
X010304Y014666D01*
X010256Y014649D01*
X010208Y014637D01*
X010158Y014628D01*
X010108Y014623D01*
X010057Y014622D01*
X010007Y014625D01*
X009957Y014632D01*
X009908Y014643D01*
X009860Y014657D01*
X009813Y014675D01*
X009767Y014697D01*
X009723Y014722D01*
X009682Y014751D01*
X009643Y014782D01*
X009606Y014817D01*
X009572Y014854D01*
X009541Y014894D01*
X009513Y014936D01*
X009489Y014980D01*
X009468Y015026D01*
X009451Y015074D01*
X009438Y015122D01*
X009428Y015172D01*
X009422Y015222D01*
X009420Y015272D01*
X017850Y028752D02*
X017852Y028802D01*
X017858Y028852D01*
X017868Y028902D01*
X017881Y028950D01*
X017898Y028998D01*
X017919Y029044D01*
X017943Y029088D01*
X017971Y029130D01*
X018002Y029170D01*
X018036Y029207D01*
X018073Y029242D01*
X018112Y029273D01*
X018153Y029302D01*
X018197Y029327D01*
X018243Y029349D01*
X018290Y029367D01*
X018338Y029381D01*
X018387Y029392D01*
X018437Y029399D01*
X018487Y029402D01*
X018538Y029401D01*
X018588Y029396D01*
X018638Y029387D01*
X018686Y029375D01*
X018734Y029358D01*
X018780Y029338D01*
X018825Y029315D01*
X018868Y029288D01*
X018908Y029258D01*
X018946Y029225D01*
X018981Y029189D01*
X019014Y029150D01*
X019043Y029109D01*
X019069Y029066D01*
X019092Y029021D01*
X019111Y028974D01*
X019126Y028926D01*
X019138Y028877D01*
X019146Y028827D01*
X019150Y028777D01*
X019150Y028727D01*
X019146Y028677D01*
X019138Y028627D01*
X019126Y028578D01*
X019111Y028530D01*
X019092Y028483D01*
X019069Y028438D01*
X019043Y028395D01*
X019014Y028354D01*
X018981Y028315D01*
X018946Y028279D01*
X018908Y028246D01*
X018868Y028216D01*
X018825Y028189D01*
X018780Y028166D01*
X018734Y028146D01*
X018686Y028129D01*
X018638Y028117D01*
X018588Y028108D01*
X018538Y028103D01*
X018487Y028102D01*
X018437Y028105D01*
X018387Y028112D01*
X018338Y028123D01*
X018290Y028137D01*
X018243Y028155D01*
X018197Y028177D01*
X018153Y028202D01*
X018112Y028231D01*
X018073Y028262D01*
X018036Y028297D01*
X018002Y028334D01*
X017971Y028374D01*
X017943Y028416D01*
X017919Y028460D01*
X017898Y028506D01*
X017881Y028554D01*
X017868Y028602D01*
X017858Y028652D01*
X017852Y028702D01*
X017850Y028752D01*
D11*
X020500Y027752D03*
X020500Y026752D03*
X020500Y025752D03*
X020500Y024752D03*
X020500Y023752D03*
X020500Y022752D03*
X020500Y020752D03*
X020500Y019752D03*
X020500Y018752D03*
X020500Y017752D03*
X020500Y016752D03*
X020500Y015752D03*
X006520Y008222D03*
X003520Y008222D03*
X001500Y012252D03*
X001500Y013252D03*
X001500Y014252D03*
X001500Y015252D03*
X001500Y016252D03*
X001500Y017252D03*
X001500Y018252D03*
X001500Y019252D03*
X001500Y020752D03*
X001500Y021752D03*
X001500Y022752D03*
X001500Y023752D03*
X001500Y024752D03*
X001500Y025752D03*
X001500Y026752D03*
X001500Y027752D03*
D12*
X003790Y027362D02*
X003790Y026762D01*
X003790Y025942D02*
X003790Y025342D01*
X003800Y024402D02*
X003800Y023802D01*
X003850Y022792D02*
X003850Y022192D01*
X003860Y021222D02*
X003860Y020622D01*
X003950Y019482D02*
X003950Y018882D01*
X004400Y018002D02*
X004400Y017402D01*
X003400Y017402D02*
X003400Y018002D01*
X003480Y016362D02*
X003480Y015762D01*
X004480Y015762D02*
X004480Y016362D01*
X005480Y016362D02*
X005480Y015762D01*
X005740Y014552D02*
X005740Y013952D01*
X004740Y013952D02*
X004740Y014552D01*
X006480Y015762D02*
X006480Y016362D01*
X006400Y017402D02*
X006400Y018002D01*
X005950Y018882D02*
X005950Y019482D01*
X005860Y020622D02*
X005860Y021222D01*
X005850Y022192D02*
X005850Y022792D01*
X005800Y023802D02*
X005800Y024402D01*
X005790Y025342D02*
X005790Y025942D01*
X005790Y026762D02*
X005790Y027362D01*
X004790Y027362D02*
X004790Y026762D01*
X004790Y025942D02*
X004790Y025342D01*
X004800Y024402D02*
X004800Y023802D01*
X004850Y022792D02*
X004850Y022192D01*
X004860Y021222D02*
X004860Y020622D01*
X004950Y019482D02*
X004950Y018882D01*
X005400Y018002D02*
X005400Y017402D01*
X010090Y025302D02*
X010090Y025902D01*
X011090Y025902D02*
X011090Y025302D01*
X009120Y026922D02*
X008520Y026922D01*
X008520Y027922D02*
X009120Y027922D01*
X009120Y028922D02*
X008520Y028922D01*
X008820Y008502D02*
X008820Y007902D01*
X007820Y007902D02*
X007820Y008502D01*
D13*
X013500Y027752D03*
D14*
X011050Y023262D03*
X008900Y011332D03*
D15*
X009900Y011332D03*
X010050Y023262D03*
D16*
X010070Y021502D02*
X010070Y020842D01*
X011070Y020842D02*
X011070Y021502D01*
X009070Y021502D02*
X009070Y020842D01*
D17*
X001346Y006192D02*
X000550Y006192D01*
X000550Y006965D01*
X001346Y006192D01*
X001291Y006246D02*
X000550Y006246D01*
X000550Y006344D02*
X001190Y006344D01*
X001088Y006443D02*
X000550Y006443D01*
X000550Y006541D02*
X000987Y006541D01*
X000885Y006640D02*
X000550Y006640D01*
X000550Y006738D02*
X000784Y006738D01*
X000682Y006837D02*
X000550Y006837D01*
X000550Y006935D02*
X000580Y006935D01*
X000808Y007132D02*
X021168Y007132D01*
X021069Y007034D02*
X000910Y007034D01*
X001011Y006935D02*
X020971Y006935D01*
X020872Y006837D02*
X001113Y006837D01*
X001214Y006738D02*
X020774Y006738D01*
X020675Y006640D02*
X001316Y006640D01*
X001417Y006541D02*
X020577Y006541D01*
X020478Y006443D02*
X001519Y006443D01*
X001561Y006402D02*
X000650Y007286D01*
X000640Y028186D01*
X001062Y028602D01*
X005562Y028602D01*
X005650Y028690D01*
X006562Y029602D01*
X019438Y029602D01*
X020442Y028598D01*
X021370Y028598D01*
X021350Y007315D01*
X020438Y006402D01*
X001561Y006402D01*
X000707Y007231D02*
X021266Y007231D01*
X021350Y007329D02*
X000650Y007329D01*
X000650Y007428D02*
X021350Y007428D01*
X021350Y007526D02*
X008984Y007526D01*
X009052Y007555D02*
X009168Y007670D01*
X009230Y007821D01*
X009230Y008584D01*
X009168Y008735D01*
X009052Y008850D01*
X008902Y008912D01*
X008738Y008912D01*
X008617Y008862D01*
X004160Y013319D01*
X004066Y013412D01*
X003886Y013412D01*
X004334Y013860D01*
X004392Y013720D01*
X004508Y013605D01*
X004658Y013542D01*
X004822Y013542D01*
X004972Y013605D01*
X005088Y013720D01*
X005150Y013871D01*
X005150Y014634D01*
X005088Y014785D01*
X004972Y014900D01*
X004822Y014962D01*
X004658Y014962D01*
X004508Y014900D01*
X004392Y014785D01*
X004330Y014634D01*
X004330Y014309D01*
X003434Y013412D01*
X001953Y013412D01*
X001907Y013524D01*
X001772Y013659D01*
X001595Y013732D01*
X001405Y013732D01*
X001228Y013659D01*
X001093Y013524D01*
X001020Y013348D01*
X001020Y013157D01*
X001093Y012980D01*
X001228Y012845D01*
X000647Y012845D01*
X000647Y012747D02*
X004279Y012747D01*
X004181Y012845D02*
X001772Y012845D01*
X001907Y012980D01*
X001953Y013092D01*
X003934Y013092D01*
X008419Y008607D01*
X008410Y008584D01*
X008410Y007821D01*
X008472Y007670D01*
X008588Y007555D01*
X008738Y007492D01*
X008902Y007492D01*
X009052Y007555D01*
X009122Y007625D02*
X021350Y007625D01*
X021350Y007723D02*
X009190Y007723D01*
X009230Y007822D02*
X021351Y007822D01*
X021351Y007920D02*
X009230Y007920D01*
X009230Y008019D02*
X021351Y008019D01*
X021351Y008117D02*
X009230Y008117D01*
X009230Y008216D02*
X021351Y008216D01*
X021351Y008314D02*
X009230Y008314D01*
X009230Y008413D02*
X021351Y008413D01*
X021351Y008511D02*
X009230Y008511D01*
X009219Y008610D02*
X021351Y008610D01*
X021351Y008708D02*
X009178Y008708D01*
X009095Y008807D02*
X021351Y008807D01*
X021352Y008905D02*
X008918Y008905D01*
X008722Y008905D02*
X008573Y008905D01*
X008475Y009004D02*
X021352Y009004D01*
X021352Y009102D02*
X008376Y009102D01*
X008278Y009201D02*
X021352Y009201D01*
X021352Y009299D02*
X008179Y009299D01*
X008081Y009398D02*
X021352Y009398D01*
X021352Y009496D02*
X007982Y009496D01*
X007884Y009595D02*
X021352Y009595D01*
X021352Y009693D02*
X007785Y009693D01*
X007687Y009792D02*
X008284Y009792D01*
X008250Y009826D02*
X008344Y009732D01*
X009781Y009732D01*
X009811Y009702D01*
X009969Y009702D01*
X010090Y009824D01*
X010090Y009981D01*
X010060Y010011D01*
X010060Y010928D01*
X010146Y010964D01*
X010269Y011086D01*
X010335Y011246D01*
X010335Y011419D01*
X010269Y011579D01*
X010146Y011701D01*
X009987Y011767D01*
X009813Y011767D01*
X009654Y011701D01*
X009531Y011579D01*
X009465Y011419D01*
X009465Y011246D01*
X009531Y011086D01*
X009654Y010964D01*
X009740Y010928D01*
X009740Y010052D01*
X008476Y010052D01*
X007808Y010721D01*
X007808Y011006D01*
X007744Y011070D01*
X007296Y011070D01*
X007232Y011006D01*
X007232Y010559D01*
X007296Y010494D01*
X007582Y010494D01*
X008250Y009826D01*
X008186Y009890D02*
X007588Y009890D01*
X007490Y009989D02*
X008087Y009989D01*
X007989Y010087D02*
X007391Y010087D01*
X007293Y010186D02*
X007890Y010186D01*
X007792Y010284D02*
X007194Y010284D01*
X007096Y010383D02*
X007693Y010383D01*
X007595Y010481D02*
X006997Y010481D01*
X006899Y010580D02*
X007232Y010580D01*
X007232Y010678D02*
X006800Y010678D01*
X006702Y010777D02*
X007232Y010777D01*
X007232Y010875D02*
X006603Y010875D01*
X006505Y010974D02*
X007232Y010974D01*
X007520Y010782D02*
X008410Y009892D01*
X009890Y009892D01*
X009900Y009902D02*
X009900Y011332D01*
X010157Y010974D02*
X021353Y010974D01*
X021354Y011072D02*
X010255Y011072D01*
X010304Y011171D02*
X021354Y011171D01*
X021354Y011269D02*
X010335Y011269D01*
X010335Y011368D02*
X021354Y011368D01*
X021354Y011466D02*
X010315Y011466D01*
X010275Y011565D02*
X021354Y011565D01*
X021354Y011663D02*
X010184Y011663D01*
X010000Y011762D02*
X021354Y011762D01*
X021354Y011860D02*
X005618Y011860D01*
X005717Y011762D02*
X008524Y011762D01*
X008529Y011767D02*
X008465Y011703D01*
X008465Y010962D01*
X008529Y010897D01*
X009271Y010897D01*
X009335Y010962D01*
X009335Y011703D01*
X009271Y011767D01*
X008529Y011767D01*
X008465Y011663D02*
X005815Y011663D01*
X005914Y011565D02*
X008465Y011565D01*
X008465Y011466D02*
X006012Y011466D01*
X006111Y011368D02*
X008465Y011368D01*
X008465Y011269D02*
X006209Y011269D01*
X006308Y011171D02*
X008465Y011171D01*
X008465Y011072D02*
X006406Y011072D01*
X006151Y010875D02*
X000648Y010875D01*
X000648Y010777D02*
X006249Y010777D01*
X006348Y010678D02*
X000648Y010678D01*
X000648Y010580D02*
X006446Y010580D01*
X006545Y010481D02*
X000648Y010481D01*
X000648Y010383D02*
X006643Y010383D01*
X006742Y010284D02*
X000649Y010284D01*
X000649Y010186D02*
X006840Y010186D01*
X006939Y010087D02*
X000649Y010087D01*
X000649Y009989D02*
X007037Y009989D01*
X007136Y009890D02*
X000649Y009890D01*
X000649Y009792D02*
X007234Y009792D01*
X007333Y009693D02*
X000649Y009693D01*
X000649Y009595D02*
X007431Y009595D01*
X007530Y009496D02*
X001825Y009496D01*
X001755Y009537D02*
X001904Y009451D01*
X001953Y009431D01*
X001972Y009412D01*
X002052Y009365D01*
X002052Y009365D01*
X002142Y009242D01*
X002178Y009206D01*
X002191Y009174D01*
X002254Y009088D01*
X002254Y009088D01*
X002282Y008955D01*
X002300Y008911D01*
X002300Y008870D01*
X002325Y008752D01*
X002300Y008635D01*
X002300Y008593D01*
X002282Y008549D01*
X002254Y008417D01*
X002191Y008331D01*
X002178Y008299D01*
X002142Y008263D01*
X002052Y008139D01*
X002052Y008139D01*
X002052Y008139D01*
X001972Y008093D01*
X001953Y008074D01*
X001904Y008054D01*
X001755Y007968D01*
X001755Y007968D01*
X001676Y007959D01*
X001659Y007952D01*
X001609Y007952D01*
X001414Y007932D01*
X001414Y007932D01*
X001351Y007952D01*
X001341Y007952D01*
X001305Y007967D01*
X001088Y008038D01*
X001088Y008038D01*
X001048Y008074D01*
X001047Y008074D01*
X001043Y008078D01*
X000833Y008267D01*
X000833Y008267D01*
X000693Y008581D01*
X000693Y008924D01*
X000833Y009237D01*
X000833Y009237D01*
X001043Y009427D01*
X001047Y009431D01*
X001048Y009431D01*
X001088Y009467D01*
X001088Y009467D01*
X001305Y009537D01*
X001341Y009552D01*
X001351Y009552D01*
X001414Y009573D01*
X001414Y009573D01*
X001609Y009552D01*
X001659Y009552D01*
X001676Y009545D01*
X001755Y009537D01*
X001755Y009537D01*
X001996Y009398D02*
X007628Y009398D01*
X007727Y009299D02*
X002100Y009299D01*
X002052Y009365D02*
X002052Y009365D01*
X002180Y009201D02*
X007825Y009201D01*
X007924Y009102D02*
X002243Y009102D01*
X002272Y009004D02*
X008022Y009004D01*
X008121Y008905D02*
X007918Y008905D01*
X007902Y008912D02*
X007738Y008912D01*
X007588Y008850D01*
X007472Y008735D01*
X007410Y008584D01*
X007410Y007821D01*
X007472Y007670D01*
X007588Y007555D01*
X007738Y007492D01*
X007902Y007492D01*
X008052Y007555D01*
X008168Y007670D01*
X008230Y007821D01*
X008230Y008584D01*
X008168Y008735D01*
X008052Y008850D01*
X007902Y008912D01*
X007722Y008905D02*
X002300Y008905D01*
X002313Y008807D02*
X007545Y008807D01*
X007462Y008708D02*
X002316Y008708D01*
X002300Y008610D02*
X003229Y008610D01*
X003248Y008629D02*
X003113Y008494D01*
X003040Y008318D01*
X003040Y008127D01*
X003113Y007950D01*
X003248Y007815D01*
X003425Y007742D01*
X003615Y007742D01*
X003792Y007815D01*
X003927Y007950D01*
X004000Y008127D01*
X004000Y008318D01*
X003927Y008494D01*
X003792Y008629D01*
X003615Y008702D01*
X003425Y008702D01*
X003248Y008629D01*
X003130Y008511D02*
X002274Y008511D01*
X002254Y008417D02*
X002254Y008417D01*
X002251Y008413D02*
X003079Y008413D01*
X003040Y008314D02*
X002184Y008314D01*
X002108Y008216D02*
X003040Y008216D01*
X003044Y008117D02*
X002014Y008117D01*
X001844Y008019D02*
X003085Y008019D01*
X003143Y007920D02*
X000650Y007920D01*
X000650Y007822D02*
X003242Y007822D01*
X003798Y007822D02*
X006242Y007822D01*
X006248Y007815D02*
X006425Y007742D01*
X006615Y007742D01*
X006792Y007815D01*
X006927Y007950D01*
X007000Y008127D01*
X007000Y008318D01*
X006927Y008494D01*
X006792Y008629D01*
X006615Y008702D01*
X006425Y008702D01*
X006248Y008629D01*
X006113Y008494D01*
X006040Y008318D01*
X006040Y008127D01*
X006113Y007950D01*
X006248Y007815D01*
X006143Y007920D02*
X003897Y007920D01*
X003955Y008019D02*
X006085Y008019D01*
X006044Y008117D02*
X003996Y008117D01*
X004000Y008216D02*
X006040Y008216D01*
X006040Y008314D02*
X004000Y008314D01*
X003961Y008413D02*
X006079Y008413D01*
X006130Y008511D02*
X003910Y008511D01*
X003811Y008610D02*
X006229Y008610D01*
X006811Y008610D02*
X007421Y008610D01*
X007410Y008511D02*
X006910Y008511D01*
X006961Y008413D02*
X007410Y008413D01*
X007410Y008314D02*
X007000Y008314D01*
X007000Y008216D02*
X007410Y008216D01*
X007410Y008117D02*
X006996Y008117D01*
X006955Y008019D02*
X007410Y008019D01*
X007410Y007920D02*
X006897Y007920D01*
X006798Y007822D02*
X007410Y007822D01*
X007450Y007723D02*
X000650Y007723D01*
X000650Y007625D02*
X007518Y007625D01*
X007656Y007526D02*
X000650Y007526D01*
X000650Y008019D02*
X001146Y008019D01*
X000999Y008117D02*
X000650Y008117D01*
X000650Y008216D02*
X000890Y008216D01*
X000812Y008314D02*
X000649Y008314D01*
X000649Y008413D02*
X000768Y008413D01*
X000724Y008511D02*
X000649Y008511D01*
X000649Y008610D02*
X000693Y008610D01*
X000693Y008708D02*
X000649Y008708D01*
X000649Y008807D02*
X000693Y008807D01*
X000693Y008905D02*
X000649Y008905D01*
X000649Y009004D02*
X000729Y009004D01*
X000773Y009102D02*
X000649Y009102D01*
X000649Y009201D02*
X000816Y009201D01*
X000902Y009299D02*
X000649Y009299D01*
X000649Y009398D02*
X001011Y009398D01*
X001178Y009496D02*
X000649Y009496D01*
X000648Y010974D02*
X006052Y010974D01*
X005954Y011072D02*
X000648Y011072D01*
X000648Y011171D02*
X005855Y011171D01*
X005757Y011269D02*
X000648Y011269D01*
X000648Y011368D02*
X005658Y011368D01*
X005560Y011466D02*
X000648Y011466D01*
X000648Y011565D02*
X005461Y011565D01*
X005363Y011663D02*
X000648Y011663D01*
X000648Y011762D02*
X005264Y011762D01*
X005166Y011860D02*
X001787Y011860D01*
X001772Y011845D02*
X001907Y011980D01*
X001980Y012157D01*
X001980Y012348D01*
X001907Y012524D01*
X001772Y012659D01*
X001595Y012732D01*
X001405Y012732D01*
X001228Y012659D01*
X001093Y012524D01*
X001020Y012348D01*
X001020Y012157D01*
X001093Y011980D01*
X001228Y011845D01*
X001405Y011772D01*
X001595Y011772D01*
X001772Y011845D01*
X001885Y011959D02*
X005067Y011959D01*
X004969Y012057D02*
X001939Y012057D01*
X001980Y012156D02*
X004870Y012156D01*
X004772Y012254D02*
X001980Y012254D01*
X001978Y012353D02*
X004673Y012353D01*
X004575Y012451D02*
X001937Y012451D01*
X001881Y012550D02*
X004476Y012550D01*
X004378Y012648D02*
X001783Y012648D01*
X001772Y012845D02*
X001595Y012772D01*
X001405Y012772D01*
X001228Y012845D01*
X001130Y012944D02*
X000647Y012944D01*
X000647Y013042D02*
X001067Y013042D01*
X001027Y013141D02*
X000647Y013141D01*
X000647Y013239D02*
X001020Y013239D01*
X001020Y013338D02*
X000647Y013338D01*
X000647Y013436D02*
X001057Y013436D01*
X001104Y013535D02*
X000647Y013535D01*
X000647Y013633D02*
X001202Y013633D01*
X001264Y013830D02*
X000647Y013830D01*
X000647Y013732D02*
X001403Y013732D01*
X001405Y013772D02*
X001228Y013845D01*
X001093Y013980D01*
X001020Y014157D01*
X001020Y014348D01*
X001092Y014522D01*
X000905Y014522D01*
X000770Y014657D01*
X000770Y014848D01*
X000905Y014982D01*
X001092Y014982D01*
X001020Y015157D01*
X001020Y015348D01*
X001093Y015524D01*
X001228Y015659D01*
X001405Y015732D01*
X001595Y015732D01*
X001772Y015659D01*
X001907Y015524D01*
X001980Y015348D01*
X001980Y015157D01*
X001907Y014980D01*
X001839Y014912D01*
X003434Y014912D01*
X004109Y015587D01*
X004070Y015681D01*
X004070Y016444D01*
X004132Y016595D01*
X004248Y016710D01*
X004398Y016772D01*
X004562Y016772D01*
X004712Y016710D01*
X004828Y016595D01*
X004890Y016444D01*
X004890Y015681D01*
X004828Y015530D01*
X004712Y015415D01*
X004706Y015412D01*
X005254Y015412D01*
X005248Y015415D01*
X005132Y015530D01*
X005070Y015681D01*
X005070Y016444D01*
X005132Y016595D01*
X005248Y016710D01*
X005398Y016772D01*
X005562Y016772D01*
X005712Y016710D01*
X005828Y016595D01*
X005890Y016444D01*
X005890Y015681D01*
X005828Y015530D01*
X005712Y015415D01*
X005607Y015371D01*
X005660Y015319D01*
X005660Y014962D01*
X005822Y014962D01*
X005972Y014900D01*
X006088Y014785D01*
X006150Y014634D01*
X006150Y013871D01*
X006088Y013720D01*
X005972Y013605D01*
X005822Y013542D01*
X005658Y013542D01*
X005508Y013605D01*
X005392Y013720D01*
X005330Y013871D01*
X005330Y014634D01*
X005340Y014658D01*
X005340Y015092D01*
X004566Y015092D01*
X003660Y014186D01*
X003566Y014092D01*
X001953Y014092D01*
X001907Y013980D01*
X001772Y013845D01*
X001595Y013772D01*
X001405Y013772D01*
X001597Y013732D02*
X003753Y013732D01*
X003655Y013633D02*
X001798Y013633D01*
X001896Y013535D02*
X003556Y013535D01*
X003458Y013436D02*
X001943Y013436D01*
X001933Y013042D02*
X003984Y013042D01*
X004082Y012944D02*
X001870Y012944D01*
X001500Y013252D02*
X003500Y013252D01*
X004000Y013252D01*
X009000Y008252D01*
X008820Y008202D01*
X008410Y008216D02*
X008230Y008216D01*
X008230Y008314D02*
X008410Y008314D01*
X008410Y008413D02*
X008230Y008413D01*
X008230Y008511D02*
X008410Y008511D01*
X008416Y008610D02*
X008219Y008610D01*
X008178Y008708D02*
X008318Y008708D01*
X008219Y008807D02*
X008095Y008807D01*
X008230Y008117D02*
X008410Y008117D01*
X008410Y008019D02*
X008230Y008019D01*
X008230Y007920D02*
X008410Y007920D01*
X008410Y007822D02*
X008230Y007822D01*
X008190Y007723D02*
X008450Y007723D01*
X008518Y007625D02*
X008122Y007625D01*
X007984Y007526D02*
X008656Y007526D01*
X010058Y009792D02*
X021352Y009792D01*
X021352Y009890D02*
X010090Y009890D01*
X010082Y009989D02*
X021353Y009989D01*
X021353Y010087D02*
X010060Y010087D01*
X010060Y010186D02*
X021353Y010186D01*
X021353Y010284D02*
X010060Y010284D01*
X010060Y010383D02*
X021353Y010383D01*
X021353Y010481D02*
X010060Y010481D01*
X010060Y010580D02*
X021353Y010580D01*
X021353Y010678D02*
X010060Y010678D01*
X010060Y010777D02*
X021353Y010777D01*
X021353Y010875D02*
X010060Y010875D01*
X009740Y010875D02*
X007808Y010875D01*
X007808Y010777D02*
X009740Y010777D01*
X009740Y010678D02*
X007850Y010678D01*
X007949Y010580D02*
X009740Y010580D01*
X009740Y010481D02*
X008047Y010481D01*
X008146Y010383D02*
X009740Y010383D01*
X009740Y010284D02*
X008244Y010284D01*
X008343Y010186D02*
X009740Y010186D01*
X009740Y010087D02*
X008441Y010087D01*
X008465Y010974D02*
X007808Y010974D01*
X009335Y010974D02*
X009643Y010974D01*
X009545Y011072D02*
X009335Y011072D01*
X009335Y011171D02*
X009496Y011171D01*
X009465Y011269D02*
X009335Y011269D01*
X009335Y011368D02*
X009465Y011368D01*
X009485Y011466D02*
X009335Y011466D01*
X009335Y011565D02*
X009525Y011565D01*
X009616Y011663D02*
X009335Y011663D01*
X009276Y011762D02*
X009800Y011762D01*
X009932Y014222D02*
X009665Y014294D01*
X009425Y014432D01*
X009230Y014628D01*
X009092Y014867D01*
X009020Y015134D01*
X009020Y015411D01*
X009092Y015678D01*
X009230Y015917D01*
X009425Y016113D01*
X009665Y016251D01*
X009932Y016322D01*
X010208Y016322D01*
X010475Y016251D01*
X010715Y016113D01*
X010910Y015917D01*
X011048Y015678D01*
X011120Y015411D01*
X011120Y015134D01*
X011048Y014867D01*
X010910Y014628D01*
X010715Y014432D01*
X010475Y014294D01*
X010208Y014222D01*
X009932Y014222D01*
X009924Y014224D02*
X006150Y014224D01*
X006150Y014126D02*
X021356Y014126D01*
X021357Y014224D02*
X010216Y014224D01*
X010525Y014323D02*
X021357Y014323D01*
X021357Y014421D02*
X010696Y014421D01*
X010802Y014520D02*
X021357Y014520D01*
X021357Y014618D02*
X010901Y014618D01*
X010962Y014717D02*
X021357Y014717D01*
X021357Y014815D02*
X011019Y014815D01*
X011061Y014914D02*
X021357Y014914D01*
X021357Y015012D02*
X011087Y015012D01*
X011114Y015111D02*
X021357Y015111D01*
X021357Y015209D02*
X011120Y015209D01*
X011120Y015308D02*
X020319Y015308D01*
X020405Y015272D02*
X020595Y015272D01*
X020772Y015345D01*
X020907Y015480D01*
X020980Y015657D01*
X020980Y015848D01*
X020907Y016024D01*
X020772Y016159D01*
X020595Y016232D01*
X020405Y016232D01*
X020228Y016159D01*
X020093Y016024D01*
X020020Y015848D01*
X020020Y015657D01*
X020093Y015480D01*
X020228Y015345D01*
X020405Y015272D01*
X020167Y015406D02*
X011120Y015406D01*
X011095Y015505D02*
X020083Y015505D01*
X020042Y015603D02*
X011068Y015603D01*
X011034Y015702D02*
X020020Y015702D01*
X020020Y015800D02*
X010978Y015800D01*
X010921Y015899D02*
X020041Y015899D01*
X020082Y015997D02*
X010830Y015997D01*
X010731Y016096D02*
X020165Y016096D01*
X020313Y016194D02*
X010573Y016194D01*
X010318Y016293D02*
X020355Y016293D01*
X020405Y016272D02*
X020595Y016272D01*
X020772Y016345D01*
X020907Y016480D01*
X020980Y016657D01*
X020980Y016848D01*
X020907Y017024D01*
X020772Y017159D01*
X020595Y017232D01*
X020405Y017232D01*
X020228Y017159D01*
X020093Y017024D01*
X020020Y016848D01*
X020020Y016657D01*
X020093Y016480D01*
X020228Y016345D01*
X020405Y016272D01*
X020645Y016293D02*
X021358Y016293D01*
X021359Y016391D02*
X020818Y016391D01*
X020911Y016490D02*
X021359Y016490D01*
X021359Y016588D02*
X020952Y016588D01*
X020980Y016687D02*
X021359Y016687D01*
X021359Y016785D02*
X020980Y016785D01*
X020965Y016884D02*
X021359Y016884D01*
X021359Y016982D02*
X020924Y016982D01*
X020850Y017081D02*
X021359Y017081D01*
X021359Y017179D02*
X020723Y017179D01*
X020609Y017278D02*
X021359Y017278D01*
X021359Y017376D02*
X020803Y017376D01*
X020772Y017345D02*
X020907Y017480D01*
X020980Y017657D01*
X020980Y017848D01*
X020907Y018024D01*
X020772Y018159D01*
X020595Y018232D01*
X020405Y018232D01*
X020293Y018186D01*
X018160Y020319D01*
X018066Y020412D01*
X014660Y023819D01*
X014566Y023912D01*
X009160Y023912D01*
X009160Y026512D01*
X009202Y026512D01*
X009352Y026575D01*
X009468Y026690D01*
X009530Y026841D01*
X009530Y026996D01*
X009840Y026686D01*
X009934Y026592D01*
X013934Y026592D01*
X017840Y022686D01*
X017934Y022592D01*
X020047Y022592D01*
X020093Y022480D01*
X020228Y022345D01*
X020405Y022272D01*
X020595Y022272D01*
X020772Y022345D01*
X020907Y022480D01*
X020980Y022657D01*
X020980Y022848D01*
X020907Y023024D01*
X020772Y023159D01*
X020595Y023232D01*
X020405Y023232D01*
X020228Y023159D01*
X020093Y023024D01*
X020047Y022912D01*
X018066Y022912D01*
X014066Y026912D01*
X010066Y026912D01*
X009378Y027601D01*
X009468Y027690D01*
X009530Y027841D01*
X009530Y028004D01*
X009468Y028155D01*
X009352Y028270D01*
X009202Y028332D01*
X008438Y028332D01*
X008288Y028270D01*
X008172Y028155D01*
X008110Y028004D01*
X008110Y027841D01*
X008172Y027690D01*
X008288Y027575D01*
X008438Y027512D01*
X009014Y027512D01*
X009194Y027332D01*
X008438Y027332D01*
X008288Y027270D01*
X008172Y027155D01*
X008110Y027004D01*
X008110Y026841D01*
X008172Y026690D01*
X008288Y026575D01*
X008438Y026512D01*
X008840Y026512D01*
X008840Y023686D01*
X008934Y023592D01*
X009765Y023592D01*
X009681Y023509D01*
X009615Y023349D01*
X009615Y023176D01*
X009681Y023016D01*
X009804Y022894D01*
X009963Y022827D01*
X010137Y022827D01*
X010296Y022894D01*
X010419Y023016D01*
X010485Y023176D01*
X010485Y023349D01*
X010419Y023509D01*
X010335Y023592D01*
X010615Y023592D01*
X010615Y022892D01*
X010679Y022827D01*
X011421Y022827D01*
X011485Y022892D01*
X011485Y023592D01*
X014434Y023592D01*
X017614Y020412D01*
X011182Y020412D01*
X011319Y020469D01*
X011443Y020593D01*
X011510Y020755D01*
X011510Y021590D01*
X011443Y021752D01*
X011319Y021875D01*
X011158Y021942D01*
X010982Y021942D01*
X010821Y021875D01*
X010697Y021752D01*
X010630Y021590D01*
X010630Y020755D01*
X010697Y020593D01*
X010821Y020469D01*
X010958Y020412D01*
X010182Y020412D01*
X010319Y020469D01*
X010443Y020593D01*
X010510Y020755D01*
X010510Y021590D01*
X010443Y021752D01*
X010319Y021875D01*
X010158Y021942D01*
X009982Y021942D01*
X009821Y021875D01*
X009697Y021752D01*
X009630Y021590D01*
X009630Y020755D01*
X009697Y020593D01*
X009821Y020469D01*
X009958Y020412D01*
X009182Y020412D01*
X009319Y020469D01*
X009443Y020593D01*
X009510Y020755D01*
X009510Y021590D01*
X009443Y021752D01*
X009319Y021875D01*
X009158Y021942D01*
X008982Y021942D01*
X008821Y021875D01*
X008697Y021752D01*
X008630Y021590D01*
X008630Y020755D01*
X008697Y020593D01*
X008821Y020469D01*
X008958Y020412D01*
X008934Y020412D01*
X008840Y020319D01*
X006750Y018229D01*
X006748Y018235D01*
X006632Y018350D01*
X006482Y018412D01*
X006318Y018412D01*
X006168Y018350D01*
X006052Y018235D01*
X005990Y018084D01*
X005990Y017321D01*
X006052Y017170D01*
X006168Y017055D01*
X006318Y016992D01*
X006482Y016992D01*
X006632Y017055D01*
X006748Y017170D01*
X006810Y017321D01*
X006810Y017836D01*
X009066Y020092D01*
X017934Y020092D01*
X020066Y017960D01*
X020020Y017848D01*
X020020Y017657D01*
X020093Y017480D01*
X020228Y017345D01*
X020405Y017272D01*
X020595Y017272D01*
X020772Y017345D01*
X020901Y017475D02*
X021360Y017475D01*
X021360Y017573D02*
X020945Y017573D01*
X020980Y017672D02*
X021360Y017672D01*
X021360Y017770D02*
X020980Y017770D01*
X020971Y017869D02*
X021360Y017869D01*
X021360Y017967D02*
X020930Y017967D01*
X020865Y018066D02*
X021360Y018066D01*
X021360Y018164D02*
X020760Y018164D01*
X020772Y018345D02*
X020595Y018272D01*
X020405Y018272D01*
X020228Y018345D01*
X020093Y018480D01*
X020020Y018657D01*
X019822Y018657D01*
X019920Y018558D02*
X020061Y018558D01*
X020019Y018460D02*
X020114Y018460D01*
X020117Y018361D02*
X020212Y018361D01*
X020216Y018263D02*
X021360Y018263D01*
X021360Y018361D02*
X020788Y018361D01*
X020772Y018345D02*
X020907Y018480D01*
X020980Y018657D01*
X021361Y018657D01*
X021361Y018755D02*
X020980Y018755D01*
X020980Y018848D02*
X020980Y018657D01*
X020939Y018558D02*
X021361Y018558D01*
X021360Y018460D02*
X020886Y018460D01*
X020980Y018848D02*
X020907Y019024D01*
X020772Y019159D01*
X020595Y019232D01*
X020405Y019232D01*
X020228Y019159D01*
X020093Y019024D01*
X020020Y018848D01*
X020020Y018657D01*
X020020Y018755D02*
X019723Y018755D01*
X019625Y018854D02*
X020023Y018854D01*
X020063Y018952D02*
X019526Y018952D01*
X019428Y019051D02*
X020120Y019051D01*
X020218Y019149D02*
X019329Y019149D01*
X019231Y019248D02*
X021361Y019248D01*
X021361Y019346D02*
X020773Y019346D01*
X020772Y019345D02*
X020907Y019480D01*
X020980Y019657D01*
X020980Y019848D01*
X020907Y020024D01*
X020772Y020159D01*
X020595Y020232D01*
X020405Y020232D01*
X020228Y020159D01*
X020093Y020024D01*
X020020Y019848D01*
X020020Y019657D01*
X020093Y019480D01*
X020228Y019345D01*
X020405Y019272D01*
X020595Y019272D01*
X020772Y019345D01*
X020871Y019445D02*
X021361Y019445D01*
X021361Y019543D02*
X020933Y019543D01*
X020974Y019642D02*
X021362Y019642D01*
X021362Y019740D02*
X020980Y019740D01*
X020980Y019839D02*
X021362Y019839D01*
X021362Y019937D02*
X020943Y019937D01*
X020895Y020036D02*
X021362Y020036D01*
X021362Y020134D02*
X020797Y020134D01*
X020738Y020331D02*
X021362Y020331D01*
X021362Y020233D02*
X018246Y020233D01*
X018160Y020319D02*
X018160Y020319D01*
X018147Y020331D02*
X020262Y020331D01*
X020228Y020345D02*
X020405Y020272D01*
X020595Y020272D01*
X020772Y020345D01*
X020907Y020480D01*
X020980Y020657D01*
X020980Y020848D01*
X020907Y021024D01*
X020772Y021159D01*
X020595Y021232D01*
X020405Y021232D01*
X020228Y021159D01*
X020093Y021024D01*
X020020Y020848D01*
X020020Y020657D01*
X020093Y020480D01*
X020228Y020345D01*
X020144Y020430D02*
X018049Y020430D01*
X018066Y020412D02*
X018066Y020412D01*
X017950Y020528D02*
X020073Y020528D01*
X020032Y020627D02*
X017852Y020627D01*
X017753Y020725D02*
X020020Y020725D01*
X020020Y020824D02*
X017655Y020824D01*
X017556Y020922D02*
X020051Y020922D01*
X020092Y021021D02*
X017458Y021021D01*
X017359Y021119D02*
X020188Y021119D01*
X020370Y021218D02*
X017261Y021218D01*
X017162Y021316D02*
X021363Y021316D01*
X021363Y021218D02*
X020630Y021218D01*
X020812Y021119D02*
X021363Y021119D01*
X021363Y021021D02*
X020908Y021021D01*
X020949Y020922D02*
X021363Y020922D01*
X021363Y020824D02*
X020980Y020824D01*
X020980Y020725D02*
X021363Y020725D01*
X021362Y020627D02*
X020968Y020627D01*
X020927Y020528D02*
X021362Y020528D01*
X021362Y020430D02*
X020856Y020430D01*
X020203Y020134D02*
X018344Y020134D01*
X018443Y020036D02*
X020105Y020036D01*
X020057Y019937D02*
X018541Y019937D01*
X018640Y019839D02*
X020020Y019839D01*
X020020Y019740D02*
X018738Y019740D01*
X018837Y019642D02*
X020026Y019642D01*
X020067Y019543D02*
X018935Y019543D01*
X019034Y019445D02*
X020129Y019445D01*
X020227Y019346D02*
X019132Y019346D01*
X018877Y019149D02*
X008123Y019149D01*
X008025Y019051D02*
X018975Y019051D01*
X019074Y018952D02*
X007926Y018952D01*
X007828Y018854D02*
X019172Y018854D01*
X019271Y018755D02*
X007729Y018755D01*
X007631Y018657D02*
X019369Y018657D01*
X019468Y018558D02*
X007532Y018558D01*
X007434Y018460D02*
X019566Y018460D01*
X019665Y018361D02*
X007335Y018361D01*
X007237Y018263D02*
X019763Y018263D01*
X019862Y018164D02*
X007138Y018164D01*
X007040Y018066D02*
X019960Y018066D01*
X020059Y017967D02*
X006941Y017967D01*
X006843Y017869D02*
X020029Y017869D01*
X020020Y017770D02*
X006810Y017770D01*
X006810Y017672D02*
X020020Y017672D01*
X020055Y017573D02*
X006810Y017573D01*
X006810Y017475D02*
X020099Y017475D01*
X020197Y017376D02*
X006810Y017376D01*
X006792Y017278D02*
X020391Y017278D01*
X020277Y017179D02*
X006751Y017179D01*
X006658Y017081D02*
X020150Y017081D01*
X020076Y016982D02*
X002996Y016982D01*
X003095Y016884D02*
X020035Y016884D01*
X020020Y016785D02*
X003193Y016785D01*
X003263Y016716D02*
X001934Y018045D01*
X001980Y018157D01*
X001980Y018348D01*
X001907Y018524D01*
X001839Y018592D01*
X003434Y018592D01*
X003990Y018036D01*
X003990Y017321D01*
X004052Y017170D01*
X004168Y017055D01*
X004318Y016992D01*
X004482Y016992D01*
X004632Y017055D01*
X004748Y017170D01*
X004810Y017321D01*
X004810Y018084D01*
X004748Y018235D01*
X004632Y018350D01*
X004482Y018412D01*
X004318Y018412D01*
X004168Y018350D01*
X004148Y018330D01*
X004006Y018472D01*
X004032Y018472D01*
X004182Y018535D01*
X004298Y018650D01*
X004360Y018801D01*
X004360Y019564D01*
X004298Y019715D01*
X004182Y019830D01*
X004032Y019892D01*
X003868Y019892D01*
X003718Y019830D01*
X003683Y019795D01*
X002660Y020819D01*
X002566Y020912D01*
X001953Y020912D01*
X001907Y021024D01*
X001772Y021159D01*
X001595Y021232D01*
X001405Y021232D01*
X001228Y021159D01*
X001093Y021024D01*
X001020Y020848D01*
X001020Y020657D01*
X001093Y020480D01*
X001228Y020345D01*
X001405Y020272D01*
X001595Y020272D01*
X001772Y020345D01*
X001907Y020480D01*
X001953Y020592D01*
X002434Y020592D01*
X003540Y019486D01*
X003540Y018912D01*
X001839Y018912D01*
X001907Y018980D01*
X001980Y019157D01*
X001980Y019348D01*
X001907Y019524D01*
X001772Y019659D01*
X001595Y019732D01*
X001405Y019732D01*
X001228Y019659D01*
X001093Y019524D01*
X001020Y019348D01*
X001020Y019157D01*
X001093Y018980D01*
X001161Y018912D01*
X000934Y018912D01*
X000840Y018819D01*
X000840Y017186D01*
X000934Y017092D01*
X001047Y017092D01*
X001093Y016980D01*
X001228Y016845D01*
X001405Y016772D01*
X001595Y016772D01*
X001772Y016845D01*
X001907Y016980D01*
X001980Y017157D01*
X001980Y017348D01*
X001907Y017524D01*
X001772Y017659D01*
X001595Y017732D01*
X001405Y017732D01*
X001228Y017659D01*
X001160Y017591D01*
X001160Y017914D01*
X001228Y017845D01*
X001405Y017772D01*
X001595Y017772D01*
X001707Y017819D01*
X003074Y016453D01*
X003070Y016444D01*
X003070Y015681D01*
X003132Y015530D01*
X003248Y015415D01*
X003398Y015352D01*
X003562Y015352D01*
X003712Y015415D01*
X003828Y015530D01*
X003890Y015681D01*
X003890Y016444D01*
X003828Y016595D01*
X003712Y016710D01*
X003562Y016772D01*
X003398Y016772D01*
X003263Y016716D01*
X003318Y016992D02*
X003482Y016992D01*
X003632Y017055D01*
X003748Y017170D01*
X003810Y017321D01*
X003810Y018084D01*
X003748Y018235D01*
X003632Y018350D01*
X003482Y018412D01*
X003318Y018412D01*
X003168Y018350D01*
X003052Y018235D01*
X002990Y018084D01*
X002990Y017321D01*
X003052Y017170D01*
X003168Y017055D01*
X003318Y016992D01*
X003142Y017081D02*
X002898Y017081D01*
X002799Y017179D02*
X003049Y017179D01*
X003008Y017278D02*
X002701Y017278D01*
X002602Y017376D02*
X002990Y017376D01*
X002990Y017475D02*
X002504Y017475D01*
X002405Y017573D02*
X002990Y017573D01*
X002990Y017672D02*
X002307Y017672D01*
X002208Y017770D02*
X002990Y017770D01*
X002990Y017869D02*
X002110Y017869D01*
X002011Y017967D02*
X002990Y017967D01*
X002990Y018066D02*
X001942Y018066D01*
X001980Y018164D02*
X003023Y018164D01*
X003081Y018263D02*
X001980Y018263D01*
X001974Y018361D02*
X003195Y018361D01*
X003468Y018558D02*
X001873Y018558D01*
X001934Y018460D02*
X003566Y018460D01*
X003605Y018361D02*
X003665Y018361D01*
X003719Y018263D02*
X003763Y018263D01*
X003777Y018164D02*
X003862Y018164D01*
X003810Y018066D02*
X003960Y018066D01*
X003990Y017967D02*
X003810Y017967D01*
X003810Y017869D02*
X003990Y017869D01*
X003990Y017770D02*
X003810Y017770D01*
X003810Y017672D02*
X003990Y017672D01*
X003990Y017573D02*
X003810Y017573D01*
X003810Y017475D02*
X003990Y017475D01*
X003990Y017376D02*
X003810Y017376D01*
X003792Y017278D02*
X004008Y017278D01*
X004049Y017179D02*
X003751Y017179D01*
X003658Y017081D02*
X004142Y017081D01*
X004225Y016687D02*
X003735Y016687D01*
X003830Y016588D02*
X004130Y016588D01*
X004089Y016490D02*
X003871Y016490D01*
X003890Y016391D02*
X004070Y016391D01*
X004070Y016293D02*
X003890Y016293D01*
X003890Y016194D02*
X004070Y016194D01*
X004070Y016096D02*
X003890Y016096D01*
X003890Y015997D02*
X004070Y015997D01*
X004070Y015899D02*
X003890Y015899D01*
X003890Y015800D02*
X004070Y015800D01*
X004070Y015702D02*
X003890Y015702D01*
X003858Y015603D02*
X004102Y015603D01*
X004026Y015505D02*
X003802Y015505D01*
X003692Y015406D02*
X003928Y015406D01*
X003829Y015308D02*
X001980Y015308D01*
X001980Y015209D02*
X003731Y015209D01*
X003632Y015111D02*
X001961Y015111D01*
X001920Y015012D02*
X003534Y015012D01*
X003435Y014914D02*
X001840Y014914D01*
X001839Y014592D02*
X003566Y014592D01*
X003660Y014686D01*
X004347Y015374D01*
X004381Y015360D01*
X003434Y014412D01*
X001953Y014412D01*
X001907Y014524D01*
X001839Y014592D01*
X001909Y014520D02*
X003541Y014520D01*
X003592Y014618D02*
X003640Y014618D01*
X003691Y014717D02*
X003738Y014717D01*
X003789Y014815D02*
X003837Y014815D01*
X003888Y014914D02*
X003935Y014914D01*
X003986Y015012D02*
X004034Y015012D01*
X004085Y015111D02*
X004132Y015111D01*
X004183Y015209D02*
X004231Y015209D01*
X004282Y015308D02*
X004329Y015308D01*
X004500Y015252D02*
X003500Y014252D01*
X001500Y014252D01*
X001145Y013929D02*
X000647Y013929D01*
X000647Y014027D02*
X001074Y014027D01*
X001033Y014126D02*
X000647Y014126D01*
X000647Y014224D02*
X001020Y014224D01*
X001020Y014323D02*
X000647Y014323D01*
X000647Y014421D02*
X001050Y014421D01*
X001091Y014520D02*
X000647Y014520D01*
X000646Y014618D02*
X000809Y014618D01*
X000770Y014717D02*
X000646Y014717D01*
X000646Y014815D02*
X000770Y014815D01*
X000836Y014914D02*
X000646Y014914D01*
X000646Y015012D02*
X001080Y015012D01*
X001039Y015111D02*
X000646Y015111D01*
X000646Y015209D02*
X001020Y015209D01*
X001020Y015308D02*
X000646Y015308D01*
X000646Y015406D02*
X001044Y015406D01*
X001085Y015505D02*
X000646Y015505D01*
X000646Y015603D02*
X001172Y015603D01*
X001331Y015702D02*
X000646Y015702D01*
X000646Y015800D02*
X001337Y015800D01*
X001405Y015772D02*
X001595Y015772D01*
X001772Y015845D01*
X001907Y015980D01*
X001980Y016157D01*
X001980Y016348D01*
X001907Y016524D01*
X001772Y016659D01*
X001595Y016732D01*
X001405Y016732D01*
X001228Y016659D01*
X001093Y016524D01*
X001020Y016348D01*
X001020Y016157D01*
X001093Y015980D01*
X001228Y015845D01*
X001405Y015772D01*
X001663Y015800D02*
X003070Y015800D01*
X003070Y015702D02*
X001669Y015702D01*
X001828Y015603D02*
X003102Y015603D01*
X003158Y015505D02*
X001915Y015505D01*
X001956Y015406D02*
X003268Y015406D01*
X003070Y015899D02*
X001825Y015899D01*
X001914Y015997D02*
X003070Y015997D01*
X003070Y016096D02*
X001955Y016096D01*
X001980Y016194D02*
X003070Y016194D01*
X003070Y016293D02*
X001980Y016293D01*
X001962Y016391D02*
X003070Y016391D01*
X003036Y016490D02*
X001921Y016490D01*
X001843Y016588D02*
X002938Y016588D01*
X002839Y016687D02*
X001705Y016687D01*
X001627Y016785D02*
X002741Y016785D01*
X002642Y016884D02*
X001810Y016884D01*
X001908Y016982D02*
X002544Y016982D01*
X002445Y017081D02*
X001949Y017081D01*
X001980Y017179D02*
X002347Y017179D01*
X002248Y017278D02*
X001980Y017278D01*
X001968Y017376D02*
X002150Y017376D01*
X002051Y017475D02*
X001927Y017475D01*
X001953Y017573D02*
X001858Y017573D01*
X001854Y017672D02*
X001741Y017672D01*
X001756Y017770D02*
X001160Y017770D01*
X001160Y017672D02*
X001259Y017672D01*
X001205Y017869D02*
X001160Y017869D01*
X000840Y017869D02*
X000645Y017869D01*
X000645Y017967D02*
X000840Y017967D01*
X000840Y018066D02*
X000645Y018066D01*
X000645Y018164D02*
X000840Y018164D01*
X000840Y018263D02*
X000645Y018263D01*
X000645Y018361D02*
X000840Y018361D01*
X000840Y018460D02*
X000645Y018460D01*
X000645Y018558D02*
X000840Y018558D01*
X000840Y018657D02*
X000645Y018657D01*
X000645Y018755D02*
X000840Y018755D01*
X000875Y018854D02*
X000644Y018854D01*
X000644Y018952D02*
X001121Y018952D01*
X001064Y019051D02*
X000644Y019051D01*
X000644Y019149D02*
X001023Y019149D01*
X001020Y019248D02*
X000644Y019248D01*
X000644Y019346D02*
X001020Y019346D01*
X001060Y019445D02*
X000644Y019445D01*
X000644Y019543D02*
X001112Y019543D01*
X001211Y019642D02*
X000644Y019642D01*
X000644Y019740D02*
X003286Y019740D01*
X003384Y019642D02*
X001789Y019642D01*
X001888Y019543D02*
X003483Y019543D01*
X003540Y019445D02*
X001940Y019445D01*
X001980Y019346D02*
X003540Y019346D01*
X003540Y019248D02*
X001980Y019248D01*
X001977Y019149D02*
X003540Y019149D01*
X003540Y019051D02*
X001936Y019051D01*
X001879Y018952D02*
X003540Y018952D01*
X003500Y018752D02*
X001000Y018752D01*
X001000Y017252D01*
X001500Y017252D01*
X001190Y016884D02*
X000645Y016884D01*
X000645Y016982D02*
X001092Y016982D01*
X001051Y017081D02*
X000645Y017081D01*
X000645Y017179D02*
X000847Y017179D01*
X000840Y017278D02*
X000645Y017278D01*
X000645Y017376D02*
X000840Y017376D01*
X000840Y017475D02*
X000645Y017475D01*
X000645Y017573D02*
X000840Y017573D01*
X000840Y017672D02*
X000645Y017672D01*
X000645Y017770D02*
X000840Y017770D01*
X001500Y018252D02*
X003500Y016252D01*
X003480Y016062D01*
X004500Y015752D02*
X003500Y014752D01*
X001000Y014752D01*
X001736Y013830D02*
X003852Y013830D01*
X003950Y013929D02*
X001855Y013929D01*
X001926Y014027D02*
X004049Y014027D01*
X004147Y014126D02*
X003600Y014126D01*
X003698Y014224D02*
X004246Y014224D01*
X004330Y014323D02*
X003797Y014323D01*
X003895Y014421D02*
X004330Y014421D01*
X004330Y014520D02*
X003994Y014520D01*
X004092Y014618D02*
X004330Y014618D01*
X004364Y014717D02*
X004191Y014717D01*
X004289Y014815D02*
X004423Y014815D01*
X004388Y014914D02*
X004541Y014914D01*
X004486Y015012D02*
X005340Y015012D01*
X005340Y014914D02*
X004939Y014914D01*
X005057Y014815D02*
X005340Y014815D01*
X005340Y014717D02*
X005116Y014717D01*
X005150Y014618D02*
X005330Y014618D01*
X005330Y014520D02*
X005150Y014520D01*
X005150Y014421D02*
X005330Y014421D01*
X005330Y014323D02*
X005150Y014323D01*
X005150Y014224D02*
X005330Y014224D01*
X005330Y014126D02*
X005150Y014126D01*
X005150Y014027D02*
X005330Y014027D01*
X005330Y013929D02*
X005150Y013929D01*
X005133Y013830D02*
X005347Y013830D01*
X005388Y013732D02*
X005092Y013732D01*
X005001Y013633D02*
X005479Y013633D01*
X006001Y013633D02*
X021356Y013633D01*
X021356Y013535D02*
X004009Y013535D01*
X004107Y013633D02*
X004479Y013633D01*
X004388Y013732D02*
X004206Y013732D01*
X004304Y013830D02*
X004347Y013830D01*
X004500Y014252D02*
X004740Y014252D01*
X004500Y014252D02*
X003500Y013252D01*
X003910Y013436D02*
X021356Y013436D01*
X021356Y013338D02*
X004141Y013338D01*
X004239Y013239D02*
X021356Y013239D01*
X021356Y013141D02*
X004338Y013141D01*
X004436Y013042D02*
X021355Y013042D01*
X021355Y012944D02*
X004535Y012944D01*
X004633Y012845D02*
X021355Y012845D01*
X021355Y012747D02*
X004732Y012747D01*
X004830Y012648D02*
X021355Y012648D01*
X021355Y012550D02*
X004929Y012550D01*
X005027Y012451D02*
X021355Y012451D01*
X021355Y012353D02*
X005126Y012353D01*
X005224Y012254D02*
X021355Y012254D01*
X021355Y012156D02*
X005323Y012156D01*
X005421Y012057D02*
X021354Y012057D01*
X021354Y011959D02*
X005520Y011959D01*
X006092Y013732D02*
X021356Y013732D01*
X021356Y013830D02*
X006133Y013830D01*
X006150Y013929D02*
X021356Y013929D01*
X021356Y014027D02*
X006150Y014027D01*
X006150Y014323D02*
X009615Y014323D01*
X009444Y014421D02*
X006150Y014421D01*
X006150Y014520D02*
X009338Y014520D01*
X009239Y014618D02*
X006150Y014618D01*
X006116Y014717D02*
X009178Y014717D01*
X009121Y014815D02*
X006057Y014815D01*
X005939Y014914D02*
X009079Y014914D01*
X009053Y015012D02*
X005660Y015012D01*
X005660Y015111D02*
X009026Y015111D01*
X009020Y015209D02*
X005660Y015209D01*
X005660Y015308D02*
X009020Y015308D01*
X009020Y015406D02*
X006692Y015406D01*
X006712Y015415D02*
X006828Y015530D01*
X006890Y015681D01*
X006890Y016444D01*
X006828Y016595D01*
X006712Y016710D01*
X006562Y016772D01*
X006398Y016772D01*
X006248Y016710D01*
X006132Y016595D01*
X006070Y016444D01*
X006070Y015681D01*
X006132Y015530D01*
X006248Y015415D01*
X006398Y015352D01*
X006562Y015352D01*
X006712Y015415D01*
X006802Y015505D02*
X009045Y015505D01*
X009072Y015603D02*
X006858Y015603D01*
X006890Y015702D02*
X009106Y015702D01*
X009162Y015800D02*
X006890Y015800D01*
X006890Y015899D02*
X009219Y015899D01*
X009310Y015997D02*
X006890Y015997D01*
X006890Y016096D02*
X009409Y016096D01*
X009567Y016194D02*
X006890Y016194D01*
X006890Y016293D02*
X009822Y016293D01*
X008222Y019248D02*
X018778Y019248D01*
X018680Y019346D02*
X008320Y019346D01*
X008419Y019445D02*
X018581Y019445D01*
X018483Y019543D02*
X008517Y019543D01*
X008616Y019642D02*
X018384Y019642D01*
X018286Y019740D02*
X008714Y019740D01*
X008813Y019839D02*
X018187Y019839D01*
X018089Y019937D02*
X008911Y019937D01*
X009010Y020036D02*
X017990Y020036D01*
X018000Y020252D02*
X009000Y020252D01*
X006500Y017752D01*
X006400Y017702D01*
X006023Y018164D02*
X005777Y018164D01*
X005748Y018235D02*
X005632Y018350D01*
X005482Y018412D01*
X005318Y018412D01*
X005168Y018350D01*
X005052Y018235D01*
X004990Y018084D01*
X004990Y017321D01*
X005052Y017170D01*
X005168Y017055D01*
X005318Y016992D01*
X005482Y016992D01*
X005632Y017055D01*
X005748Y017170D01*
X005810Y017321D01*
X005810Y018084D01*
X005748Y018235D01*
X005719Y018263D02*
X006081Y018263D01*
X006195Y018361D02*
X005605Y018361D01*
X005718Y018535D02*
X005868Y018472D01*
X006032Y018472D01*
X006182Y018535D01*
X006298Y018650D01*
X006360Y018801D01*
X006360Y019564D01*
X006298Y019715D01*
X006182Y019830D01*
X006032Y019892D01*
X005868Y019892D01*
X005718Y019830D01*
X005602Y019715D01*
X005540Y019564D01*
X005540Y018801D01*
X005602Y018650D01*
X005718Y018535D01*
X005694Y018558D02*
X005206Y018558D01*
X005182Y018535D02*
X005298Y018650D01*
X005360Y018801D01*
X005360Y019564D01*
X005298Y019715D01*
X005182Y019830D01*
X005032Y019892D01*
X004868Y019892D01*
X004718Y019830D01*
X004602Y019715D01*
X004540Y019564D01*
X004540Y018801D01*
X004602Y018650D01*
X004718Y018535D01*
X004868Y018472D01*
X005032Y018472D01*
X005182Y018535D01*
X005300Y018657D02*
X005600Y018657D01*
X005559Y018755D02*
X005341Y018755D01*
X005360Y018854D02*
X005540Y018854D01*
X005540Y018952D02*
X005360Y018952D01*
X005360Y019051D02*
X005540Y019051D01*
X005540Y019149D02*
X005360Y019149D01*
X005360Y019248D02*
X005540Y019248D01*
X005540Y019346D02*
X005360Y019346D01*
X005360Y019445D02*
X005540Y019445D01*
X005540Y019543D02*
X005360Y019543D01*
X005328Y019642D02*
X005572Y019642D01*
X005628Y019740D02*
X005272Y019740D01*
X005161Y019839D02*
X005739Y019839D01*
X005778Y020212D02*
X005942Y020212D01*
X006092Y020275D01*
X006208Y020390D01*
X006270Y020541D01*
X006270Y021304D01*
X006208Y021455D01*
X006130Y021532D01*
X008236Y021532D01*
X008896Y022192D01*
X012344Y022192D01*
X012682Y021854D01*
X012682Y021569D01*
X012746Y021504D01*
X013194Y021504D01*
X013258Y021569D01*
X013258Y022016D01*
X013194Y022080D01*
X012908Y022080D01*
X012476Y022512D01*
X008764Y022512D01*
X008670Y022419D01*
X008104Y021852D01*
X006090Y021852D01*
X006198Y021960D01*
X006260Y022111D01*
X006260Y022874D01*
X006198Y023025D01*
X006082Y023140D01*
X005932Y023202D01*
X005768Y023202D01*
X005618Y023140D01*
X005502Y023025D01*
X005440Y022874D01*
X005440Y022111D01*
X005502Y021960D01*
X005610Y021852D01*
X005334Y021852D01*
X005240Y021759D01*
X005063Y021582D01*
X004942Y021632D01*
X004778Y021632D01*
X004628Y021570D01*
X004512Y021455D01*
X004450Y021304D01*
X004450Y020541D01*
X004512Y020390D01*
X004628Y020275D01*
X004778Y020212D01*
X004942Y020212D01*
X005092Y020275D01*
X005208Y020390D01*
X005270Y020541D01*
X005270Y021304D01*
X005261Y021327D01*
X005466Y021532D01*
X005590Y021532D01*
X005512Y021455D01*
X005450Y021304D01*
X005450Y020541D01*
X005512Y020390D01*
X005628Y020275D01*
X005778Y020212D01*
X005729Y020233D02*
X004991Y020233D01*
X005149Y020331D02*
X005571Y020331D01*
X005496Y020430D02*
X005224Y020430D01*
X005265Y020528D02*
X005455Y020528D01*
X005450Y020627D02*
X005270Y020627D01*
X005270Y020725D02*
X005450Y020725D01*
X005450Y020824D02*
X005270Y020824D01*
X005270Y020922D02*
X005450Y020922D01*
X005450Y021021D02*
X005270Y021021D01*
X005270Y021119D02*
X005450Y021119D01*
X005450Y021218D02*
X005270Y021218D01*
X005265Y021316D02*
X005455Y021316D01*
X005496Y021415D02*
X005349Y021415D01*
X005447Y021513D02*
X005571Y021513D01*
X005400Y021692D02*
X008170Y021692D01*
X008830Y022352D01*
X012410Y022352D01*
X012970Y021792D01*
X013258Y021809D02*
X016217Y021809D01*
X016119Y021907D02*
X013258Y021907D01*
X013258Y022006D02*
X016020Y022006D01*
X015922Y022104D02*
X012884Y022104D01*
X012786Y022203D02*
X015823Y022203D01*
X015725Y022301D02*
X012687Y022301D01*
X012589Y022400D02*
X015626Y022400D01*
X015528Y022498D02*
X012490Y022498D01*
X012432Y022104D02*
X008808Y022104D01*
X008710Y022006D02*
X012530Y022006D01*
X012629Y021907D02*
X011242Y021907D01*
X011386Y021809D02*
X012682Y021809D01*
X012682Y021710D02*
X011460Y021710D01*
X011501Y021612D02*
X012682Y021612D01*
X012737Y021513D02*
X011510Y021513D01*
X011510Y021415D02*
X016611Y021415D01*
X016513Y021513D02*
X013203Y021513D01*
X013258Y021612D02*
X016414Y021612D01*
X016316Y021710D02*
X013258Y021710D01*
X014641Y023385D02*
X011485Y023385D01*
X011485Y023483D02*
X014543Y023483D01*
X014444Y023582D02*
X011485Y023582D01*
X011485Y023286D02*
X014740Y023286D01*
X014838Y023188D02*
X011485Y023188D01*
X011485Y023089D02*
X014937Y023089D01*
X015035Y022991D02*
X011485Y022991D01*
X011485Y022892D02*
X015134Y022892D01*
X015232Y022794D02*
X006260Y022794D01*
X006260Y022695D02*
X015331Y022695D01*
X015429Y022597D02*
X006260Y022597D01*
X006260Y022498D02*
X008750Y022498D01*
X008651Y022400D02*
X006260Y022400D01*
X006260Y022301D02*
X008553Y022301D01*
X008454Y022203D02*
X006260Y022203D01*
X006257Y022104D02*
X008356Y022104D01*
X008257Y022006D02*
X006217Y022006D01*
X006145Y021907D02*
X008159Y021907D01*
X008414Y021710D02*
X008680Y021710D01*
X008639Y021612D02*
X008316Y021612D01*
X008513Y021809D02*
X008754Y021809D01*
X008611Y021907D02*
X008898Y021907D01*
X009242Y021907D02*
X009898Y021907D01*
X009754Y021809D02*
X009386Y021809D01*
X009460Y021710D02*
X009680Y021710D01*
X009639Y021612D02*
X009501Y021612D01*
X009510Y021513D02*
X009630Y021513D01*
X009630Y021415D02*
X009510Y021415D01*
X009510Y021316D02*
X009630Y021316D01*
X009630Y021218D02*
X009510Y021218D01*
X009510Y021119D02*
X009630Y021119D01*
X009630Y021021D02*
X009510Y021021D01*
X009510Y020922D02*
X009630Y020922D01*
X009630Y020824D02*
X009510Y020824D01*
X009498Y020725D02*
X009642Y020725D01*
X009683Y020627D02*
X009457Y020627D01*
X009378Y020528D02*
X009762Y020528D01*
X009916Y020430D02*
X009224Y020430D01*
X008916Y020430D02*
X006224Y020430D01*
X006265Y020528D02*
X008762Y020528D01*
X008683Y020627D02*
X006270Y020627D01*
X006270Y020725D02*
X008642Y020725D01*
X008630Y020824D02*
X006270Y020824D01*
X006270Y020922D02*
X008630Y020922D01*
X008630Y021021D02*
X006270Y021021D01*
X006270Y021119D02*
X008630Y021119D01*
X008630Y021218D02*
X006270Y021218D01*
X006265Y021316D02*
X008630Y021316D01*
X008630Y021415D02*
X006224Y021415D01*
X006149Y021513D02*
X008630Y021513D01*
X008853Y020331D02*
X006149Y020331D01*
X005991Y020233D02*
X008754Y020233D01*
X008656Y020134D02*
X003344Y020134D01*
X003443Y020036D02*
X008557Y020036D01*
X008459Y019937D02*
X003541Y019937D01*
X003640Y019839D02*
X003739Y019839D01*
X003778Y020212D02*
X003942Y020212D01*
X004092Y020275D01*
X004208Y020390D01*
X004270Y020541D01*
X004270Y021304D01*
X004208Y021455D01*
X004092Y021570D01*
X003942Y021632D01*
X003846Y021632D01*
X003660Y021819D01*
X003645Y021833D01*
X003768Y021782D01*
X003932Y021782D01*
X004082Y021845D01*
X004198Y021960D01*
X004260Y022111D01*
X004260Y022874D01*
X004198Y023025D01*
X004082Y023140D01*
X003932Y023202D01*
X003768Y023202D01*
X003618Y023140D01*
X003502Y023025D01*
X003440Y022874D01*
X003440Y022111D01*
X003502Y021960D01*
X003550Y021912D01*
X001953Y021912D01*
X001907Y022024D01*
X001772Y022159D01*
X001595Y022232D01*
X001405Y022232D01*
X001228Y022159D01*
X001093Y022024D01*
X001020Y021848D01*
X001020Y021657D01*
X001093Y021480D01*
X001228Y021345D01*
X001405Y021272D01*
X001595Y021272D01*
X001772Y021345D01*
X001907Y021480D01*
X001953Y021592D01*
X003434Y021592D01*
X003542Y021484D01*
X003512Y021455D01*
X003450Y021304D01*
X003450Y020541D01*
X003512Y020390D01*
X003628Y020275D01*
X003778Y020212D01*
X003729Y020233D02*
X003246Y020233D01*
X003147Y020331D02*
X003571Y020331D01*
X003496Y020430D02*
X003049Y020430D01*
X002950Y020528D02*
X003455Y020528D01*
X003450Y020627D02*
X002852Y020627D01*
X002753Y020725D02*
X003450Y020725D01*
X003450Y020824D02*
X002655Y020824D01*
X002500Y020752D02*
X001500Y020752D01*
X001144Y020430D02*
X000644Y020430D01*
X000644Y020528D02*
X001073Y020528D01*
X001032Y020627D02*
X000644Y020627D01*
X000644Y020725D02*
X001020Y020725D01*
X001020Y020824D02*
X000644Y020824D01*
X000643Y020922D02*
X001051Y020922D01*
X001092Y021021D02*
X000643Y021021D01*
X000643Y021119D02*
X001188Y021119D01*
X001370Y021218D02*
X000643Y021218D01*
X000643Y021316D02*
X001298Y021316D01*
X001159Y021415D02*
X000643Y021415D01*
X000643Y021513D02*
X001079Y021513D01*
X001039Y021612D02*
X000643Y021612D01*
X000643Y021710D02*
X001020Y021710D01*
X001020Y021809D02*
X000643Y021809D01*
X000643Y021907D02*
X001045Y021907D01*
X001085Y022006D02*
X000643Y022006D01*
X000643Y022104D02*
X001173Y022104D01*
X001333Y022203D02*
X000643Y022203D01*
X000643Y022301D02*
X001334Y022301D01*
X001405Y022272D02*
X001228Y022345D01*
X001093Y022480D01*
X001020Y022657D01*
X001020Y022848D01*
X001093Y023024D01*
X001228Y023159D01*
X001405Y023232D01*
X001595Y023232D01*
X001772Y023159D01*
X001907Y023024D01*
X001980Y022848D01*
X001980Y022657D01*
X001907Y022480D01*
X001772Y022345D01*
X001595Y022272D01*
X001405Y022272D01*
X001666Y022301D02*
X003440Y022301D01*
X003440Y022203D02*
X001667Y022203D01*
X001827Y022104D02*
X003443Y022104D01*
X003483Y022006D02*
X001915Y022006D01*
X001826Y022400D02*
X003440Y022400D01*
X003440Y022498D02*
X001914Y022498D01*
X001955Y022597D02*
X003440Y022597D01*
X003440Y022695D02*
X001980Y022695D01*
X001980Y022794D02*
X003440Y022794D01*
X003448Y022892D02*
X001962Y022892D01*
X001921Y022991D02*
X003488Y022991D01*
X003567Y023089D02*
X001842Y023089D01*
X001703Y023188D02*
X003734Y023188D01*
X003718Y023392D02*
X003882Y023392D01*
X004032Y023455D01*
X004148Y023570D01*
X004210Y023721D01*
X004210Y024484D01*
X004148Y024635D01*
X004032Y024750D01*
X003882Y024812D01*
X003718Y024812D01*
X003568Y024750D01*
X003452Y024635D01*
X003390Y024484D01*
X003390Y023721D01*
X003452Y023570D01*
X003568Y023455D01*
X003718Y023392D01*
X003539Y023483D02*
X001908Y023483D01*
X001907Y023480D02*
X001980Y023657D01*
X001980Y023848D01*
X001907Y024024D01*
X001772Y024159D01*
X001595Y024232D01*
X001405Y024232D01*
X001228Y024159D01*
X001093Y024024D01*
X001020Y023848D01*
X001020Y023657D01*
X001093Y023480D01*
X001228Y023345D01*
X001405Y023272D01*
X001595Y023272D01*
X001772Y023345D01*
X001907Y023480D01*
X001949Y023582D02*
X003448Y023582D01*
X003407Y023680D02*
X001980Y023680D01*
X001980Y023779D02*
X003390Y023779D01*
X003390Y023877D02*
X001968Y023877D01*
X001927Y023976D02*
X003390Y023976D01*
X003390Y024074D02*
X001857Y024074D01*
X001739Y024173D02*
X003390Y024173D01*
X003390Y024271D02*
X000642Y024271D01*
X000642Y024173D02*
X001261Y024173D01*
X001143Y024074D02*
X000642Y024074D01*
X000642Y023976D02*
X001073Y023976D01*
X001032Y023877D02*
X000642Y023877D01*
X000642Y023779D02*
X001020Y023779D01*
X001020Y023680D02*
X000642Y023680D01*
X000642Y023582D02*
X001051Y023582D01*
X001092Y023483D02*
X000642Y023483D01*
X000642Y023385D02*
X001189Y023385D01*
X001371Y023286D02*
X000642Y023286D01*
X000642Y023188D02*
X001297Y023188D01*
X001158Y023089D02*
X000642Y023089D01*
X000643Y022991D02*
X001079Y022991D01*
X001038Y022892D02*
X000643Y022892D01*
X000643Y022794D02*
X001020Y022794D01*
X001020Y022695D02*
X000643Y022695D01*
X000643Y022597D02*
X001045Y022597D01*
X001086Y022498D02*
X000643Y022498D01*
X000643Y022400D02*
X001174Y022400D01*
X001500Y021752D02*
X003500Y021752D01*
X004000Y021252D01*
X003860Y020922D01*
X004224Y020430D02*
X004496Y020430D01*
X004455Y020528D02*
X004265Y020528D01*
X004270Y020627D02*
X004450Y020627D01*
X004450Y020725D02*
X004270Y020725D01*
X004270Y020824D02*
X004450Y020824D01*
X004450Y020922D02*
X004270Y020922D01*
X004270Y021021D02*
X004450Y021021D01*
X004450Y021119D02*
X004270Y021119D01*
X004270Y021218D02*
X004450Y021218D01*
X004455Y021316D02*
X004265Y021316D01*
X004224Y021415D02*
X004496Y021415D01*
X004571Y021513D02*
X004149Y021513D01*
X003991Y021612D02*
X004729Y021612D01*
X004768Y021782D02*
X004932Y021782D01*
X005082Y021845D01*
X005198Y021960D01*
X005260Y022111D01*
X005260Y022874D01*
X005198Y023025D01*
X005082Y023140D01*
X004932Y023202D01*
X004768Y023202D01*
X004618Y023140D01*
X004502Y023025D01*
X004440Y022874D01*
X004440Y022111D01*
X004502Y021960D01*
X004618Y021845D01*
X004768Y021782D01*
X004704Y021809D02*
X003996Y021809D01*
X004145Y021907D02*
X004555Y021907D01*
X004483Y022006D02*
X004217Y022006D01*
X004257Y022104D02*
X004443Y022104D01*
X004440Y022203D02*
X004260Y022203D01*
X004260Y022301D02*
X004440Y022301D01*
X004440Y022400D02*
X004260Y022400D01*
X004260Y022498D02*
X004440Y022498D01*
X004440Y022597D02*
X004260Y022597D01*
X004260Y022695D02*
X004440Y022695D01*
X004440Y022794D02*
X004260Y022794D01*
X004252Y022892D02*
X004448Y022892D01*
X004488Y022991D02*
X004212Y022991D01*
X004133Y023089D02*
X004567Y023089D01*
X004734Y023188D02*
X003966Y023188D01*
X004061Y023483D02*
X004539Y023483D01*
X004568Y023455D02*
X004718Y023392D01*
X004882Y023392D01*
X005032Y023455D01*
X005148Y023570D01*
X005210Y023721D01*
X005210Y024484D01*
X005148Y024635D01*
X005032Y024750D01*
X004882Y024812D01*
X004718Y024812D01*
X004568Y024750D01*
X004452Y024635D01*
X004390Y024484D01*
X004390Y023721D01*
X004452Y023570D01*
X004568Y023455D01*
X004448Y023582D02*
X004152Y023582D01*
X004193Y023680D02*
X004407Y023680D01*
X004390Y023779D02*
X004210Y023779D01*
X004210Y023877D02*
X004390Y023877D01*
X004390Y023976D02*
X004210Y023976D01*
X004210Y024074D02*
X004390Y024074D01*
X004390Y024173D02*
X004210Y024173D01*
X004210Y024271D02*
X004390Y024271D01*
X004390Y024370D02*
X004210Y024370D01*
X004210Y024468D02*
X004390Y024468D01*
X004424Y024567D02*
X004176Y024567D01*
X004117Y024665D02*
X004483Y024665D01*
X004602Y024764D02*
X003998Y024764D01*
X003941Y024961D02*
X004639Y024961D01*
X004708Y024932D02*
X004558Y024995D01*
X004442Y025110D01*
X004380Y025261D01*
X004380Y026024D01*
X004442Y026175D01*
X004558Y026290D01*
X004708Y026352D01*
X004872Y026352D01*
X005022Y026290D01*
X005138Y026175D01*
X005200Y026024D01*
X005200Y025261D01*
X005138Y025110D01*
X005022Y024995D01*
X004872Y024932D01*
X004708Y024932D01*
X004941Y024961D02*
X005639Y024961D01*
X005708Y024932D02*
X005872Y024932D01*
X006022Y024995D01*
X006138Y025110D01*
X006200Y025261D01*
X006200Y026024D01*
X006138Y026175D01*
X006022Y026290D01*
X005872Y026352D01*
X005708Y026352D01*
X005558Y026290D01*
X005442Y026175D01*
X005380Y026024D01*
X005380Y025261D01*
X005442Y025110D01*
X005558Y024995D01*
X005708Y024932D01*
X005718Y024812D02*
X005568Y024750D01*
X005452Y024635D01*
X005390Y024484D01*
X005390Y023721D01*
X005452Y023570D01*
X005568Y023455D01*
X005718Y023392D01*
X005882Y023392D01*
X006032Y023455D01*
X006148Y023570D01*
X006210Y023721D01*
X006210Y024484D01*
X006148Y024635D01*
X006032Y024750D01*
X005882Y024812D01*
X005718Y024812D01*
X005602Y024764D02*
X004998Y024764D01*
X005117Y024665D02*
X005483Y024665D01*
X005424Y024567D02*
X005176Y024567D01*
X005210Y024468D02*
X005390Y024468D01*
X005390Y024370D02*
X005210Y024370D01*
X005210Y024271D02*
X005390Y024271D01*
X005390Y024173D02*
X005210Y024173D01*
X005210Y024074D02*
X005390Y024074D01*
X005390Y023976D02*
X005210Y023976D01*
X005210Y023877D02*
X005390Y023877D01*
X005390Y023779D02*
X005210Y023779D01*
X005193Y023680D02*
X005407Y023680D01*
X005448Y023582D02*
X005152Y023582D01*
X005061Y023483D02*
X005539Y023483D01*
X005734Y023188D02*
X004966Y023188D01*
X005133Y023089D02*
X005567Y023089D01*
X005488Y022991D02*
X005212Y022991D01*
X005252Y022892D02*
X005448Y022892D01*
X005440Y022794D02*
X005260Y022794D01*
X005260Y022695D02*
X005440Y022695D01*
X005440Y022597D02*
X005260Y022597D01*
X005260Y022498D02*
X005440Y022498D01*
X005440Y022400D02*
X005260Y022400D01*
X005260Y022301D02*
X005440Y022301D01*
X005440Y022203D02*
X005260Y022203D01*
X005257Y022104D02*
X005443Y022104D01*
X005483Y022006D02*
X005217Y022006D01*
X005145Y021907D02*
X005555Y021907D01*
X005400Y021692D02*
X004860Y021152D01*
X004991Y021612D02*
X005093Y021612D01*
X005192Y021710D02*
X003768Y021710D01*
X003704Y021809D02*
X003670Y021809D01*
X003513Y021513D02*
X001921Y021513D01*
X001841Y021415D02*
X003496Y021415D01*
X003455Y021316D02*
X001702Y021316D01*
X001630Y021218D02*
X003450Y021218D01*
X003450Y021119D02*
X001812Y021119D01*
X001908Y021021D02*
X003450Y021021D01*
X003450Y020922D02*
X001949Y020922D01*
X001927Y020528D02*
X002498Y020528D01*
X002596Y020430D02*
X001856Y020430D01*
X001738Y020331D02*
X002695Y020331D01*
X002793Y020233D02*
X000644Y020233D01*
X000644Y020331D02*
X001262Y020331D01*
X000644Y020134D02*
X002892Y020134D01*
X002990Y020036D02*
X000644Y020036D01*
X000644Y019937D02*
X003089Y019937D01*
X003187Y019839D02*
X000644Y019839D01*
X001160Y018592D02*
X001161Y018592D01*
X001160Y018591D01*
X001160Y018592D01*
X001373Y016785D02*
X000645Y016785D01*
X000645Y016687D02*
X001295Y016687D01*
X001157Y016588D02*
X000646Y016588D01*
X000646Y016490D02*
X001079Y016490D01*
X001038Y016391D02*
X000646Y016391D01*
X000646Y016293D02*
X001020Y016293D01*
X001020Y016194D02*
X000646Y016194D01*
X000646Y016096D02*
X001045Y016096D01*
X001086Y015997D02*
X000646Y015997D01*
X000646Y015899D02*
X001175Y015899D01*
X001950Y014421D02*
X003443Y014421D01*
X004500Y015252D02*
X005500Y015252D01*
X005500Y014252D01*
X005740Y014252D01*
X005692Y015406D02*
X006268Y015406D01*
X006158Y015505D02*
X005802Y015505D01*
X005858Y015603D02*
X006102Y015603D01*
X006070Y015702D02*
X005890Y015702D01*
X005890Y015800D02*
X006070Y015800D01*
X006070Y015899D02*
X005890Y015899D01*
X005890Y015997D02*
X006070Y015997D01*
X006070Y016096D02*
X005890Y016096D01*
X005890Y016194D02*
X006070Y016194D01*
X006070Y016293D02*
X005890Y016293D01*
X005890Y016391D02*
X006070Y016391D01*
X006089Y016490D02*
X005871Y016490D01*
X005830Y016588D02*
X006130Y016588D01*
X006225Y016687D02*
X005735Y016687D01*
X005658Y017081D02*
X006142Y017081D01*
X006049Y017179D02*
X005751Y017179D01*
X005792Y017278D02*
X006008Y017278D01*
X005990Y017376D02*
X005810Y017376D01*
X005810Y017475D02*
X005990Y017475D01*
X005990Y017573D02*
X005810Y017573D01*
X005810Y017672D02*
X005990Y017672D01*
X005990Y017770D02*
X005810Y017770D01*
X005810Y017869D02*
X005990Y017869D01*
X005990Y017967D02*
X005810Y017967D01*
X005810Y018066D02*
X005990Y018066D01*
X006206Y018558D02*
X007080Y018558D01*
X006981Y018460D02*
X004019Y018460D01*
X004117Y018361D02*
X004195Y018361D01*
X004206Y018558D02*
X004694Y018558D01*
X004600Y018657D02*
X004300Y018657D01*
X004341Y018755D02*
X004559Y018755D01*
X004540Y018854D02*
X004360Y018854D01*
X004360Y018952D02*
X004540Y018952D01*
X004540Y019051D02*
X004360Y019051D01*
X004360Y019149D02*
X004540Y019149D01*
X004540Y019248D02*
X004360Y019248D01*
X004360Y019346D02*
X004540Y019346D01*
X004540Y019445D02*
X004360Y019445D01*
X004360Y019543D02*
X004540Y019543D01*
X004572Y019642D02*
X004328Y019642D01*
X004272Y019740D02*
X004628Y019740D01*
X004739Y019839D02*
X004161Y019839D01*
X003991Y020233D02*
X004729Y020233D01*
X004571Y020331D02*
X004149Y020331D01*
X004000Y019252D02*
X003950Y019182D01*
X004000Y019252D02*
X002500Y020752D01*
X003500Y018752D02*
X004500Y017752D01*
X004400Y017702D01*
X004810Y017672D02*
X004990Y017672D01*
X004990Y017770D02*
X004810Y017770D01*
X004810Y017869D02*
X004990Y017869D01*
X004990Y017967D02*
X004810Y017967D01*
X004810Y018066D02*
X004990Y018066D01*
X005023Y018164D02*
X004777Y018164D01*
X004719Y018263D02*
X005081Y018263D01*
X005195Y018361D02*
X004605Y018361D01*
X004810Y017573D02*
X004990Y017573D01*
X004990Y017475D02*
X004810Y017475D01*
X004810Y017376D02*
X004990Y017376D01*
X005008Y017278D02*
X004792Y017278D01*
X004751Y017179D02*
X005049Y017179D01*
X005142Y017081D02*
X004658Y017081D01*
X004735Y016687D02*
X005225Y016687D01*
X005130Y016588D02*
X004830Y016588D01*
X004871Y016490D02*
X005089Y016490D01*
X005070Y016391D02*
X004890Y016391D01*
X004890Y016293D02*
X005070Y016293D01*
X005070Y016194D02*
X004890Y016194D01*
X004890Y016096D02*
X005070Y016096D01*
X005070Y015997D02*
X004890Y015997D01*
X004890Y015899D02*
X005070Y015899D01*
X005070Y015800D02*
X004890Y015800D01*
X004890Y015702D02*
X005070Y015702D01*
X005102Y015603D02*
X004858Y015603D01*
X004802Y015505D02*
X005158Y015505D01*
X004500Y015752D02*
X004480Y016062D01*
X006605Y018361D02*
X006883Y018361D01*
X006784Y018263D02*
X006719Y018263D01*
X006300Y018657D02*
X007178Y018657D01*
X007277Y018755D02*
X006341Y018755D01*
X006360Y018854D02*
X007375Y018854D01*
X007474Y018952D02*
X006360Y018952D01*
X006360Y019051D02*
X007572Y019051D01*
X007671Y019149D02*
X006360Y019149D01*
X006360Y019248D02*
X007769Y019248D01*
X007868Y019346D02*
X006360Y019346D01*
X006360Y019445D02*
X007966Y019445D01*
X008065Y019543D02*
X006360Y019543D01*
X006328Y019642D02*
X008163Y019642D01*
X008262Y019740D02*
X006272Y019740D01*
X006161Y019839D02*
X008360Y019839D01*
X010224Y020430D02*
X010916Y020430D01*
X010762Y020528D02*
X010378Y020528D01*
X010457Y020627D02*
X010683Y020627D01*
X010642Y020725D02*
X010498Y020725D01*
X010510Y020824D02*
X010630Y020824D01*
X010630Y020922D02*
X010510Y020922D01*
X010510Y021021D02*
X010630Y021021D01*
X010630Y021119D02*
X010510Y021119D01*
X010510Y021218D02*
X010630Y021218D01*
X010630Y021316D02*
X010510Y021316D01*
X010510Y021415D02*
X010630Y021415D01*
X010630Y021513D02*
X010510Y021513D01*
X010501Y021612D02*
X010639Y021612D01*
X010680Y021710D02*
X010460Y021710D01*
X010386Y021809D02*
X010754Y021809D01*
X010898Y021907D02*
X010242Y021907D01*
X010294Y022892D02*
X010615Y022892D01*
X010615Y022991D02*
X010394Y022991D01*
X010449Y023089D02*
X010615Y023089D01*
X010615Y023188D02*
X010485Y023188D01*
X010485Y023286D02*
X010615Y023286D01*
X010615Y023385D02*
X010470Y023385D01*
X010429Y023483D02*
X010615Y023483D01*
X010615Y023582D02*
X010346Y023582D01*
X009806Y022892D02*
X006252Y022892D01*
X006212Y022991D02*
X009706Y022991D01*
X009651Y023089D02*
X006133Y023089D01*
X005966Y023188D02*
X009615Y023188D01*
X009615Y023286D02*
X001629Y023286D01*
X001811Y023385D02*
X009630Y023385D01*
X009671Y023483D02*
X006061Y023483D01*
X006152Y023582D02*
X009754Y023582D01*
X009160Y023976D02*
X016550Y023976D01*
X016452Y024074D02*
X009160Y024074D01*
X009160Y024173D02*
X016353Y024173D01*
X016255Y024271D02*
X009160Y024271D01*
X009160Y024370D02*
X016156Y024370D01*
X016058Y024468D02*
X009160Y024468D01*
X009160Y024567D02*
X015959Y024567D01*
X015861Y024665D02*
X009160Y024665D01*
X009160Y024764D02*
X015762Y024764D01*
X015664Y024862D02*
X009160Y024862D01*
X009160Y024961D02*
X009852Y024961D01*
X009858Y024955D02*
X010008Y024892D01*
X010172Y024892D01*
X010322Y024955D01*
X010438Y025070D01*
X010500Y025221D01*
X010500Y025984D01*
X010438Y026135D01*
X010322Y026250D01*
X010172Y026312D01*
X010008Y026312D01*
X009858Y026250D01*
X009742Y026135D01*
X009680Y025984D01*
X009680Y025221D01*
X009742Y025070D01*
X009858Y024955D01*
X009753Y025059D02*
X009160Y025059D01*
X009160Y025158D02*
X009706Y025158D01*
X009680Y025256D02*
X009160Y025256D01*
X009160Y025355D02*
X009680Y025355D01*
X009680Y025453D02*
X009160Y025453D01*
X009160Y025552D02*
X009680Y025552D01*
X009680Y025650D02*
X009160Y025650D01*
X009160Y025749D02*
X009680Y025749D01*
X009680Y025847D02*
X009160Y025847D01*
X009160Y025946D02*
X009680Y025946D01*
X009705Y026044D02*
X009160Y026044D01*
X009160Y026143D02*
X009751Y026143D01*
X009849Y026241D02*
X009160Y026241D01*
X009160Y026340D02*
X014186Y026340D01*
X014088Y026438D02*
X009160Y026438D01*
X009261Y026537D02*
X013989Y026537D01*
X014000Y026752D02*
X018000Y022752D01*
X020500Y022752D01*
X020842Y023089D02*
X021365Y023089D01*
X021365Y022991D02*
X020921Y022991D01*
X020962Y022892D02*
X021365Y022892D01*
X021365Y022794D02*
X020980Y022794D01*
X020980Y022695D02*
X021364Y022695D01*
X021364Y022597D02*
X020955Y022597D01*
X020914Y022498D02*
X021364Y022498D01*
X021364Y022400D02*
X020826Y022400D01*
X020666Y022301D02*
X021364Y022301D01*
X021364Y022203D02*
X016276Y022203D01*
X016374Y022104D02*
X021364Y022104D01*
X021364Y022006D02*
X016473Y022006D01*
X016571Y021907D02*
X021364Y021907D01*
X021364Y021809D02*
X016670Y021809D01*
X016768Y021710D02*
X021364Y021710D01*
X021363Y021612D02*
X016867Y021612D01*
X016965Y021513D02*
X021363Y021513D01*
X021363Y021415D02*
X017064Y021415D01*
X016808Y021218D02*
X011510Y021218D01*
X011510Y021316D02*
X016710Y021316D01*
X016907Y021119D02*
X011510Y021119D01*
X011510Y021021D02*
X017005Y021021D01*
X017104Y020922D02*
X011510Y020922D01*
X011510Y020824D02*
X017202Y020824D01*
X017301Y020725D02*
X011498Y020725D01*
X011457Y020627D02*
X017399Y020627D01*
X017498Y020528D02*
X011378Y020528D01*
X011224Y020430D02*
X017596Y020430D01*
X018000Y020252D02*
X014500Y023752D01*
X009000Y023752D01*
X009000Y026752D01*
X008820Y026922D01*
X009103Y027423D02*
X006200Y027423D01*
X006200Y027444D02*
X006138Y027595D01*
X006022Y027710D01*
X005872Y027772D01*
X005708Y027772D01*
X005558Y027710D01*
X005442Y027595D01*
X005380Y027444D01*
X005380Y026681D01*
X005442Y026530D01*
X005558Y026415D01*
X005708Y026352D01*
X005872Y026352D01*
X006022Y026415D01*
X006138Y026530D01*
X006200Y026681D01*
X006200Y027444D01*
X006168Y027522D02*
X008415Y027522D01*
X008421Y027325D02*
X006200Y027325D01*
X006200Y027226D02*
X008244Y027226D01*
X008161Y027128D02*
X006200Y027128D01*
X006200Y027029D02*
X008121Y027029D01*
X008110Y026931D02*
X006200Y026931D01*
X006200Y026832D02*
X008113Y026832D01*
X008154Y026734D02*
X006200Y026734D01*
X006181Y026635D02*
X008227Y026635D01*
X008379Y026537D02*
X006140Y026537D01*
X006046Y026438D02*
X008840Y026438D01*
X008840Y026340D02*
X005902Y026340D01*
X006071Y026241D02*
X008840Y026241D01*
X008840Y026143D02*
X006151Y026143D01*
X006192Y026044D02*
X008840Y026044D01*
X008840Y025946D02*
X006200Y025946D01*
X006200Y025847D02*
X008840Y025847D01*
X008840Y025749D02*
X006200Y025749D01*
X006200Y025650D02*
X008840Y025650D01*
X008840Y025552D02*
X006200Y025552D01*
X006200Y025453D02*
X008840Y025453D01*
X008840Y025355D02*
X006200Y025355D01*
X006198Y025256D02*
X008840Y025256D01*
X008840Y025158D02*
X006157Y025158D01*
X006087Y025059D02*
X008840Y025059D01*
X008840Y024961D02*
X005941Y024961D01*
X005998Y024764D02*
X008840Y024764D01*
X008840Y024862D02*
X003336Y024862D01*
X003238Y024764D02*
X003602Y024764D01*
X003483Y024665D02*
X003139Y024665D01*
X003160Y024686D02*
X003513Y025039D01*
X003558Y024995D01*
X003708Y024932D01*
X003872Y024932D01*
X004022Y024995D01*
X004138Y025110D01*
X004200Y025261D01*
X004200Y026024D01*
X004138Y026175D01*
X004022Y026290D01*
X003872Y026352D01*
X003708Y026352D01*
X003558Y026290D01*
X003442Y026175D01*
X003380Y026024D01*
X003380Y025359D01*
X003379Y025357D01*
X002934Y024912D01*
X001953Y024912D01*
X001907Y025024D01*
X001772Y025159D01*
X001595Y025232D01*
X001405Y025232D01*
X001228Y025159D01*
X001093Y025024D01*
X001020Y024848D01*
X001020Y024657D01*
X001093Y024480D01*
X001228Y024345D01*
X001405Y024272D01*
X001595Y024272D01*
X001772Y024345D01*
X001907Y024480D01*
X001953Y024592D01*
X003066Y024592D01*
X003160Y024686D01*
X003000Y024752D02*
X001500Y024752D01*
X001128Y025059D02*
X000642Y025059D01*
X000642Y024961D02*
X001067Y024961D01*
X001026Y024862D02*
X000642Y024862D01*
X000642Y024764D02*
X001020Y024764D01*
X001020Y024665D02*
X000642Y024665D01*
X000642Y024567D02*
X001057Y024567D01*
X001105Y024468D02*
X000642Y024468D01*
X000642Y024370D02*
X001204Y024370D01*
X001796Y024370D02*
X003390Y024370D01*
X003390Y024468D02*
X001895Y024468D01*
X001943Y024567D02*
X003424Y024567D01*
X003435Y024961D02*
X003639Y024961D01*
X003500Y025252D02*
X003790Y025642D01*
X004200Y025650D02*
X004380Y025650D01*
X004380Y025552D02*
X004200Y025552D01*
X004200Y025453D02*
X004380Y025453D01*
X004380Y025355D02*
X004200Y025355D01*
X004198Y025256D02*
X004382Y025256D01*
X004423Y025158D02*
X004157Y025158D01*
X004087Y025059D02*
X004493Y025059D01*
X005087Y025059D02*
X005493Y025059D01*
X005423Y025158D02*
X005157Y025158D01*
X005198Y025256D02*
X005382Y025256D01*
X005380Y025355D02*
X005200Y025355D01*
X005200Y025453D02*
X005380Y025453D01*
X005380Y025552D02*
X005200Y025552D01*
X005200Y025650D02*
X005380Y025650D01*
X005380Y025749D02*
X005200Y025749D01*
X005200Y025847D02*
X005380Y025847D01*
X005380Y025946D02*
X005200Y025946D01*
X005192Y026044D02*
X005388Y026044D01*
X005429Y026143D02*
X005151Y026143D01*
X005071Y026241D02*
X005509Y026241D01*
X005678Y026340D02*
X004902Y026340D01*
X004872Y026352D02*
X005022Y026415D01*
X005138Y026530D01*
X005200Y026681D01*
X005200Y027444D01*
X005138Y027595D01*
X005022Y027710D01*
X004872Y027772D01*
X004708Y027772D01*
X004558Y027710D01*
X004442Y027595D01*
X004380Y027444D01*
X004380Y026681D01*
X004442Y026530D01*
X004558Y026415D01*
X004708Y026352D01*
X004872Y026352D01*
X004678Y026340D02*
X003902Y026340D01*
X003872Y026352D02*
X004022Y026415D01*
X004138Y026530D01*
X004200Y026681D01*
X004200Y027444D01*
X004138Y027595D01*
X004022Y027710D01*
X003872Y027772D01*
X003708Y027772D01*
X003558Y027710D01*
X003442Y027595D01*
X003380Y027444D01*
X003380Y026859D01*
X002434Y025912D01*
X001953Y025912D01*
X001907Y026024D01*
X001772Y026159D01*
X001595Y026232D01*
X001405Y026232D01*
X001228Y026159D01*
X001093Y026024D01*
X001020Y025848D01*
X001020Y025657D01*
X001093Y025480D01*
X001228Y025345D01*
X001405Y025272D01*
X001595Y025272D01*
X001772Y025345D01*
X001907Y025480D01*
X001953Y025592D01*
X002566Y025592D01*
X002660Y025686D01*
X003473Y026499D01*
X003558Y026415D01*
X003708Y026352D01*
X003872Y026352D01*
X003678Y026340D02*
X003314Y026340D01*
X003412Y026438D02*
X003534Y026438D01*
X003509Y026241D02*
X003215Y026241D01*
X003117Y026143D02*
X003429Y026143D01*
X003388Y026044D02*
X003018Y026044D01*
X002920Y025946D02*
X003380Y025946D01*
X003380Y025847D02*
X002821Y025847D01*
X002723Y025749D02*
X003380Y025749D01*
X003380Y025650D02*
X002624Y025650D01*
X002500Y025752D02*
X001500Y025752D01*
X001120Y025453D02*
X000641Y025453D01*
X000641Y025355D02*
X001219Y025355D01*
X001227Y025158D02*
X000641Y025158D01*
X000641Y025256D02*
X003278Y025256D01*
X003179Y025158D02*
X001773Y025158D01*
X001872Y025059D02*
X003081Y025059D01*
X002982Y024961D02*
X001933Y024961D01*
X001781Y025355D02*
X003376Y025355D01*
X003380Y025453D02*
X001880Y025453D01*
X001937Y025552D02*
X003380Y025552D01*
X003500Y025252D02*
X003000Y024752D01*
X002500Y025752D02*
X003500Y026752D01*
X003790Y027062D01*
X004200Y027029D02*
X004380Y027029D01*
X004380Y026931D02*
X004200Y026931D01*
X004200Y026832D02*
X004380Y026832D01*
X004380Y026734D02*
X004200Y026734D01*
X004181Y026635D02*
X004399Y026635D01*
X004440Y026537D02*
X004140Y026537D01*
X004046Y026438D02*
X004534Y026438D01*
X004509Y026241D02*
X004071Y026241D01*
X004151Y026143D02*
X004429Y026143D01*
X004388Y026044D02*
X004192Y026044D01*
X004200Y025946D02*
X004380Y025946D01*
X004380Y025847D02*
X004200Y025847D01*
X004200Y025749D02*
X004380Y025749D01*
X005046Y026438D02*
X005534Y026438D01*
X005440Y026537D02*
X005140Y026537D01*
X005181Y026635D02*
X005399Y026635D01*
X005380Y026734D02*
X005200Y026734D01*
X005200Y026832D02*
X005380Y026832D01*
X005380Y026931D02*
X005200Y026931D01*
X005200Y027029D02*
X005380Y027029D01*
X005380Y027128D02*
X005200Y027128D01*
X005200Y027226D02*
X005380Y027226D01*
X005380Y027325D02*
X005200Y027325D01*
X005200Y027423D02*
X005380Y027423D01*
X005412Y027522D02*
X005168Y027522D01*
X005112Y027620D02*
X005468Y027620D01*
X005579Y027719D02*
X005001Y027719D01*
X004579Y027719D02*
X004001Y027719D01*
X004112Y027620D02*
X004468Y027620D01*
X004412Y027522D02*
X004168Y027522D01*
X004200Y027423D02*
X004380Y027423D01*
X004380Y027325D02*
X004200Y027325D01*
X004200Y027226D02*
X004380Y027226D01*
X004380Y027128D02*
X004200Y027128D01*
X003579Y027719D02*
X001980Y027719D01*
X001980Y027657D02*
X001907Y027480D01*
X001772Y027345D01*
X001595Y027272D01*
X001405Y027272D01*
X001228Y027345D01*
X001093Y027480D01*
X001020Y027657D01*
X001020Y027848D01*
X001093Y028024D01*
X001228Y028159D01*
X001405Y028232D01*
X001595Y028232D01*
X001772Y028159D01*
X001907Y028024D01*
X001980Y027848D01*
X001980Y027657D01*
X001965Y027620D02*
X003468Y027620D01*
X003412Y027522D02*
X001924Y027522D01*
X001850Y027423D02*
X003380Y027423D01*
X003380Y027325D02*
X001722Y027325D01*
X001610Y027226D02*
X003380Y027226D01*
X003380Y027128D02*
X001803Y027128D01*
X001772Y027159D02*
X001907Y027024D01*
X001980Y026848D01*
X001980Y026657D01*
X001907Y026480D01*
X001772Y026345D01*
X001595Y026272D01*
X001405Y026272D01*
X001228Y026345D01*
X001093Y026480D01*
X001020Y026657D01*
X001020Y026848D01*
X001093Y027024D01*
X001228Y027159D01*
X001405Y027232D01*
X001595Y027232D01*
X001772Y027159D01*
X001902Y027029D02*
X003380Y027029D01*
X003380Y026931D02*
X001946Y026931D01*
X001980Y026832D02*
X003354Y026832D01*
X003255Y026734D02*
X001980Y026734D01*
X001971Y026635D02*
X003157Y026635D01*
X003058Y026537D02*
X001930Y026537D01*
X001865Y026438D02*
X002960Y026438D01*
X002861Y026340D02*
X001759Y026340D01*
X001788Y026143D02*
X002664Y026143D01*
X002566Y026044D02*
X001887Y026044D01*
X001939Y025946D02*
X002467Y025946D01*
X002763Y026241D02*
X000641Y026241D01*
X000641Y026143D02*
X001212Y026143D01*
X001113Y026044D02*
X000641Y026044D01*
X000641Y025946D02*
X001061Y025946D01*
X001020Y025847D02*
X000641Y025847D01*
X000641Y025749D02*
X001020Y025749D01*
X001023Y025650D02*
X000641Y025650D01*
X000641Y025552D02*
X001063Y025552D01*
X001241Y026340D02*
X000641Y026340D01*
X000641Y026438D02*
X001135Y026438D01*
X001070Y026537D02*
X000641Y026537D01*
X000641Y026635D02*
X001029Y026635D01*
X001020Y026734D02*
X000641Y026734D01*
X000641Y026832D02*
X001020Y026832D01*
X001054Y026931D02*
X000641Y026931D01*
X000641Y027029D02*
X001098Y027029D01*
X001197Y027128D02*
X000641Y027128D01*
X000640Y027226D02*
X001390Y027226D01*
X001278Y027325D02*
X000640Y027325D01*
X000640Y027423D02*
X001150Y027423D01*
X001076Y027522D02*
X000640Y027522D01*
X000640Y027620D02*
X001035Y027620D01*
X001020Y027719D02*
X000640Y027719D01*
X000640Y027817D02*
X001020Y027817D01*
X001048Y027916D02*
X000640Y027916D01*
X000640Y028014D02*
X001089Y028014D01*
X001182Y028113D02*
X000640Y028113D01*
X000666Y028211D02*
X001354Y028211D01*
X001646Y028211D02*
X008229Y028211D01*
X008155Y028113D02*
X001818Y028113D01*
X001911Y028014D02*
X008114Y028014D01*
X008110Y027916D02*
X001952Y027916D01*
X001980Y027817D02*
X008120Y027817D01*
X008160Y027719D02*
X006001Y027719D01*
X006112Y027620D02*
X008242Y027620D01*
X008820Y027922D02*
X009000Y027752D01*
X010000Y026752D01*
X014000Y026752D01*
X014146Y026832D02*
X014194Y026832D01*
X014245Y026734D02*
X014292Y026734D01*
X014343Y026635D02*
X014391Y026635D01*
X014442Y026537D02*
X014489Y026537D01*
X014540Y026438D02*
X014588Y026438D01*
X014639Y026340D02*
X014686Y026340D01*
X014737Y026241D02*
X014785Y026241D01*
X014836Y026143D02*
X014883Y026143D01*
X014934Y026044D02*
X014982Y026044D01*
X015033Y025946D02*
X015080Y025946D01*
X015131Y025847D02*
X015179Y025847D01*
X015230Y025749D02*
X015277Y025749D01*
X015328Y025650D02*
X015376Y025650D01*
X015427Y025552D02*
X015474Y025552D01*
X015525Y025453D02*
X015573Y025453D01*
X015624Y025355D02*
X015671Y025355D01*
X015722Y025256D02*
X015770Y025256D01*
X015821Y025158D02*
X015868Y025158D01*
X015919Y025059D02*
X015967Y025059D01*
X016018Y024961D02*
X016065Y024961D01*
X016116Y024862D02*
X016164Y024862D01*
X016215Y024764D02*
X016262Y024764D01*
X016313Y024665D02*
X016361Y024665D01*
X016412Y024567D02*
X016459Y024567D01*
X016510Y024468D02*
X016558Y024468D01*
X016609Y024370D02*
X016656Y024370D01*
X016707Y024271D02*
X016755Y024271D01*
X016806Y024173D02*
X016853Y024173D01*
X016904Y024074D02*
X016952Y024074D01*
X017003Y023976D02*
X017050Y023976D01*
X017101Y023877D02*
X017149Y023877D01*
X017200Y023779D02*
X017247Y023779D01*
X017298Y023680D02*
X017346Y023680D01*
X017340Y023686D02*
X017434Y023592D01*
X020047Y023592D01*
X020093Y023480D01*
X020228Y023345D01*
X020405Y023272D01*
X020595Y023272D01*
X020772Y023345D01*
X020907Y023480D01*
X020980Y023657D01*
X020980Y023848D01*
X020907Y024024D01*
X020772Y024159D01*
X020595Y024232D01*
X020405Y024232D01*
X020228Y024159D01*
X020093Y024024D01*
X020047Y023912D01*
X017566Y023912D01*
X013903Y027576D01*
X013910Y027583D01*
X013910Y027922D01*
X013670Y028162D01*
X013330Y028162D01*
X013090Y027922D01*
X013090Y027583D01*
X013330Y027342D01*
X013670Y027342D01*
X013677Y027349D01*
X017340Y023686D01*
X017397Y023582D02*
X020051Y023582D01*
X020092Y023483D02*
X017495Y023483D01*
X017594Y023385D02*
X020189Y023385D01*
X020371Y023286D02*
X017692Y023286D01*
X017791Y023188D02*
X020297Y023188D01*
X020158Y023089D02*
X017889Y023089D01*
X017988Y022991D02*
X020079Y022991D01*
X020086Y022498D02*
X015980Y022498D01*
X016079Y022400D02*
X020174Y022400D01*
X020334Y022301D02*
X016177Y022301D01*
X015882Y022597D02*
X017929Y022597D01*
X017831Y022695D02*
X015783Y022695D01*
X015685Y022794D02*
X017732Y022794D01*
X017634Y022892D02*
X015586Y022892D01*
X015488Y022991D02*
X017535Y022991D01*
X017437Y023089D02*
X015389Y023089D01*
X015291Y023188D02*
X017338Y023188D01*
X017240Y023286D02*
X015192Y023286D01*
X015094Y023385D02*
X017141Y023385D01*
X017043Y023483D02*
X014995Y023483D01*
X014897Y023582D02*
X016944Y023582D01*
X016846Y023680D02*
X014798Y023680D01*
X014700Y023779D02*
X016747Y023779D01*
X016649Y023877D02*
X014601Y023877D01*
X014660Y023819D02*
X014660Y023819D01*
X015565Y024961D02*
X011328Y024961D01*
X011322Y024955D02*
X011438Y025070D01*
X011500Y025221D01*
X011500Y025984D01*
X011438Y026135D01*
X011322Y026250D01*
X011172Y026312D01*
X011008Y026312D01*
X010858Y026250D01*
X010742Y026135D01*
X010680Y025984D01*
X010680Y025221D01*
X010742Y025070D01*
X010858Y024955D01*
X011008Y024892D01*
X011172Y024892D01*
X011322Y024955D01*
X011427Y025059D02*
X015467Y025059D01*
X015368Y025158D02*
X011474Y025158D01*
X011500Y025256D02*
X015270Y025256D01*
X015171Y025355D02*
X011500Y025355D01*
X011500Y025453D02*
X015073Y025453D01*
X014974Y025552D02*
X011500Y025552D01*
X011500Y025650D02*
X014876Y025650D01*
X014777Y025749D02*
X011500Y025749D01*
X011500Y025847D02*
X014679Y025847D01*
X014580Y025946D02*
X011500Y025946D01*
X011475Y026044D02*
X014482Y026044D01*
X014383Y026143D02*
X011429Y026143D01*
X011331Y026241D02*
X014285Y026241D01*
X014745Y026734D02*
X020020Y026734D01*
X020020Y026657D02*
X020093Y026480D01*
X020228Y026345D01*
X020405Y026272D01*
X020595Y026272D01*
X020772Y026345D01*
X020907Y026480D01*
X020980Y026657D01*
X020980Y026848D01*
X020907Y027024D01*
X020772Y027159D01*
X020595Y027232D01*
X020405Y027232D01*
X020228Y027159D01*
X020093Y027024D01*
X020020Y026848D01*
X020020Y026657D01*
X020029Y026635D02*
X014843Y026635D01*
X014942Y026537D02*
X020070Y026537D01*
X020135Y026438D02*
X015040Y026438D01*
X015139Y026340D02*
X020241Y026340D01*
X020228Y026159D02*
X020093Y026024D01*
X020020Y025848D01*
X020020Y025657D01*
X020093Y025480D01*
X020228Y025345D01*
X020405Y025272D01*
X020595Y025272D01*
X020772Y025345D01*
X020907Y025480D01*
X020980Y025657D01*
X020980Y025848D01*
X020907Y026024D01*
X020772Y026159D01*
X020595Y026232D01*
X020405Y026232D01*
X020228Y026159D01*
X020212Y026143D02*
X015336Y026143D01*
X015434Y026044D02*
X020113Y026044D01*
X020061Y025946D02*
X015533Y025946D01*
X015631Y025847D02*
X020020Y025847D01*
X020020Y025749D02*
X015730Y025749D01*
X015828Y025650D02*
X020023Y025650D01*
X020063Y025552D02*
X015927Y025552D01*
X016025Y025453D02*
X020120Y025453D01*
X020219Y025355D02*
X016124Y025355D01*
X016222Y025256D02*
X021367Y025256D01*
X021367Y025158D02*
X020773Y025158D01*
X020772Y025159D02*
X020595Y025232D01*
X020405Y025232D01*
X020228Y025159D01*
X020093Y025024D01*
X020020Y024848D01*
X020020Y024657D01*
X020093Y024480D01*
X020228Y024345D01*
X020405Y024272D01*
X020595Y024272D01*
X020772Y024345D01*
X020907Y024480D01*
X020980Y024657D01*
X020980Y024848D01*
X020907Y025024D01*
X020772Y025159D01*
X020872Y025059D02*
X021367Y025059D01*
X021367Y024961D02*
X020933Y024961D01*
X020974Y024862D02*
X021366Y024862D01*
X021366Y024764D02*
X020980Y024764D01*
X020980Y024665D02*
X021366Y024665D01*
X021366Y024567D02*
X020943Y024567D01*
X020895Y024468D02*
X021366Y024468D01*
X021366Y024370D02*
X020796Y024370D01*
X020739Y024173D02*
X021366Y024173D01*
X021366Y024271D02*
X017207Y024271D01*
X017306Y024173D02*
X020261Y024173D01*
X020143Y024074D02*
X017404Y024074D01*
X017503Y023976D02*
X020073Y023976D01*
X020204Y024370D02*
X017109Y024370D01*
X017010Y024468D02*
X020105Y024468D01*
X020057Y024567D02*
X016912Y024567D01*
X016813Y024665D02*
X020020Y024665D01*
X020020Y024764D02*
X016715Y024764D01*
X016616Y024862D02*
X020026Y024862D01*
X020067Y024961D02*
X016518Y024961D01*
X016419Y025059D02*
X020128Y025059D01*
X020227Y025158D02*
X016321Y025158D01*
X015237Y026241D02*
X021368Y026241D01*
X021368Y026143D02*
X020788Y026143D01*
X020887Y026044D02*
X021368Y026044D01*
X021367Y025946D02*
X020939Y025946D01*
X020980Y025847D02*
X021367Y025847D01*
X021367Y025749D02*
X020980Y025749D01*
X020977Y025650D02*
X021367Y025650D01*
X021367Y025552D02*
X020937Y025552D01*
X020880Y025453D02*
X021367Y025453D01*
X021367Y025355D02*
X020781Y025355D01*
X021667Y025355D02*
X022120Y025355D01*
X022120Y025453D02*
X021667Y025453D01*
X021667Y025552D02*
X022120Y025552D01*
X022120Y025650D02*
X021667Y025650D01*
X021667Y025749D02*
X022120Y025749D01*
X022120Y025847D02*
X021667Y025847D01*
X021667Y025946D02*
X022120Y025946D01*
X022120Y026044D02*
X021668Y026044D01*
X021668Y026143D02*
X022120Y026143D01*
X022120Y026241D02*
X021668Y026241D01*
X021668Y026340D02*
X022120Y026340D01*
X022120Y026438D02*
X021668Y026438D01*
X021668Y026537D02*
X022120Y026537D01*
X022120Y026635D02*
X021668Y026635D01*
X021668Y026734D02*
X022120Y026734D01*
X022120Y026832D02*
X021668Y026832D01*
X021668Y026931D02*
X022120Y026931D01*
X022120Y027029D02*
X021668Y027029D01*
X021669Y027128D02*
X022120Y027128D01*
X022120Y027226D02*
X021669Y027226D01*
X021669Y027325D02*
X022120Y027325D01*
X022120Y027423D02*
X021669Y027423D01*
X021669Y027522D02*
X022120Y027522D01*
X022120Y027620D02*
X021669Y027620D01*
X021669Y027719D02*
X022120Y027719D01*
X022120Y027817D02*
X021669Y027817D01*
X021669Y027916D02*
X022120Y027916D01*
X022120Y028014D02*
X021669Y028014D01*
X021669Y028113D02*
X022120Y028113D01*
X022120Y028211D02*
X021670Y028211D01*
X021670Y028310D02*
X022120Y028310D01*
X022120Y028408D02*
X021670Y028408D01*
X021670Y028507D02*
X022120Y028507D01*
X022120Y028605D02*
X021670Y028605D01*
X021670Y028686D02*
X021670Y028686D01*
X021650Y007252D01*
X021650Y007190D01*
X021650Y007190D01*
X021606Y007147D01*
X020652Y006192D01*
X022120Y006192D01*
X022120Y029682D01*
X019782Y029682D01*
X020566Y028898D01*
X021458Y028898D01*
X021458Y028898D01*
X021520Y028898D01*
X021582Y028898D01*
X021582Y028898D01*
X021582Y028898D01*
X021626Y028855D01*
X021670Y028811D01*
X021670Y028810D01*
X021670Y028810D01*
X021670Y028749D01*
X021670Y028686D01*
X021670Y028704D02*
X022120Y028704D01*
X022120Y028802D02*
X021670Y028802D01*
X021370Y028507D02*
X019273Y028507D01*
X019282Y028549D02*
X019300Y028593D01*
X019300Y028635D01*
X019325Y028752D01*
X019300Y028870D01*
X019300Y028911D01*
X019282Y028955D01*
X019254Y029088D01*
X019191Y029174D01*
X019178Y029206D01*
X019142Y029242D01*
X019052Y029365D01*
X018972Y029412D01*
X018953Y029431D01*
X018904Y029451D01*
X018755Y029537D01*
X018676Y029545D01*
X018659Y029552D01*
X018609Y029552D01*
X018414Y029573D01*
X018351Y029552D01*
X018341Y029552D01*
X018305Y029537D01*
X018088Y029467D01*
X018088Y029467D01*
X018048Y029431D01*
X018047Y029431D01*
X018043Y029427D01*
X017833Y029237D01*
X017693Y028924D01*
X017693Y028581D01*
X017833Y028267D01*
X018043Y028078D01*
X018047Y028074D01*
X018048Y028074D01*
X018088Y028038D01*
X018305Y027967D01*
X018341Y027952D01*
X018351Y027952D01*
X018414Y027932D01*
X018609Y027952D01*
X018659Y027952D01*
X018676Y027959D01*
X018755Y027968D01*
X018904Y028054D01*
X018953Y028074D01*
X018972Y028093D01*
X019052Y028139D01*
X019052Y028139D01*
X019052Y028139D01*
X019142Y028263D01*
X019178Y028299D01*
X019191Y028331D01*
X019254Y028417D01*
X019282Y028549D01*
X019300Y028605D02*
X020435Y028605D01*
X020336Y028704D02*
X019315Y028704D01*
X019325Y028752D02*
X019325Y028752D01*
X019314Y028802D02*
X020238Y028802D01*
X020139Y028901D02*
X019300Y028901D01*
X019272Y028999D02*
X020041Y028999D01*
X019942Y029098D02*
X019246Y029098D01*
X019254Y029088D02*
X019254Y029088D01*
X019182Y029196D02*
X019844Y029196D01*
X019745Y029295D02*
X019103Y029295D01*
X019052Y029365D02*
X019052Y029365D01*
X019004Y029393D02*
X019647Y029393D01*
X019548Y029492D02*
X018833Y029492D01*
X018414Y029573D02*
X018414Y029573D01*
X018165Y029492D02*
X006452Y029492D01*
X006550Y029590D02*
X019450Y029590D01*
X019874Y029590D02*
X022120Y029590D01*
X022120Y029492D02*
X019973Y029492D01*
X020071Y029393D02*
X022120Y029393D01*
X022120Y029295D02*
X020170Y029295D01*
X020268Y029196D02*
X022120Y029196D01*
X022120Y029098D02*
X020367Y029098D01*
X020465Y028999D02*
X022120Y028999D01*
X022120Y028901D02*
X020564Y028901D01*
X020595Y028232D02*
X020405Y028232D01*
X020228Y028159D01*
X020093Y028024D01*
X020020Y027848D01*
X020020Y027657D01*
X020093Y027480D01*
X020228Y027345D01*
X020405Y027272D01*
X020595Y027272D01*
X020772Y027345D01*
X020907Y027480D01*
X020980Y027657D01*
X020980Y027848D01*
X020907Y028024D01*
X020772Y028159D01*
X020595Y028232D01*
X020646Y028211D02*
X021370Y028211D01*
X021369Y028113D02*
X020818Y028113D01*
X020911Y028014D02*
X021369Y028014D01*
X021369Y027916D02*
X020952Y027916D01*
X020980Y027817D02*
X021369Y027817D01*
X021369Y027719D02*
X020980Y027719D01*
X020965Y027620D02*
X021369Y027620D01*
X021369Y027522D02*
X020924Y027522D01*
X020850Y027423D02*
X021369Y027423D01*
X021369Y027325D02*
X020722Y027325D01*
X020610Y027226D02*
X021369Y027226D01*
X021369Y027128D02*
X020803Y027128D01*
X020902Y027029D02*
X021368Y027029D01*
X021368Y026931D02*
X020946Y026931D01*
X020980Y026832D02*
X021368Y026832D01*
X021368Y026734D02*
X020980Y026734D01*
X020971Y026635D02*
X021368Y026635D01*
X021368Y026537D02*
X020930Y026537D01*
X020865Y026438D02*
X021368Y026438D01*
X021368Y026340D02*
X020759Y026340D01*
X020054Y026931D02*
X014548Y026931D01*
X014646Y026832D02*
X020020Y026832D01*
X020098Y027029D02*
X014449Y027029D01*
X014351Y027128D02*
X020197Y027128D01*
X020278Y027325D02*
X014154Y027325D01*
X014252Y027226D02*
X020390Y027226D01*
X020150Y027423D02*
X014055Y027423D01*
X013957Y027522D02*
X020076Y027522D01*
X020035Y027620D02*
X013910Y027620D01*
X013910Y027719D02*
X020020Y027719D01*
X020020Y027817D02*
X013910Y027817D01*
X013910Y027916D02*
X020048Y027916D01*
X020089Y028014D02*
X018836Y028014D01*
X018755Y027968D02*
X018755Y027968D01*
X019006Y028113D02*
X020182Y028113D01*
X020354Y028211D02*
X019104Y028211D01*
X019183Y028310D02*
X021370Y028310D01*
X021370Y028408D02*
X019248Y028408D01*
X019254Y028417D02*
X019254Y028417D01*
X018414Y027932D02*
X018414Y027932D01*
X018160Y028014D02*
X013818Y028014D01*
X013719Y028113D02*
X018004Y028113D01*
X018088Y028038D02*
X018088Y028038D01*
X017895Y028211D02*
X009411Y028211D01*
X009485Y028113D02*
X013281Y028113D01*
X013182Y028014D02*
X009526Y028014D01*
X009530Y027916D02*
X013090Y027916D01*
X013090Y027817D02*
X009520Y027817D01*
X009480Y027719D02*
X013090Y027719D01*
X013090Y027620D02*
X009398Y027620D01*
X009457Y027522D02*
X013151Y027522D01*
X013249Y027423D02*
X009555Y027423D01*
X009654Y027325D02*
X013701Y027325D01*
X013800Y027226D02*
X009752Y027226D01*
X009851Y027128D02*
X013898Y027128D01*
X013997Y027029D02*
X009949Y027029D01*
X010048Y026931D02*
X014095Y026931D01*
X013500Y027752D02*
X017500Y023752D01*
X020500Y023752D01*
X020857Y024074D02*
X021366Y024074D01*
X021366Y023976D02*
X020927Y023976D01*
X020968Y023877D02*
X021366Y023877D01*
X021365Y023779D02*
X020980Y023779D01*
X020980Y023680D02*
X021365Y023680D01*
X021365Y023582D02*
X020949Y023582D01*
X020908Y023483D02*
X021365Y023483D01*
X021365Y023385D02*
X020811Y023385D01*
X020629Y023286D02*
X021365Y023286D01*
X021365Y023188D02*
X020703Y023188D01*
X021665Y023188D02*
X022120Y023188D01*
X022120Y023286D02*
X021665Y023286D01*
X021665Y023385D02*
X022120Y023385D01*
X022120Y023483D02*
X021665Y023483D01*
X021665Y023582D02*
X022120Y023582D01*
X022120Y023680D02*
X021665Y023680D01*
X021665Y023779D02*
X022120Y023779D01*
X022120Y023877D02*
X021666Y023877D01*
X021666Y023976D02*
X022120Y023976D01*
X022120Y024074D02*
X021666Y024074D01*
X021666Y024173D02*
X022120Y024173D01*
X022120Y024271D02*
X021666Y024271D01*
X021666Y024370D02*
X022120Y024370D01*
X022120Y024468D02*
X021666Y024468D01*
X021666Y024567D02*
X022120Y024567D01*
X022120Y024665D02*
X021666Y024665D01*
X021666Y024764D02*
X022120Y024764D01*
X022120Y024862D02*
X021666Y024862D01*
X021667Y024961D02*
X022120Y024961D01*
X022120Y025059D02*
X021667Y025059D01*
X021667Y025158D02*
X022120Y025158D01*
X022120Y025256D02*
X021667Y025256D01*
X021665Y023089D02*
X022120Y023089D01*
X022120Y022991D02*
X021665Y022991D01*
X021665Y022892D02*
X022120Y022892D01*
X022120Y022794D02*
X021665Y022794D01*
X021664Y022695D02*
X022120Y022695D01*
X022120Y022597D02*
X021664Y022597D01*
X021664Y022498D02*
X022120Y022498D01*
X022120Y022400D02*
X021664Y022400D01*
X021664Y022301D02*
X022120Y022301D01*
X022120Y022203D02*
X021664Y022203D01*
X021664Y022104D02*
X022120Y022104D01*
X022120Y022006D02*
X021664Y022006D01*
X021664Y021907D02*
X022120Y021907D01*
X022120Y021809D02*
X021664Y021809D01*
X021664Y021710D02*
X022120Y021710D01*
X022120Y021612D02*
X021663Y021612D01*
X021663Y021513D02*
X022120Y021513D01*
X022120Y021415D02*
X021663Y021415D01*
X021663Y021316D02*
X022120Y021316D01*
X022120Y021218D02*
X021663Y021218D01*
X021663Y021119D02*
X022120Y021119D01*
X022120Y021021D02*
X021663Y021021D01*
X021663Y020922D02*
X022120Y020922D01*
X022120Y020824D02*
X021663Y020824D01*
X021663Y020725D02*
X022120Y020725D01*
X022120Y020627D02*
X021662Y020627D01*
X021662Y020528D02*
X022120Y020528D01*
X022120Y020430D02*
X021662Y020430D01*
X021662Y020331D02*
X022120Y020331D01*
X022120Y020233D02*
X021662Y020233D01*
X021662Y020134D02*
X022120Y020134D01*
X022120Y020036D02*
X021662Y020036D01*
X021662Y019937D02*
X022120Y019937D01*
X022120Y019839D02*
X021662Y019839D01*
X021662Y019740D02*
X022120Y019740D01*
X022120Y019642D02*
X021662Y019642D01*
X021661Y019543D02*
X022120Y019543D01*
X022120Y019445D02*
X021661Y019445D01*
X021661Y019346D02*
X022120Y019346D01*
X022120Y019248D02*
X021661Y019248D01*
X021661Y019149D02*
X022120Y019149D01*
X022120Y019051D02*
X021661Y019051D01*
X021661Y018952D02*
X022120Y018952D01*
X022120Y018854D02*
X021661Y018854D01*
X021661Y018755D02*
X022120Y018755D01*
X022120Y018657D02*
X021661Y018657D01*
X021661Y018558D02*
X022120Y018558D01*
X022120Y018460D02*
X021660Y018460D01*
X021660Y018361D02*
X022120Y018361D01*
X022120Y018263D02*
X021660Y018263D01*
X021660Y018164D02*
X022120Y018164D01*
X022120Y018066D02*
X021660Y018066D01*
X021660Y017967D02*
X022120Y017967D01*
X022120Y017869D02*
X021660Y017869D01*
X021660Y017770D02*
X022120Y017770D01*
X022120Y017672D02*
X021660Y017672D01*
X021660Y017573D02*
X022120Y017573D01*
X022120Y017475D02*
X021660Y017475D01*
X021659Y017376D02*
X022120Y017376D01*
X022120Y017278D02*
X021659Y017278D01*
X021659Y017179D02*
X022120Y017179D01*
X022120Y017081D02*
X021659Y017081D01*
X021659Y016982D02*
X022120Y016982D01*
X022120Y016884D02*
X021659Y016884D01*
X021659Y016785D02*
X022120Y016785D01*
X022120Y016687D02*
X021659Y016687D01*
X021659Y016588D02*
X022120Y016588D01*
X022120Y016490D02*
X021659Y016490D01*
X021659Y016391D02*
X022120Y016391D01*
X022120Y016293D02*
X021658Y016293D01*
X021658Y016194D02*
X022120Y016194D01*
X022120Y016096D02*
X021658Y016096D01*
X021658Y015997D02*
X022120Y015997D01*
X022120Y015899D02*
X021658Y015899D01*
X021658Y015800D02*
X022120Y015800D01*
X022120Y015702D02*
X021658Y015702D01*
X021658Y015603D02*
X022120Y015603D01*
X022120Y015505D02*
X021658Y015505D01*
X021658Y015406D02*
X022120Y015406D01*
X022120Y015308D02*
X021658Y015308D01*
X021657Y015209D02*
X022120Y015209D01*
X022120Y015111D02*
X021657Y015111D01*
X021657Y015012D02*
X022120Y015012D01*
X022120Y014914D02*
X021657Y014914D01*
X021657Y014815D02*
X022120Y014815D01*
X022120Y014717D02*
X021657Y014717D01*
X021657Y014618D02*
X022120Y014618D01*
X022120Y014520D02*
X021657Y014520D01*
X021657Y014421D02*
X022120Y014421D01*
X022120Y014323D02*
X021657Y014323D01*
X021657Y014224D02*
X022120Y014224D01*
X022120Y014126D02*
X021656Y014126D01*
X021656Y014027D02*
X022120Y014027D01*
X022120Y013929D02*
X021656Y013929D01*
X021656Y013830D02*
X022120Y013830D01*
X022120Y013732D02*
X021656Y013732D01*
X021656Y013633D02*
X022120Y013633D01*
X022120Y013535D02*
X021656Y013535D01*
X021656Y013436D02*
X022120Y013436D01*
X022120Y013338D02*
X021656Y013338D01*
X021656Y013239D02*
X022120Y013239D01*
X022120Y013141D02*
X021655Y013141D01*
X021655Y013042D02*
X022120Y013042D01*
X022120Y012944D02*
X021655Y012944D01*
X021655Y012845D02*
X022120Y012845D01*
X022120Y012747D02*
X021655Y012747D01*
X021655Y012648D02*
X022120Y012648D01*
X022120Y012550D02*
X021655Y012550D01*
X021655Y012451D02*
X022120Y012451D01*
X022120Y012353D02*
X021655Y012353D01*
X021655Y012254D02*
X022120Y012254D01*
X022120Y012156D02*
X021655Y012156D01*
X021654Y012057D02*
X022120Y012057D01*
X022120Y011959D02*
X021654Y011959D01*
X021654Y011860D02*
X022120Y011860D01*
X022120Y011762D02*
X021654Y011762D01*
X021654Y011663D02*
X022120Y011663D01*
X022120Y011565D02*
X021654Y011565D01*
X021654Y011466D02*
X022120Y011466D01*
X022120Y011368D02*
X021654Y011368D01*
X021654Y011269D02*
X022120Y011269D01*
X022120Y011171D02*
X021654Y011171D01*
X021654Y011072D02*
X022120Y011072D01*
X022120Y010974D02*
X021653Y010974D01*
X021653Y010875D02*
X022120Y010875D01*
X022120Y010777D02*
X021653Y010777D01*
X021653Y010678D02*
X022120Y010678D01*
X022120Y010580D02*
X021653Y010580D01*
X021653Y010481D02*
X022120Y010481D01*
X022120Y010383D02*
X021653Y010383D01*
X021653Y010284D02*
X022120Y010284D01*
X022120Y010186D02*
X021653Y010186D01*
X021653Y010087D02*
X022120Y010087D01*
X022120Y009989D02*
X021653Y009989D01*
X021652Y009890D02*
X022120Y009890D01*
X022120Y009792D02*
X021652Y009792D01*
X021652Y009693D02*
X022120Y009693D01*
X022120Y009595D02*
X021652Y009595D01*
X021652Y009496D02*
X022120Y009496D01*
X022120Y009398D02*
X021652Y009398D01*
X021652Y009299D02*
X022120Y009299D01*
X022120Y009201D02*
X021652Y009201D01*
X021652Y009102D02*
X022120Y009102D01*
X022120Y009004D02*
X021652Y009004D01*
X021652Y008905D02*
X022120Y008905D01*
X022120Y008807D02*
X021651Y008807D01*
X021651Y008708D02*
X022120Y008708D01*
X022120Y008610D02*
X021651Y008610D01*
X021651Y008511D02*
X022120Y008511D01*
X022120Y008413D02*
X021651Y008413D01*
X021651Y008314D02*
X022120Y008314D01*
X022120Y008216D02*
X021651Y008216D01*
X021651Y008117D02*
X022120Y008117D01*
X022120Y008019D02*
X021651Y008019D01*
X021651Y007920D02*
X022120Y007920D01*
X022120Y007822D02*
X021651Y007822D01*
X021650Y007723D02*
X022120Y007723D01*
X022120Y007625D02*
X021650Y007625D01*
X021650Y007526D02*
X022120Y007526D01*
X022120Y007428D02*
X021650Y007428D01*
X021650Y007329D02*
X022120Y007329D01*
X022120Y007231D02*
X021650Y007231D01*
X021650Y007190D02*
X021650Y007190D01*
X021592Y007132D02*
X022120Y007132D01*
X022120Y007034D02*
X021494Y007034D01*
X021395Y006935D02*
X022120Y006935D01*
X022120Y006837D02*
X021297Y006837D01*
X021198Y006738D02*
X022120Y006738D01*
X022120Y006640D02*
X021100Y006640D01*
X021001Y006541D02*
X022120Y006541D01*
X022120Y006443D02*
X020903Y006443D01*
X020804Y006344D02*
X022120Y006344D01*
X022120Y006246D02*
X020706Y006246D01*
X020681Y015308D02*
X021358Y015308D01*
X021358Y015406D02*
X020833Y015406D01*
X020917Y015505D02*
X021358Y015505D01*
X021358Y015603D02*
X020958Y015603D01*
X020980Y015702D02*
X021358Y015702D01*
X021358Y015800D02*
X020980Y015800D01*
X020959Y015899D02*
X021358Y015899D01*
X021358Y015997D02*
X020918Y015997D01*
X020835Y016096D02*
X021358Y016096D01*
X021358Y016194D02*
X020687Y016194D01*
X020182Y016391D02*
X006890Y016391D01*
X006871Y016490D02*
X020089Y016490D01*
X020048Y016588D02*
X006830Y016588D01*
X006735Y016687D02*
X020020Y016687D01*
X020500Y017752D02*
X018000Y020252D01*
X020782Y019149D02*
X021361Y019149D01*
X021361Y019051D02*
X020880Y019051D01*
X020937Y018952D02*
X021361Y018952D01*
X021361Y018854D02*
X020977Y018854D01*
X017833Y028267D02*
X017833Y028267D01*
X017814Y028310D02*
X009256Y028310D01*
X009202Y028512D02*
X009352Y028575D01*
X009468Y028690D01*
X009530Y028841D01*
X009530Y029004D01*
X009468Y029155D01*
X009352Y029270D01*
X009202Y029332D01*
X008438Y029332D01*
X008288Y029270D01*
X008172Y029155D01*
X008110Y029004D01*
X008110Y028841D01*
X008172Y028690D01*
X008288Y028575D01*
X008438Y028512D01*
X009202Y028512D01*
X009383Y028605D02*
X017693Y028605D01*
X017693Y028704D02*
X009473Y028704D01*
X009514Y028802D02*
X017693Y028802D01*
X017693Y028901D02*
X009530Y028901D01*
X009530Y028999D02*
X017727Y028999D01*
X017771Y029098D02*
X009491Y029098D01*
X009426Y029196D02*
X017814Y029196D01*
X017833Y029237D02*
X017833Y029237D01*
X017897Y029295D02*
X009292Y029295D01*
X008348Y029295D02*
X006255Y029295D01*
X006353Y029393D02*
X018006Y029393D01*
X017726Y028507D02*
X000965Y028507D01*
X000865Y028408D02*
X017770Y028408D01*
X010849Y026241D02*
X010331Y026241D01*
X010429Y026143D02*
X010751Y026143D01*
X010705Y026044D02*
X010475Y026044D01*
X010500Y025946D02*
X010680Y025946D01*
X010680Y025847D02*
X010500Y025847D01*
X010500Y025749D02*
X010680Y025749D01*
X010680Y025650D02*
X010500Y025650D01*
X010500Y025552D02*
X010680Y025552D01*
X010680Y025453D02*
X010500Y025453D01*
X010500Y025355D02*
X010680Y025355D01*
X010680Y025256D02*
X010500Y025256D01*
X010474Y025158D02*
X010706Y025158D01*
X010753Y025059D02*
X010427Y025059D01*
X010328Y024961D02*
X010852Y024961D01*
X009891Y026635D02*
X009413Y026635D01*
X009486Y026734D02*
X009792Y026734D01*
X009694Y026832D02*
X009527Y026832D01*
X009530Y026931D02*
X009595Y026931D01*
X008384Y028310D02*
X000766Y028310D01*
X000550Y028519D02*
X000550Y029682D01*
X006218Y029682D01*
X005438Y028902D01*
X001000Y028902D01*
X000939Y028903D01*
X000938Y028902D01*
X000894Y028859D01*
X000550Y028519D01*
X000550Y028605D02*
X000638Y028605D01*
X000550Y028704D02*
X000738Y028704D01*
X000837Y028802D02*
X000550Y028802D01*
X000550Y028901D02*
X000936Y028901D01*
X000938Y028902D02*
X000938Y028902D01*
X000550Y028999D02*
X005535Y028999D01*
X005633Y029098D02*
X000550Y029098D01*
X000550Y029196D02*
X005732Y029196D01*
X005830Y029295D02*
X000550Y029295D01*
X000550Y029393D02*
X005929Y029393D01*
X006027Y029492D02*
X000550Y029492D01*
X000550Y029590D02*
X006126Y029590D01*
X006156Y029196D02*
X008214Y029196D01*
X008149Y029098D02*
X006058Y029098D01*
X005959Y028999D02*
X008110Y028999D01*
X008110Y028901D02*
X005861Y028901D01*
X005762Y028802D02*
X008126Y028802D01*
X008167Y028704D02*
X005664Y028704D01*
X005565Y028605D02*
X008257Y028605D01*
X008840Y024665D02*
X006117Y024665D01*
X006176Y024567D02*
X008840Y024567D01*
X008840Y024468D02*
X006210Y024468D01*
X006210Y024370D02*
X008840Y024370D01*
X008840Y024271D02*
X006210Y024271D01*
X006210Y024173D02*
X008840Y024173D01*
X008840Y024074D02*
X006210Y024074D01*
X006210Y023976D02*
X008840Y023976D01*
X008840Y023877D02*
X006210Y023877D01*
X006210Y023779D02*
X008840Y023779D01*
X008846Y023680D02*
X006193Y023680D01*
X006000Y022752D02*
X005850Y022492D01*
X005290Y021809D02*
X004996Y021809D01*
X001217Y012648D02*
X000647Y012648D01*
X000647Y012550D02*
X001119Y012550D01*
X001063Y012451D02*
X000648Y012451D01*
X000648Y012353D02*
X001022Y012353D01*
X001020Y012254D02*
X000648Y012254D01*
X000648Y012156D02*
X001020Y012156D01*
X001061Y012057D02*
X000648Y012057D01*
X000648Y011959D02*
X001115Y011959D01*
X001213Y011860D02*
X000648Y011860D01*
D18*
X007520Y010782D03*
X012970Y021792D03*
D19*
X004860Y021152D02*
X004860Y020922D01*
X009900Y009902D02*
X009890Y009892D01*
D20*
X001000Y014752D03*
M02*
