G75*
G70*
%OFA0B0*%
%FSLAX24Y24*%
%IPPOS*%
%LPD*%
%AMOC8*
5,1,8,0,0,1.08239X$1,22.5*
%
%ADD10C,0.0000*%
%ADD11C,0.0120*%
%ADD12C,0.0020*%
%ADD13C,0.0040*%
%ADD14C,0.0080*%
%ADD15C,0.0060*%
%ADD16C,0.0050*%
%ADD17C,0.0010*%
%ADD18C,0.0070*%
%ADD19R,0.0300X0.0250*%
%ADD20R,0.0500X0.1100*%
D10*
X000500Y007222D02*
X001500Y006252D01*
X020500Y006252D01*
X021500Y007252D01*
X021520Y028748D01*
X020504Y028748D01*
X019500Y029752D01*
X006500Y029752D01*
X005500Y028752D01*
X001000Y028752D01*
X000490Y028248D01*
X000500Y007222D01*
X000850Y008752D02*
X000852Y008802D01*
X000858Y008852D01*
X000868Y008902D01*
X000881Y008950D01*
X000898Y008998D01*
X000919Y009044D01*
X000943Y009088D01*
X000971Y009130D01*
X001002Y009170D01*
X001036Y009207D01*
X001073Y009242D01*
X001112Y009273D01*
X001153Y009302D01*
X001197Y009327D01*
X001243Y009349D01*
X001290Y009367D01*
X001338Y009381D01*
X001387Y009392D01*
X001437Y009399D01*
X001487Y009402D01*
X001538Y009401D01*
X001588Y009396D01*
X001638Y009387D01*
X001686Y009375D01*
X001734Y009358D01*
X001780Y009338D01*
X001825Y009315D01*
X001868Y009288D01*
X001908Y009258D01*
X001946Y009225D01*
X001981Y009189D01*
X002014Y009150D01*
X002043Y009109D01*
X002069Y009066D01*
X002092Y009021D01*
X002111Y008974D01*
X002126Y008926D01*
X002138Y008877D01*
X002146Y008827D01*
X002150Y008777D01*
X002150Y008727D01*
X002146Y008677D01*
X002138Y008627D01*
X002126Y008578D01*
X002111Y008530D01*
X002092Y008483D01*
X002069Y008438D01*
X002043Y008395D01*
X002014Y008354D01*
X001981Y008315D01*
X001946Y008279D01*
X001908Y008246D01*
X001868Y008216D01*
X001825Y008189D01*
X001780Y008166D01*
X001734Y008146D01*
X001686Y008129D01*
X001638Y008117D01*
X001588Y008108D01*
X001538Y008103D01*
X001487Y008102D01*
X001437Y008105D01*
X001387Y008112D01*
X001338Y008123D01*
X001290Y008137D01*
X001243Y008155D01*
X001197Y008177D01*
X001153Y008202D01*
X001112Y008231D01*
X001073Y008262D01*
X001036Y008297D01*
X001002Y008334D01*
X000971Y008374D01*
X000943Y008416D01*
X000919Y008460D01*
X000898Y008506D01*
X000881Y008554D01*
X000868Y008602D01*
X000858Y008652D01*
X000852Y008702D01*
X000850Y008752D01*
X009420Y015272D02*
X009422Y015322D01*
X009428Y015372D01*
X009438Y015422D01*
X009451Y015470D01*
X009468Y015518D01*
X009489Y015564D01*
X009513Y015608D01*
X009541Y015650D01*
X009572Y015690D01*
X009606Y015727D01*
X009643Y015762D01*
X009682Y015793D01*
X009723Y015822D01*
X009767Y015847D01*
X009813Y015869D01*
X009860Y015887D01*
X009908Y015901D01*
X009957Y015912D01*
X010007Y015919D01*
X010057Y015922D01*
X010108Y015921D01*
X010158Y015916D01*
X010208Y015907D01*
X010256Y015895D01*
X010304Y015878D01*
X010350Y015858D01*
X010395Y015835D01*
X010438Y015808D01*
X010478Y015778D01*
X010516Y015745D01*
X010551Y015709D01*
X010584Y015670D01*
X010613Y015629D01*
X010639Y015586D01*
X010662Y015541D01*
X010681Y015494D01*
X010696Y015446D01*
X010708Y015397D01*
X010716Y015347D01*
X010720Y015297D01*
X010720Y015247D01*
X010716Y015197D01*
X010708Y015147D01*
X010696Y015098D01*
X010681Y015050D01*
X010662Y015003D01*
X010639Y014958D01*
X010613Y014915D01*
X010584Y014874D01*
X010551Y014835D01*
X010516Y014799D01*
X010478Y014766D01*
X010438Y014736D01*
X010395Y014709D01*
X010350Y014686D01*
X010304Y014666D01*
X010256Y014649D01*
X010208Y014637D01*
X010158Y014628D01*
X010108Y014623D01*
X010057Y014622D01*
X010007Y014625D01*
X009957Y014632D01*
X009908Y014643D01*
X009860Y014657D01*
X009813Y014675D01*
X009767Y014697D01*
X009723Y014722D01*
X009682Y014751D01*
X009643Y014782D01*
X009606Y014817D01*
X009572Y014854D01*
X009541Y014894D01*
X009513Y014936D01*
X009489Y014980D01*
X009468Y015026D01*
X009451Y015074D01*
X009438Y015122D01*
X009428Y015172D01*
X009422Y015222D01*
X009420Y015272D01*
X017850Y028752D02*
X017852Y028802D01*
X017858Y028852D01*
X017868Y028902D01*
X017881Y028950D01*
X017898Y028998D01*
X017919Y029044D01*
X017943Y029088D01*
X017971Y029130D01*
X018002Y029170D01*
X018036Y029207D01*
X018073Y029242D01*
X018112Y029273D01*
X018153Y029302D01*
X018197Y029327D01*
X018243Y029349D01*
X018290Y029367D01*
X018338Y029381D01*
X018387Y029392D01*
X018437Y029399D01*
X018487Y029402D01*
X018538Y029401D01*
X018588Y029396D01*
X018638Y029387D01*
X018686Y029375D01*
X018734Y029358D01*
X018780Y029338D01*
X018825Y029315D01*
X018868Y029288D01*
X018908Y029258D01*
X018946Y029225D01*
X018981Y029189D01*
X019014Y029150D01*
X019043Y029109D01*
X019069Y029066D01*
X019092Y029021D01*
X019111Y028974D01*
X019126Y028926D01*
X019138Y028877D01*
X019146Y028827D01*
X019150Y028777D01*
X019150Y028727D01*
X019146Y028677D01*
X019138Y028627D01*
X019126Y028578D01*
X019111Y028530D01*
X019092Y028483D01*
X019069Y028438D01*
X019043Y028395D01*
X019014Y028354D01*
X018981Y028315D01*
X018946Y028279D01*
X018908Y028246D01*
X018868Y028216D01*
X018825Y028189D01*
X018780Y028166D01*
X018734Y028146D01*
X018686Y028129D01*
X018638Y028117D01*
X018588Y028108D01*
X018538Y028103D01*
X018487Y028102D01*
X018437Y028105D01*
X018387Y028112D01*
X018338Y028123D01*
X018290Y028137D01*
X018243Y028155D01*
X018197Y028177D01*
X018153Y028202D01*
X018112Y028231D01*
X018073Y028262D01*
X018036Y028297D01*
X018002Y028334D01*
X017971Y028374D01*
X017943Y028416D01*
X017919Y028460D01*
X017898Y028506D01*
X017881Y028554D01*
X017868Y028602D01*
X017858Y028652D01*
X017852Y028702D01*
X017850Y028752D01*
D11*
X016210Y017240D02*
X015750Y016779D01*
X015750Y017010D02*
X015750Y016319D01*
X016210Y016319D02*
X014829Y016319D01*
X014829Y017010D01*
X015059Y017240D01*
X015519Y017240D01*
X015750Y017010D01*
X016210Y015859D02*
X016210Y015398D01*
X016210Y015628D02*
X014829Y015628D01*
X014829Y015398D02*
X014829Y015859D01*
X015289Y014938D02*
X016210Y014938D01*
X015519Y014938D02*
X015519Y014017D01*
X015289Y014017D02*
X014829Y014477D01*
X015289Y014938D01*
X015289Y014017D02*
X016210Y014017D01*
X016210Y013557D02*
X015750Y013096D01*
X015750Y013326D02*
X015750Y012636D01*
X016210Y012636D02*
X014829Y012636D01*
X014829Y013326D01*
X015059Y013557D01*
X015519Y013557D01*
X015750Y013326D01*
X015519Y010794D02*
X015059Y010794D01*
X014829Y010564D01*
X014829Y009874D01*
X016210Y009874D01*
X015750Y009874D02*
X015750Y010564D01*
X015519Y010794D01*
X014829Y009413D02*
X016210Y009413D01*
X016210Y008492D02*
X014829Y008492D01*
X015289Y008953D01*
X014829Y009413D01*
X013060Y009413D02*
X013060Y008492D01*
X012139Y009413D01*
X011909Y009413D01*
X011679Y009183D01*
X011679Y008723D01*
X011909Y008492D01*
X011909Y009874D02*
X011679Y010104D01*
X011679Y010564D01*
X011909Y010794D01*
X012830Y009874D01*
X013060Y010104D01*
X013060Y010564D01*
X012830Y010794D01*
X011909Y010794D01*
X012139Y011255D02*
X011679Y011715D01*
X013060Y011715D01*
X013060Y011255D02*
X013060Y012176D01*
X012830Y012636D02*
X013060Y012866D01*
X013060Y013326D01*
X012830Y013557D01*
X012600Y013557D01*
X012369Y013326D01*
X012369Y013096D01*
X012369Y013326D02*
X012139Y013557D01*
X011909Y013557D01*
X011679Y013326D01*
X011679Y012866D01*
X011909Y012636D01*
X011909Y009874D02*
X012830Y009874D01*
D12*
X016521Y009542D02*
X016570Y009542D01*
X016667Y009542D02*
X016860Y009542D01*
X016860Y009494D02*
X016860Y009591D01*
X016715Y009684D02*
X016715Y009878D01*
X016763Y009970D02*
X016763Y010115D01*
X016715Y010163D01*
X016618Y010163D01*
X016570Y010115D01*
X016570Y009970D01*
X016860Y009970D01*
X016812Y010255D02*
X016667Y010255D01*
X016812Y010255D02*
X016860Y010303D01*
X016860Y010449D01*
X016667Y010449D01*
X016667Y010540D02*
X016860Y010540D01*
X016763Y010540D02*
X016667Y010637D01*
X016667Y010686D01*
X016667Y010778D02*
X016667Y010923D01*
X016715Y010972D01*
X016812Y010972D01*
X016860Y010923D01*
X016860Y010778D01*
X016957Y010778D02*
X016667Y010778D01*
X016715Y011064D02*
X016667Y011112D01*
X016667Y011209D01*
X016715Y011257D01*
X016812Y011257D01*
X016860Y011209D01*
X016860Y011112D01*
X016812Y011064D01*
X016715Y011064D01*
X016715Y011349D02*
X016667Y011398D01*
X016667Y011543D01*
X016715Y011635D02*
X016667Y011683D01*
X016667Y011780D01*
X016715Y011828D01*
X016763Y011828D01*
X016763Y011635D01*
X016715Y011635D02*
X016812Y011635D01*
X016860Y011683D01*
X016860Y011780D01*
X016812Y011543D02*
X016763Y011494D01*
X016763Y011398D01*
X016715Y011349D01*
X016860Y011349D02*
X016860Y011494D01*
X016812Y011543D01*
X016860Y012206D02*
X016570Y012206D01*
X016570Y012351D01*
X016618Y012399D01*
X016715Y012399D01*
X016763Y012351D01*
X016763Y012206D01*
X016763Y012302D02*
X016860Y012399D01*
X016812Y012491D02*
X016715Y012491D01*
X016667Y012539D01*
X016667Y012636D01*
X016715Y012684D01*
X016763Y012684D01*
X016763Y012491D01*
X016812Y012491D02*
X016860Y012539D01*
X016860Y012636D01*
X016860Y012776D02*
X016860Y012922D01*
X016812Y012970D01*
X016763Y012922D01*
X016763Y012825D01*
X016715Y012776D01*
X016667Y012825D01*
X016667Y012970D01*
X016715Y013062D02*
X016667Y013110D01*
X016667Y013255D01*
X016667Y013347D02*
X016812Y013347D01*
X016860Y013396D01*
X016860Y013541D01*
X016667Y013541D01*
X016715Y013633D02*
X016667Y013681D01*
X016667Y013778D01*
X016715Y013826D01*
X016763Y013826D01*
X016763Y013633D01*
X016715Y013633D02*
X016812Y013633D01*
X016860Y013681D01*
X016860Y013778D01*
X016812Y014204D02*
X016763Y014252D01*
X016763Y014397D01*
X016715Y014397D02*
X016860Y014397D01*
X016860Y014252D01*
X016812Y014204D01*
X016667Y014252D02*
X016667Y014349D01*
X016715Y014397D01*
X016667Y014489D02*
X016860Y014489D01*
X016667Y014489D02*
X016667Y014634D01*
X016715Y014683D01*
X016860Y014683D01*
X016812Y014775D02*
X016715Y014775D01*
X016667Y014823D01*
X016667Y014968D01*
X016570Y014968D02*
X016860Y014968D01*
X016860Y014823D01*
X016812Y014775D01*
X016860Y015345D02*
X016860Y015442D01*
X016860Y015394D02*
X016667Y015394D01*
X016667Y015345D01*
X016570Y015394D02*
X016521Y015394D01*
X016667Y015536D02*
X016667Y015681D01*
X016715Y015729D01*
X016860Y015729D01*
X016860Y015918D02*
X016667Y016015D01*
X016715Y016107D02*
X016667Y016155D01*
X016667Y016252D01*
X016715Y016300D01*
X016763Y016300D01*
X016763Y016107D01*
X016715Y016107D02*
X016812Y016107D01*
X016860Y016155D01*
X016860Y016252D01*
X016860Y016392D02*
X016860Y016537D01*
X016812Y016586D01*
X016763Y016537D01*
X016763Y016440D01*
X016715Y016392D01*
X016667Y016440D01*
X016667Y016586D01*
X016667Y016677D02*
X016667Y016774D01*
X016618Y016726D02*
X016812Y016726D01*
X016860Y016774D01*
X016860Y016868D02*
X016860Y016965D01*
X016860Y016916D02*
X016667Y016916D01*
X016667Y016868D01*
X016570Y016916D02*
X016521Y016916D01*
X016667Y017106D02*
X016715Y017058D01*
X016812Y017058D01*
X016860Y017106D01*
X016860Y017252D01*
X016908Y017252D02*
X016667Y017252D01*
X016667Y017106D01*
X016812Y017344D02*
X016763Y017392D01*
X016763Y017537D01*
X016715Y017537D02*
X016860Y017537D01*
X016860Y017392D01*
X016812Y017344D01*
X016908Y017252D02*
X016957Y017203D01*
X016957Y017155D01*
X016667Y017489D02*
X016715Y017537D01*
X016667Y017489D02*
X016667Y017392D01*
X016667Y017629D02*
X016667Y017726D01*
X016618Y017677D02*
X016812Y017677D01*
X016860Y017726D01*
X016860Y017819D02*
X016860Y017916D01*
X016860Y017868D02*
X016667Y017868D01*
X016667Y017819D01*
X016570Y017868D02*
X016521Y017868D01*
X016667Y018058D02*
X016715Y018010D01*
X016812Y018010D01*
X016860Y018058D01*
X016860Y018155D01*
X016812Y018203D01*
X016715Y018203D01*
X016667Y018155D01*
X016667Y018058D01*
X016667Y018295D02*
X016667Y018440D01*
X016715Y018488D01*
X016860Y018488D01*
X016860Y018295D02*
X016667Y018295D01*
X016763Y018866D02*
X016763Y019011D01*
X016715Y019059D01*
X016618Y019059D01*
X016570Y019011D01*
X016570Y018866D01*
X016860Y018866D01*
X016763Y018963D02*
X016860Y019059D01*
X016812Y019151D02*
X016860Y019200D01*
X016860Y019296D01*
X016812Y019345D01*
X016715Y019345D01*
X016667Y019296D01*
X016667Y019200D01*
X016715Y019151D01*
X016812Y019151D01*
X016860Y019437D02*
X016570Y019437D01*
X016667Y019437D02*
X016667Y019582D01*
X016715Y019630D01*
X016812Y019630D01*
X016860Y019582D01*
X016860Y019437D01*
X016812Y019722D02*
X016860Y019771D01*
X016860Y019867D01*
X016812Y019916D01*
X016715Y019916D01*
X016667Y019867D01*
X016667Y019771D01*
X016715Y019722D01*
X016812Y019722D01*
X016667Y020008D02*
X016667Y020104D01*
X016618Y020056D02*
X016812Y020056D01*
X016860Y020104D01*
X016860Y015918D02*
X016667Y015821D01*
X016667Y015536D02*
X016860Y015536D01*
X016860Y013255D02*
X016860Y013110D01*
X016812Y013062D01*
X016715Y013062D01*
X016667Y009542D02*
X016667Y009494D01*
X016667Y009400D02*
X016667Y009304D01*
X016618Y009352D02*
X016812Y009352D01*
X016860Y009400D01*
X016860Y009210D02*
X016860Y009113D01*
X016860Y009162D02*
X016570Y009162D01*
X016570Y009113D01*
X016667Y009021D02*
X016860Y009021D01*
X016860Y008876D01*
X016812Y008828D01*
X016667Y008828D01*
X016570Y008736D02*
X016860Y008736D01*
X016860Y008542D02*
X016570Y008542D01*
X016667Y008639D01*
X016570Y008736D01*
X011870Y016672D02*
X011870Y019922D01*
X008270Y019922D01*
X008270Y016672D01*
X011870Y016672D01*
D13*
X019220Y012512D02*
X019527Y012206D01*
X019450Y012282D02*
X019680Y012512D01*
X019970Y012512D02*
X020430Y012512D01*
X020430Y012359D02*
X019970Y012359D01*
X019970Y012052D02*
X020430Y012359D01*
X020277Y012512D02*
X019970Y012819D01*
X020123Y012973D02*
X019970Y013126D01*
X020123Y013280D01*
X020430Y013280D01*
X020200Y013280D02*
X020200Y012973D01*
X020123Y012973D02*
X020430Y012973D01*
X020430Y012819D02*
X020200Y012589D01*
X020430Y012052D02*
X019970Y012052D01*
X020046Y011899D02*
X019970Y011822D01*
X019970Y011592D01*
X020430Y011592D01*
X020277Y011592D02*
X020277Y011822D01*
X020200Y011899D01*
X020046Y011899D01*
X020277Y011745D02*
X020430Y011899D01*
X020430Y011285D02*
X019970Y011285D01*
X019970Y011438D02*
X019970Y011131D01*
X019680Y011131D02*
X019680Y011285D01*
X019680Y011208D02*
X019220Y011208D01*
X019220Y011131D02*
X019220Y011285D01*
X019296Y011438D02*
X019373Y011438D01*
X019450Y011515D01*
X019450Y011668D01*
X019527Y011745D01*
X019603Y011745D01*
X019680Y011668D01*
X019680Y011515D01*
X019603Y011438D01*
X019680Y011899D02*
X019680Y012052D01*
X019680Y011975D02*
X019220Y011975D01*
X019220Y011899D02*
X019220Y012052D01*
X019220Y012206D02*
X019680Y012206D01*
X019296Y011745D02*
X019220Y011668D01*
X019220Y011515D01*
X019296Y011438D01*
X019220Y010517D02*
X019680Y010517D01*
X019220Y010210D01*
X019680Y010210D01*
X019680Y010057D02*
X019373Y010057D01*
X019220Y009904D01*
X019373Y009750D01*
X019680Y009750D01*
X019603Y009597D02*
X019680Y009520D01*
X019680Y009366D01*
X019603Y009290D01*
X019450Y009366D02*
X019450Y009520D01*
X019527Y009597D01*
X019603Y009597D01*
X019450Y009750D02*
X019450Y010057D01*
X019296Y009597D02*
X019220Y009520D01*
X019220Y009366D01*
X019296Y009290D01*
X019373Y009290D01*
X019450Y009366D01*
X019450Y009136D02*
X019450Y008829D01*
X019680Y008829D02*
X019220Y008829D01*
X019220Y008676D02*
X019220Y008522D01*
X019220Y008599D02*
X019680Y008599D01*
X019680Y008522D02*
X019680Y008676D01*
X019970Y008829D02*
X019970Y008522D01*
X020430Y008522D01*
X020200Y008522D02*
X020200Y008676D01*
X020200Y008983D02*
X020200Y009136D01*
X020430Y008983D02*
X020430Y009290D01*
X020430Y009443D02*
X019970Y009443D01*
X019970Y009290D02*
X019970Y008983D01*
X020430Y008983D01*
X020200Y009443D02*
X020200Y009750D01*
X019970Y009750D02*
X020430Y009750D01*
X020430Y009904D02*
X020430Y010057D01*
X020430Y009980D02*
X019970Y009980D01*
X019970Y009904D02*
X019970Y010057D01*
X019970Y010210D02*
X020123Y010364D01*
X019970Y010517D01*
X020430Y010517D01*
X020430Y010210D02*
X019970Y010210D01*
X019680Y009136D02*
X019220Y009136D01*
D14*
X014380Y008933D02*
X014380Y008626D01*
X014227Y008472D01*
X013920Y008626D02*
X013920Y008933D01*
X014073Y009086D01*
X014227Y009086D01*
X014380Y008933D01*
X014380Y009393D02*
X013766Y009393D01*
X013459Y009700D01*
X013766Y010007D01*
X014380Y010007D01*
X014380Y010314D02*
X013459Y010314D01*
X013459Y010774D01*
X013613Y010928D01*
X013920Y010928D01*
X014073Y010774D01*
X014073Y010314D01*
X014073Y010621D02*
X014380Y010928D01*
X014380Y011235D02*
X013766Y011235D01*
X013459Y011542D01*
X013766Y011849D01*
X014380Y011849D01*
X014227Y012156D02*
X014380Y012309D01*
X014380Y012462D01*
X014227Y012616D01*
X013459Y012616D01*
X013459Y012769D02*
X013459Y012462D01*
X013459Y013076D02*
X014380Y013076D01*
X014380Y013690D01*
X014073Y013997D02*
X014380Y014304D01*
X014073Y014611D01*
X013459Y014611D01*
X013613Y014918D02*
X014227Y014918D01*
X014380Y015071D01*
X014380Y015378D01*
X014227Y015532D01*
X013613Y015532D01*
X013459Y015378D01*
X013459Y015071D01*
X013613Y014918D01*
X013459Y013997D02*
X014073Y013997D01*
X013920Y013383D02*
X013920Y013076D01*
X013459Y013076D02*
X013459Y013690D01*
X013920Y011849D02*
X013920Y011235D01*
X013920Y010007D02*
X013920Y009393D01*
X013613Y009086D02*
X013459Y008933D01*
X013459Y008626D01*
X013613Y008472D01*
X013766Y008472D01*
X013920Y008626D01*
X010100Y010782D02*
X009700Y010782D01*
X008416Y011332D02*
X008418Y011394D01*
X008424Y011457D01*
X008434Y011518D01*
X008448Y011579D01*
X008465Y011639D01*
X008486Y011698D01*
X008512Y011755D01*
X008540Y011810D01*
X008572Y011864D01*
X008608Y011915D01*
X008646Y011965D01*
X008688Y012011D01*
X008732Y012055D01*
X008780Y012096D01*
X008829Y012134D01*
X008881Y012168D01*
X008935Y012199D01*
X008991Y012227D01*
X009049Y012251D01*
X009108Y012272D01*
X009168Y012288D01*
X009229Y012301D01*
X009291Y012310D01*
X009353Y012315D01*
X009416Y012316D01*
X009478Y012313D01*
X009540Y012306D01*
X009602Y012295D01*
X009662Y012280D01*
X009722Y012262D01*
X009780Y012240D01*
X009837Y012214D01*
X009892Y012184D01*
X009945Y012151D01*
X009996Y012115D01*
X010044Y012076D01*
X010090Y012033D01*
X010133Y011988D01*
X010173Y011940D01*
X010210Y011890D01*
X010244Y011837D01*
X010275Y011783D01*
X010301Y011727D01*
X010325Y011669D01*
X010344Y011609D01*
X010360Y011549D01*
X010372Y011487D01*
X010380Y011426D01*
X010384Y011363D01*
X010384Y011301D01*
X010380Y011238D01*
X010372Y011177D01*
X010360Y011115D01*
X010344Y011055D01*
X010325Y010995D01*
X010301Y010937D01*
X010275Y010881D01*
X010244Y010827D01*
X010210Y010774D01*
X010173Y010724D01*
X010133Y010676D01*
X010090Y010631D01*
X010044Y010588D01*
X009996Y010549D01*
X009945Y010513D01*
X009892Y010480D01*
X009837Y010450D01*
X009780Y010424D01*
X009722Y010402D01*
X009662Y010384D01*
X009602Y010369D01*
X009540Y010358D01*
X009478Y010351D01*
X009416Y010348D01*
X009353Y010349D01*
X009291Y010354D01*
X009229Y010363D01*
X009168Y010376D01*
X009108Y010392D01*
X009049Y010413D01*
X008991Y010437D01*
X008935Y010465D01*
X008881Y010496D01*
X008829Y010530D01*
X008780Y010568D01*
X008732Y010609D01*
X008688Y010653D01*
X008646Y010699D01*
X008608Y010749D01*
X008572Y010800D01*
X008540Y010854D01*
X008512Y010909D01*
X008486Y010966D01*
X008465Y011025D01*
X008448Y011085D01*
X008434Y011146D01*
X008424Y011207D01*
X008418Y011270D01*
X008416Y011332D01*
X006020Y008522D02*
X006020Y008222D01*
X006120Y008222D01*
X006020Y008222D02*
X006020Y007922D01*
X004020Y007922D01*
X004020Y008222D01*
X003920Y008222D01*
X004020Y008222D02*
X004020Y008522D01*
X006020Y008522D01*
X013613Y016759D02*
X013459Y016913D01*
X013459Y017220D01*
X013613Y017373D01*
X013613Y017680D02*
X013459Y017834D01*
X013459Y018141D01*
X013613Y018294D01*
X014227Y018294D01*
X014380Y018141D01*
X014380Y017834D01*
X014227Y017680D01*
X013613Y017680D01*
X014227Y017373D02*
X014380Y017220D01*
X014380Y016913D01*
X014227Y016759D01*
X013613Y016759D01*
X013459Y018601D02*
X014380Y018601D01*
X014380Y019215D01*
X014380Y019522D02*
X014380Y020136D01*
X014380Y020443D02*
X014380Y021056D01*
X014227Y021363D02*
X014380Y021517D01*
X014380Y021824D01*
X014227Y021977D01*
X013920Y021977D01*
X013920Y021670D01*
X013613Y021363D02*
X014227Y021363D01*
X013613Y021363D02*
X013459Y021517D01*
X013459Y021824D01*
X013613Y021977D01*
X013459Y022284D02*
X014380Y022284D01*
X014380Y022898D01*
X013920Y022591D02*
X013920Y022284D01*
X013459Y022284D02*
X013459Y022898D01*
X013459Y021056D02*
X013459Y020443D01*
X014380Y020443D01*
X013920Y020443D02*
X013920Y020750D01*
X013459Y019522D02*
X014380Y019522D01*
X009566Y023262D02*
X009568Y023324D01*
X009574Y023387D01*
X009584Y023448D01*
X009598Y023509D01*
X009615Y023569D01*
X009636Y023628D01*
X009662Y023685D01*
X009690Y023740D01*
X009722Y023794D01*
X009758Y023845D01*
X009796Y023895D01*
X009838Y023941D01*
X009882Y023985D01*
X009930Y024026D01*
X009979Y024064D01*
X010031Y024098D01*
X010085Y024129D01*
X010141Y024157D01*
X010199Y024181D01*
X010258Y024202D01*
X010318Y024218D01*
X010379Y024231D01*
X010441Y024240D01*
X010503Y024245D01*
X010566Y024246D01*
X010628Y024243D01*
X010690Y024236D01*
X010752Y024225D01*
X010812Y024210D01*
X010872Y024192D01*
X010930Y024170D01*
X010987Y024144D01*
X011042Y024114D01*
X011095Y024081D01*
X011146Y024045D01*
X011194Y024006D01*
X011240Y023963D01*
X011283Y023918D01*
X011323Y023870D01*
X011360Y023820D01*
X011394Y023767D01*
X011425Y023713D01*
X011451Y023657D01*
X011475Y023599D01*
X011494Y023539D01*
X011510Y023479D01*
X011522Y023417D01*
X011530Y023356D01*
X011534Y023293D01*
X011534Y023231D01*
X011530Y023168D01*
X011522Y023107D01*
X011510Y023045D01*
X011494Y022985D01*
X011475Y022925D01*
X011451Y022867D01*
X011425Y022811D01*
X011394Y022757D01*
X011360Y022704D01*
X011323Y022654D01*
X011283Y022606D01*
X011240Y022561D01*
X011194Y022518D01*
X011146Y022479D01*
X011095Y022443D01*
X011042Y022410D01*
X010987Y022380D01*
X010930Y022354D01*
X010872Y022332D01*
X010812Y022314D01*
X010752Y022299D01*
X010690Y022288D01*
X010628Y022281D01*
X010566Y022278D01*
X010503Y022279D01*
X010441Y022284D01*
X010379Y022293D01*
X010318Y022306D01*
X010258Y022322D01*
X010199Y022343D01*
X010141Y022367D01*
X010085Y022395D01*
X010031Y022426D01*
X009979Y022460D01*
X009930Y022498D01*
X009882Y022539D01*
X009838Y022583D01*
X009796Y022629D01*
X009758Y022679D01*
X009722Y022730D01*
X009690Y022784D01*
X009662Y022839D01*
X009636Y022896D01*
X009615Y022955D01*
X009598Y023015D01*
X009584Y023076D01*
X009574Y023137D01*
X009568Y023200D01*
X009566Y023262D01*
X009850Y023812D02*
X010250Y023812D01*
D15*
X010340Y025102D02*
X009840Y025102D01*
X009590Y025352D01*
X009590Y025852D01*
X009840Y026102D01*
X010340Y026102D01*
X010590Y025852D01*
X010840Y026102D01*
X011340Y026102D01*
X011590Y025852D01*
X011590Y025352D01*
X011340Y025102D01*
X010840Y025102D01*
X010590Y025352D01*
X010340Y025102D01*
X010590Y025352D02*
X010590Y025852D01*
X009320Y026672D02*
X009320Y027172D01*
X009070Y027422D01*
X009320Y027672D01*
X009320Y028172D01*
X009070Y028422D01*
X009320Y028672D01*
X009320Y029172D01*
X009070Y029422D01*
X008570Y029422D01*
X008320Y029172D01*
X008320Y028672D01*
X008570Y028422D01*
X008320Y028172D01*
X008320Y027672D01*
X008570Y027422D01*
X008320Y027172D01*
X008320Y026672D01*
X008570Y026422D01*
X009070Y026422D01*
X009320Y026672D01*
X006290Y026812D02*
X006290Y027312D01*
X006040Y027562D01*
X005540Y027562D01*
X005290Y027312D01*
X005040Y027562D01*
X004540Y027562D01*
X004290Y027312D01*
X004040Y027562D01*
X003540Y027562D01*
X003290Y027312D01*
X003290Y026812D01*
X003540Y026562D01*
X004040Y026562D01*
X004290Y026812D01*
X004540Y026562D01*
X005040Y026562D01*
X005290Y026812D01*
X005540Y026562D01*
X006040Y026562D01*
X006290Y026812D01*
X006040Y026142D02*
X006290Y025892D01*
X006290Y025392D01*
X006040Y025142D01*
X005540Y025142D01*
X005290Y025392D01*
X005040Y025142D01*
X004540Y025142D01*
X004290Y025392D01*
X004040Y025142D01*
X003540Y025142D01*
X003290Y025392D01*
X003290Y025892D01*
X003540Y026142D01*
X004040Y026142D01*
X004290Y025892D01*
X004540Y026142D01*
X005040Y026142D01*
X005290Y025892D01*
X005540Y026142D01*
X006040Y026142D01*
X006050Y024602D02*
X005550Y024602D01*
X005300Y024352D01*
X005050Y024602D01*
X004550Y024602D01*
X004300Y024352D01*
X004050Y024602D01*
X003550Y024602D01*
X003300Y024352D01*
X003300Y023852D01*
X003550Y023602D01*
X004050Y023602D01*
X004300Y023852D01*
X004550Y023602D01*
X005050Y023602D01*
X005300Y023852D01*
X005550Y023602D01*
X006050Y023602D01*
X006300Y023852D01*
X006300Y024352D01*
X006050Y024602D01*
X006100Y022992D02*
X005600Y022992D01*
X005350Y022742D01*
X005100Y022992D01*
X004600Y022992D01*
X004350Y022742D01*
X004100Y022992D01*
X003600Y022992D01*
X003350Y022742D01*
X003350Y022242D01*
X003600Y021992D01*
X004100Y021992D01*
X004350Y022242D01*
X004600Y021992D01*
X005100Y021992D01*
X005350Y022242D01*
X005600Y021992D01*
X006100Y021992D01*
X006350Y022242D01*
X006350Y022742D01*
X006100Y022992D01*
X006110Y021422D02*
X005610Y021422D01*
X005360Y021172D01*
X005110Y021422D01*
X004610Y021422D01*
X004360Y021172D01*
X004110Y021422D01*
X003610Y021422D01*
X003360Y021172D01*
X003360Y020672D01*
X003610Y020422D01*
X004110Y020422D01*
X004360Y020672D01*
X004610Y020422D01*
X005110Y020422D01*
X005360Y020672D01*
X005610Y020422D01*
X006110Y020422D01*
X006360Y020672D01*
X006360Y021172D01*
X006110Y021422D01*
X006200Y019682D02*
X005700Y019682D01*
X005450Y019432D01*
X005200Y019682D01*
X004700Y019682D01*
X004450Y019432D01*
X004200Y019682D01*
X003700Y019682D01*
X003450Y019432D01*
X003450Y018932D01*
X003700Y018682D01*
X004200Y018682D01*
X004450Y018932D01*
X004700Y018682D01*
X005200Y018682D01*
X005450Y018932D01*
X005700Y018682D01*
X006200Y018682D01*
X006450Y018932D01*
X006450Y019432D01*
X006200Y019682D01*
X006150Y018202D02*
X005900Y017952D01*
X005650Y018202D01*
X005150Y018202D01*
X004900Y017952D01*
X004650Y018202D01*
X004150Y018202D01*
X003900Y017952D01*
X003650Y018202D01*
X003150Y018202D01*
X002900Y017952D01*
X002900Y017452D01*
X003150Y017202D01*
X003650Y017202D01*
X003900Y017452D01*
X004150Y017202D01*
X004650Y017202D01*
X004900Y017452D01*
X005150Y017202D01*
X005650Y017202D01*
X005900Y017452D01*
X006150Y017202D01*
X006650Y017202D01*
X006900Y017452D01*
X006900Y017952D01*
X006650Y018202D01*
X006150Y018202D01*
X006230Y016562D02*
X006730Y016562D01*
X006980Y016312D01*
X006980Y015812D01*
X006730Y015562D01*
X006230Y015562D01*
X005980Y015812D01*
X005730Y015562D01*
X005230Y015562D01*
X004980Y015812D01*
X004730Y015562D01*
X004230Y015562D01*
X003980Y015812D01*
X003730Y015562D01*
X003230Y015562D01*
X002980Y015812D01*
X002980Y016312D01*
X003230Y016562D01*
X003730Y016562D01*
X003980Y016312D01*
X004230Y016562D01*
X004730Y016562D01*
X004980Y016312D01*
X005230Y016562D01*
X005730Y016562D01*
X005980Y016312D01*
X006230Y016562D01*
X005990Y014752D02*
X005490Y014752D01*
X005240Y014502D01*
X005240Y014002D01*
X005490Y013752D01*
X005990Y013752D01*
X006240Y014002D01*
X006240Y014502D01*
X005990Y014752D01*
X005240Y014502D02*
X004990Y014752D01*
X004490Y014752D01*
X004240Y014502D01*
X004240Y014002D01*
X004490Y013752D01*
X004990Y013752D01*
X005240Y014002D01*
X003362Y012423D02*
X003135Y012423D01*
X003135Y012082D01*
X002993Y012082D02*
X002767Y012082D01*
X002767Y012423D01*
X002993Y012423D01*
X002880Y012253D02*
X002767Y012253D01*
X002625Y012253D02*
X002625Y012366D01*
X002568Y012423D01*
X002398Y012423D01*
X002398Y012082D01*
X002398Y012196D02*
X002568Y012196D01*
X002625Y012253D01*
X002512Y012196D02*
X002625Y012082D01*
X002257Y012082D02*
X002257Y012309D01*
X002143Y012423D01*
X002030Y012309D01*
X002030Y012082D01*
X002030Y012253D02*
X002257Y012253D01*
X002200Y013082D02*
X002257Y013139D01*
X002257Y013253D01*
X002143Y013253D01*
X002030Y013366D02*
X002030Y013139D01*
X002087Y013082D01*
X002200Y013082D01*
X002398Y013082D02*
X002398Y013423D01*
X002625Y013082D01*
X002625Y013423D01*
X002767Y013423D02*
X002767Y013082D01*
X002937Y013082D01*
X002993Y013139D01*
X002993Y013366D01*
X002937Y013423D01*
X002767Y013423D01*
X002257Y013366D02*
X002200Y013423D01*
X002087Y013423D01*
X002030Y013366D01*
X002030Y014082D02*
X002257Y014082D01*
X002143Y014082D02*
X002143Y014423D01*
X002030Y014309D01*
X002398Y014366D02*
X002455Y014423D01*
X002568Y014423D01*
X002625Y014366D01*
X002625Y014309D01*
X002568Y014253D01*
X002625Y014196D01*
X002625Y014139D01*
X002568Y014082D01*
X002455Y014082D01*
X002398Y014139D01*
X002512Y014253D02*
X002568Y014253D01*
X002625Y015082D02*
X002398Y015082D01*
X002625Y015309D01*
X002625Y015366D01*
X002568Y015423D01*
X002455Y015423D01*
X002398Y015366D01*
X002143Y015423D02*
X002143Y015082D01*
X002030Y015082D02*
X002257Y015082D01*
X002030Y015309D02*
X002143Y015423D01*
X002143Y016082D02*
X002143Y016423D01*
X002030Y016309D01*
X002030Y016082D02*
X002257Y016082D01*
X002398Y016082D02*
X002625Y016082D01*
X002512Y016082D02*
X002512Y016423D01*
X002398Y016309D01*
X002455Y017082D02*
X002398Y017139D01*
X002625Y017366D01*
X002625Y017139D01*
X002568Y017082D01*
X002455Y017082D01*
X002398Y017139D02*
X002398Y017366D01*
X002455Y017423D01*
X002568Y017423D01*
X002625Y017366D01*
X002257Y017082D02*
X002030Y017082D01*
X002143Y017082D02*
X002143Y017423D01*
X002030Y017309D01*
X002087Y018082D02*
X002200Y018082D01*
X002257Y018139D01*
X002257Y018366D01*
X002200Y018423D01*
X002087Y018423D01*
X002030Y018366D01*
X002030Y018309D01*
X002087Y018253D01*
X002257Y018253D01*
X002087Y018082D02*
X002030Y018139D01*
X002087Y019082D02*
X002030Y019139D01*
X002030Y019196D01*
X002087Y019253D01*
X002200Y019253D01*
X002257Y019196D01*
X002257Y019139D01*
X002200Y019082D01*
X002087Y019082D01*
X002087Y019253D02*
X002030Y019309D01*
X002030Y019366D01*
X002087Y019423D01*
X002200Y019423D01*
X002257Y019366D01*
X002257Y019309D01*
X002200Y019253D01*
X002030Y020582D02*
X002030Y020639D01*
X002257Y020866D01*
X002257Y020923D01*
X002030Y020923D01*
X002087Y021582D02*
X002200Y021582D01*
X002257Y021639D01*
X002257Y021696D01*
X002200Y021753D01*
X002030Y021753D01*
X002030Y021639D01*
X002087Y021582D01*
X002030Y021753D02*
X002143Y021866D01*
X002257Y021923D01*
X002200Y022582D02*
X002087Y022582D01*
X002030Y022639D01*
X002030Y022753D02*
X002143Y022809D01*
X002200Y022809D01*
X002257Y022753D01*
X002257Y022639D01*
X002200Y022582D01*
X002030Y022753D02*
X002030Y022923D01*
X002257Y022923D01*
X002200Y023582D02*
X002200Y023923D01*
X002030Y023753D01*
X002257Y023753D01*
X002200Y024582D02*
X002087Y024582D01*
X002030Y024639D01*
X002143Y024753D02*
X002200Y024753D01*
X002257Y024696D01*
X002257Y024639D01*
X002200Y024582D01*
X002200Y024753D02*
X002257Y024809D01*
X002257Y024866D01*
X002200Y024923D01*
X002087Y024923D01*
X002030Y024866D01*
X002030Y025582D02*
X002257Y025809D01*
X002257Y025866D01*
X002200Y025923D01*
X002087Y025923D01*
X002030Y025866D01*
X002030Y025582D02*
X002257Y025582D01*
X002143Y026582D02*
X002143Y026923D01*
X002030Y026923D02*
X002257Y026923D01*
X002398Y026923D02*
X002625Y026582D01*
X002398Y026582D02*
X002625Y026923D01*
X002625Y027582D02*
X002398Y027923D01*
X002257Y027866D02*
X002257Y027753D01*
X002200Y027696D01*
X002030Y027696D01*
X002143Y027696D02*
X002257Y027582D01*
X002398Y027582D02*
X002625Y027923D01*
X002257Y027866D02*
X002200Y027923D01*
X002030Y027923D01*
X002030Y027582D01*
X008020Y020172D02*
X008020Y015272D01*
X008370Y015272D01*
X008370Y014672D01*
X008020Y014672D01*
X008020Y013922D01*
X012120Y013922D01*
X012120Y014672D01*
X011770Y014672D01*
X011770Y015272D01*
X012120Y015272D01*
X012120Y020172D01*
X008020Y020172D01*
X009360Y015272D02*
X009362Y015325D01*
X009368Y015378D01*
X009378Y015430D01*
X009392Y015481D01*
X009409Y015531D01*
X009430Y015580D01*
X009455Y015627D01*
X009483Y015672D01*
X009515Y015715D01*
X009550Y015755D01*
X009587Y015792D01*
X009627Y015827D01*
X009670Y015859D01*
X009715Y015887D01*
X009762Y015912D01*
X009811Y015933D01*
X009861Y015950D01*
X009912Y015964D01*
X009964Y015974D01*
X010017Y015980D01*
X010070Y015982D01*
X010123Y015980D01*
X010176Y015974D01*
X010228Y015964D01*
X010279Y015950D01*
X010329Y015933D01*
X010378Y015912D01*
X010425Y015887D01*
X010470Y015859D01*
X010513Y015827D01*
X010553Y015792D01*
X010590Y015755D01*
X010625Y015715D01*
X010657Y015672D01*
X010685Y015627D01*
X010710Y015580D01*
X010731Y015531D01*
X010748Y015481D01*
X010762Y015430D01*
X010772Y015378D01*
X010778Y015325D01*
X010780Y015272D01*
X010778Y015219D01*
X010772Y015166D01*
X010762Y015114D01*
X010748Y015063D01*
X010731Y015013D01*
X010710Y014964D01*
X010685Y014917D01*
X010657Y014872D01*
X010625Y014829D01*
X010590Y014789D01*
X010553Y014752D01*
X010513Y014717D01*
X010470Y014685D01*
X010425Y014657D01*
X010378Y014632D01*
X010329Y014611D01*
X010279Y014594D01*
X010228Y014580D01*
X010176Y014570D01*
X010123Y014564D01*
X010070Y014562D01*
X010017Y014564D01*
X009964Y014570D01*
X009912Y014580D01*
X009861Y014594D01*
X009811Y014611D01*
X009762Y014632D01*
X009715Y014657D01*
X009670Y014685D01*
X009627Y014717D01*
X009587Y014752D01*
X009550Y014789D01*
X009515Y014829D01*
X009483Y014872D01*
X009455Y014917D01*
X009430Y014964D01*
X009409Y015013D01*
X009392Y015063D01*
X009378Y015114D01*
X009368Y015166D01*
X009362Y015219D01*
X009360Y015272D01*
X009070Y008702D02*
X008570Y008702D01*
X008320Y008452D01*
X008070Y008702D01*
X007570Y008702D01*
X007320Y008452D01*
X007320Y007952D01*
X007570Y007702D01*
X008070Y007702D01*
X008320Y007952D01*
X008320Y008452D01*
X008320Y007952D02*
X008570Y007702D01*
X009070Y007702D01*
X009320Y007952D01*
X009320Y008452D01*
X009070Y008702D01*
X003248Y012253D02*
X003135Y012253D01*
X013250Y027252D02*
X013000Y027502D01*
X013000Y028002D01*
X013250Y028252D01*
X013750Y028252D01*
X014000Y028002D01*
X014000Y027502D01*
X013750Y027252D01*
X013250Y027252D01*
X018937Y019923D02*
X018880Y019866D01*
X018880Y019639D01*
X018937Y019582D01*
X019050Y019582D01*
X019107Y019639D01*
X019107Y019753D01*
X018993Y019753D01*
X019107Y019866D02*
X019050Y019923D01*
X018937Y019923D01*
X019248Y019923D02*
X019248Y019582D01*
X019475Y019582D02*
X019248Y019923D01*
X019475Y019923D02*
X019475Y019582D01*
X019617Y019582D02*
X019617Y019923D01*
X019787Y019923D01*
X019844Y019866D01*
X019844Y019639D01*
X019787Y019582D01*
X019617Y019582D01*
X019617Y018923D02*
X019787Y018923D01*
X019844Y018866D01*
X019844Y018639D01*
X019787Y018582D01*
X019617Y018582D01*
X019617Y018923D01*
X019475Y018923D02*
X019475Y018582D01*
X019248Y018923D01*
X019248Y018582D01*
X019107Y018639D02*
X019107Y018753D01*
X018993Y018753D01*
X018880Y018866D02*
X018880Y018639D01*
X018937Y018582D01*
X019050Y018582D01*
X019107Y018639D01*
X019107Y018866D02*
X019050Y018923D01*
X018937Y018923D01*
X018880Y018866D01*
X018993Y017866D02*
X018993Y017639D01*
X018880Y017753D02*
X019107Y017753D01*
X019248Y017753D02*
X019362Y017809D01*
X019419Y017809D01*
X019475Y017753D01*
X019475Y017639D01*
X019419Y017582D01*
X019305Y017582D01*
X019248Y017639D01*
X019248Y017753D02*
X019248Y017923D01*
X019475Y017923D01*
X019617Y017923D02*
X019617Y017696D01*
X019730Y017582D01*
X019844Y017696D01*
X019844Y017923D01*
X019844Y016923D02*
X019844Y016696D01*
X019730Y016582D01*
X019617Y016696D01*
X019617Y016923D01*
X019475Y016866D02*
X019475Y016809D01*
X019419Y016753D01*
X019475Y016696D01*
X019475Y016639D01*
X019419Y016582D01*
X019305Y016582D01*
X019248Y016639D01*
X019121Y016639D02*
X019121Y016582D01*
X019064Y016582D01*
X019064Y016639D01*
X019121Y016639D01*
X018923Y016639D02*
X018866Y016582D01*
X018753Y016582D01*
X018696Y016639D01*
X018809Y016753D02*
X018866Y016753D01*
X018923Y016696D01*
X018923Y016639D01*
X018866Y016753D02*
X018923Y016809D01*
X018923Y016866D01*
X018866Y016923D01*
X018753Y016923D01*
X018696Y016866D01*
X018554Y016753D02*
X018328Y016753D01*
X018441Y016866D02*
X018441Y016639D01*
X018880Y015923D02*
X019050Y015923D01*
X019107Y015866D01*
X019107Y015753D01*
X019050Y015696D01*
X018880Y015696D01*
X018993Y015696D02*
X019107Y015582D01*
X019248Y015639D02*
X019305Y015582D01*
X019419Y015582D01*
X019475Y015639D01*
X019475Y015696D01*
X019419Y015753D01*
X019305Y015753D01*
X019248Y015809D01*
X019248Y015866D01*
X019305Y015923D01*
X019419Y015923D01*
X019475Y015866D01*
X019617Y015923D02*
X019844Y015923D01*
X019730Y015923D02*
X019730Y015582D01*
X018880Y015582D02*
X018880Y015923D01*
X019362Y016753D02*
X019419Y016753D01*
X019475Y016866D02*
X019419Y016923D01*
X019305Y016923D01*
X019248Y016866D01*
X019371Y020582D02*
X019485Y020582D01*
X019428Y020582D02*
X019428Y020923D01*
X019371Y020923D02*
X019485Y020923D01*
X019617Y020923D02*
X019617Y020582D01*
X019844Y020582D02*
X019617Y020923D01*
X019844Y020923D02*
X019844Y020582D01*
X019230Y020696D02*
X019230Y020923D01*
X019003Y020923D02*
X019003Y020696D01*
X019116Y020582D01*
X019230Y020696D01*
X019673Y022582D02*
X019617Y022639D01*
X019844Y022866D01*
X019844Y022639D01*
X019787Y022582D01*
X019673Y022582D01*
X019617Y022639D02*
X019617Y022866D01*
X019673Y022923D01*
X019787Y022923D01*
X019844Y022866D01*
X019844Y023582D02*
X019617Y023582D01*
X019730Y023582D02*
X019730Y023923D01*
X019617Y023809D01*
X019325Y023763D02*
X019098Y023763D01*
X018985Y023877D01*
X019098Y023990D01*
X019325Y023990D01*
X019325Y024131D02*
X019098Y024131D01*
X019098Y024302D01*
X019155Y024358D01*
X019325Y024358D01*
X019268Y024500D02*
X019212Y024556D01*
X019212Y024727D01*
X019155Y024727D02*
X019325Y024727D01*
X019325Y024556D01*
X019268Y024500D01*
X019098Y024556D02*
X019098Y024670D01*
X019155Y024727D01*
X019325Y024868D02*
X019325Y024981D01*
X019325Y024925D02*
X018985Y024925D01*
X018985Y024868D01*
X019155Y025114D02*
X019098Y025170D01*
X019098Y025284D01*
X019155Y025340D01*
X019268Y025340D01*
X019325Y025284D01*
X019325Y025170D01*
X019268Y025114D01*
X019155Y025114D01*
X019155Y025482D02*
X019098Y025539D01*
X019098Y025709D01*
X019382Y025709D01*
X019438Y025652D01*
X019438Y025595D01*
X019325Y025539D02*
X019325Y025709D01*
X019325Y025539D02*
X019268Y025482D01*
X019155Y025482D01*
X019617Y025639D02*
X019673Y025582D01*
X019787Y025582D01*
X019844Y025639D01*
X019844Y025696D01*
X019787Y025753D01*
X019730Y025753D01*
X019787Y025753D02*
X019844Y025809D01*
X019844Y025866D01*
X019787Y025923D01*
X019673Y025923D01*
X019617Y025866D01*
X019325Y026219D02*
X019325Y026332D01*
X019325Y026275D02*
X018985Y026275D01*
X018985Y026219D02*
X018985Y026332D01*
X019098Y026464D02*
X019098Y026634D01*
X019155Y026691D01*
X019325Y026691D01*
X019325Y026464D02*
X019098Y026464D01*
X019617Y026753D02*
X019844Y026753D01*
X019787Y026923D02*
X019787Y026582D01*
X019617Y026753D02*
X019787Y026923D01*
X019787Y027582D02*
X019673Y027582D01*
X019617Y027639D01*
X019617Y027753D02*
X019730Y027809D01*
X019787Y027809D01*
X019844Y027753D01*
X019844Y027639D01*
X019787Y027582D01*
X019617Y027753D02*
X019617Y027923D01*
X019844Y027923D01*
X019787Y024923D02*
X019673Y024923D01*
X019617Y024866D01*
X019787Y024923D02*
X019844Y024866D01*
X019844Y024809D01*
X019617Y024582D01*
X019844Y024582D01*
X019155Y023990D02*
X019155Y023763D01*
D16*
X015907Y028497D02*
X015907Y028948D01*
X015757Y028948D02*
X016058Y028948D01*
X015597Y028873D02*
X015522Y028948D01*
X015372Y028948D01*
X015297Y028873D01*
X015297Y028572D01*
X015372Y028497D01*
X015522Y028497D01*
X015597Y028572D01*
X015137Y028497D02*
X014837Y028497D01*
X014837Y028948D01*
X015137Y028948D01*
X014987Y028723D02*
X014837Y028723D01*
X014676Y028948D02*
X014376Y028948D01*
X014526Y028948D02*
X014526Y028497D01*
X014216Y028497D02*
X013916Y028497D01*
X013916Y028948D01*
X014216Y028948D01*
X014066Y028723D02*
X013916Y028723D01*
X013756Y028873D02*
X013756Y028572D01*
X013681Y028497D01*
X013455Y028497D01*
X013455Y028948D01*
X013681Y028948D01*
X013756Y028873D01*
X013295Y028948D02*
X013295Y028497D01*
X012995Y028497D02*
X012995Y028948D01*
X013145Y028798D01*
X013295Y028948D01*
X011410Y024858D02*
X011260Y024858D01*
X011185Y024783D01*
X011185Y024482D01*
X011260Y024407D01*
X011410Y024407D01*
X011485Y024482D01*
X011485Y024783D02*
X011410Y024858D01*
X011024Y024783D02*
X010949Y024858D01*
X010799Y024858D01*
X010724Y024783D01*
X010724Y024482D01*
X010799Y024407D01*
X010949Y024407D01*
X011024Y024482D01*
X010564Y024557D02*
X010564Y024858D01*
X010264Y024858D02*
X010264Y024557D01*
X010414Y024407D01*
X010564Y024557D01*
X009045Y025947D02*
X009045Y026248D01*
X009045Y026097D02*
X008595Y026097D01*
X008745Y025947D01*
X008145Y026597D02*
X007695Y026597D01*
X007695Y026447D02*
X007695Y026748D01*
X007695Y026908D02*
X008145Y026908D01*
X008145Y027208D01*
X008145Y027368D02*
X007695Y027368D01*
X007845Y027518D01*
X007695Y027668D01*
X008145Y027668D01*
X008145Y027829D02*
X007695Y027829D01*
X007695Y028054D01*
X007770Y028129D01*
X007920Y028129D01*
X007995Y028054D01*
X007995Y027829D01*
X007695Y027208D02*
X007695Y026908D01*
X007920Y026908D02*
X007920Y027058D01*
X004076Y026693D02*
X004001Y026768D01*
X003850Y026768D01*
X003775Y026693D01*
X003615Y026693D02*
X003540Y026768D01*
X003390Y026768D01*
X003315Y026693D01*
X003315Y026618D01*
X003390Y026543D01*
X003540Y026543D01*
X003615Y026467D01*
X003615Y026392D01*
X003540Y026317D01*
X003390Y026317D01*
X003315Y026392D01*
X003115Y026837D02*
X002815Y026837D01*
X002965Y026837D02*
X002965Y027288D01*
X002815Y027138D01*
X003390Y027737D02*
X003315Y027812D01*
X003390Y027737D02*
X003540Y027737D01*
X003615Y027812D01*
X003615Y027887D01*
X003540Y027963D01*
X003390Y027963D01*
X003315Y028038D01*
X003315Y028113D01*
X003390Y028188D01*
X003540Y028188D01*
X003615Y028113D01*
X003775Y028038D02*
X003926Y028188D01*
X003926Y027737D01*
X004076Y027737D02*
X003775Y027737D01*
X004076Y026693D02*
X004076Y026618D01*
X003775Y026317D01*
X004076Y026317D01*
X004011Y025228D02*
X003860Y025228D01*
X003785Y025153D01*
X003625Y025153D02*
X003550Y025228D01*
X003400Y025228D01*
X003325Y025153D01*
X003325Y025078D01*
X003400Y025003D01*
X003550Y025003D01*
X003625Y024927D01*
X003625Y024852D01*
X003550Y024777D01*
X003400Y024777D01*
X003325Y024852D01*
X003785Y024852D02*
X003860Y024777D01*
X004011Y024777D01*
X004086Y024852D01*
X004086Y024927D01*
X004011Y025003D01*
X003936Y025003D01*
X004011Y025003D02*
X004086Y025078D01*
X004086Y025153D01*
X004011Y025228D01*
X003115Y025417D02*
X002815Y025417D01*
X002965Y025417D02*
X002965Y025868D01*
X002815Y025718D01*
X002975Y024328D02*
X002975Y023877D01*
X002825Y023877D02*
X003125Y023877D01*
X003450Y023618D02*
X003375Y023543D01*
X003375Y023468D01*
X003450Y023393D01*
X003600Y023393D01*
X003675Y023317D01*
X003675Y023242D01*
X003600Y023167D01*
X003450Y023167D01*
X003375Y023242D01*
X003450Y023618D02*
X003600Y023618D01*
X003675Y023543D01*
X003835Y023393D02*
X004136Y023393D01*
X004061Y023618D02*
X003835Y023393D01*
X004061Y023618D02*
X004061Y023167D01*
X004146Y022048D02*
X003845Y022048D01*
X003845Y021823D01*
X003996Y021898D01*
X004071Y021898D01*
X004146Y021823D01*
X004146Y021672D01*
X004071Y021597D01*
X003920Y021597D01*
X003845Y021672D01*
X003685Y021672D02*
X003610Y021597D01*
X003460Y021597D01*
X003385Y021672D01*
X003460Y021823D02*
X003610Y021823D01*
X003685Y021747D01*
X003685Y021672D01*
X003460Y021823D02*
X003385Y021898D01*
X003385Y021973D01*
X003460Y022048D01*
X003610Y022048D01*
X003685Y021973D01*
X003175Y022267D02*
X002875Y022267D01*
X003025Y022267D02*
X003025Y022718D01*
X002875Y022568D01*
X003035Y021148D02*
X002885Y020998D01*
X003035Y021148D02*
X003035Y020697D01*
X002885Y020697D02*
X003185Y020697D01*
X003550Y020308D02*
X003475Y020233D01*
X003475Y020158D01*
X003550Y020083D01*
X003700Y020083D01*
X003775Y020007D01*
X003775Y019932D01*
X003700Y019857D01*
X003550Y019857D01*
X003475Y019932D01*
X003550Y020308D02*
X003700Y020308D01*
X003775Y020233D01*
X003935Y020083D02*
X003935Y019932D01*
X004010Y019857D01*
X004161Y019857D01*
X004236Y019932D01*
X004236Y020007D01*
X004161Y020083D01*
X003935Y020083D01*
X004086Y020233D01*
X004236Y020308D01*
X003125Y019408D02*
X003125Y018957D01*
X002975Y018957D02*
X003275Y018957D01*
X002975Y019258D02*
X003125Y019408D01*
X002590Y017928D02*
X002365Y017703D01*
X002665Y017703D01*
X002590Y017928D02*
X002590Y017477D01*
X002670Y016288D02*
X002445Y016063D01*
X002745Y016063D01*
X002670Y016288D02*
X002670Y015837D01*
X004235Y015448D02*
X004385Y015448D01*
X004310Y015448D02*
X004310Y014997D01*
X004235Y014997D02*
X004385Y014997D01*
X004542Y014997D02*
X004542Y015448D01*
X004767Y015448D01*
X004842Y015373D01*
X004842Y015223D01*
X004767Y015147D01*
X004542Y015147D01*
X004692Y015147D02*
X004842Y014997D01*
X005619Y016577D02*
X005544Y016652D01*
X005544Y016953D01*
X005619Y017028D01*
X005769Y017028D01*
X005844Y016953D01*
X005844Y016803D02*
X005694Y016803D01*
X005844Y016803D02*
X005844Y016652D01*
X005769Y016577D01*
X005619Y016577D01*
X006004Y016577D02*
X006004Y017028D01*
X006229Y017028D01*
X006304Y016953D01*
X006304Y016803D01*
X006229Y016727D01*
X006004Y016727D01*
X006465Y016652D02*
X006540Y016577D01*
X006690Y016577D01*
X006765Y016652D01*
X006765Y016727D01*
X006690Y016803D01*
X006540Y016803D01*
X006465Y016878D01*
X006465Y016953D01*
X006540Y017028D01*
X006690Y017028D01*
X006765Y016953D01*
X006915Y017477D02*
X007215Y017477D01*
X007065Y017477D02*
X007065Y017928D01*
X006915Y017778D01*
X007145Y016288D02*
X007145Y015837D01*
X006995Y015837D02*
X007295Y015837D01*
X006995Y016138D02*
X007145Y016288D01*
X006845Y015388D02*
X006545Y015388D01*
X006695Y015388D02*
X006695Y014937D01*
X006384Y015012D02*
X006309Y014937D01*
X006084Y014937D01*
X006084Y015388D01*
X006309Y015388D01*
X006384Y015313D01*
X006384Y015238D01*
X006309Y015163D01*
X006084Y015163D01*
X006309Y015163D02*
X006384Y015087D01*
X006384Y015012D01*
X006306Y007458D02*
X006531Y007458D01*
X006606Y007383D01*
X006606Y007082D01*
X006531Y007007D01*
X006306Y007007D01*
X006306Y007458D01*
X006146Y007458D02*
X006146Y007007D01*
X005845Y007458D01*
X005845Y007007D01*
X005689Y007007D02*
X005538Y007007D01*
X005613Y007007D02*
X005613Y007458D01*
X005538Y007458D02*
X005689Y007458D01*
X005378Y006932D02*
X005078Y006932D01*
X004918Y007007D02*
X004918Y007458D01*
X004768Y007308D01*
X004618Y007458D01*
X004618Y007007D01*
X006766Y007007D02*
X006916Y007007D01*
X006841Y007007D02*
X006841Y007458D01*
X006766Y007458D02*
X006916Y007458D01*
X007073Y007383D02*
X007073Y007082D01*
X007148Y007007D01*
X007298Y007007D01*
X007373Y007082D01*
X007533Y006932D02*
X007834Y006932D01*
X007994Y007007D02*
X008294Y007007D01*
X008454Y007007D02*
X008754Y007007D01*
X008915Y007007D02*
X008915Y007458D01*
X009140Y007458D01*
X009215Y007383D01*
X009215Y007082D01*
X009140Y007007D01*
X008915Y007007D01*
X008754Y007458D02*
X008454Y007458D01*
X008454Y007007D01*
X008454Y007233D02*
X008604Y007233D01*
X007994Y007458D02*
X007994Y007007D01*
X007373Y007383D02*
X007298Y007458D01*
X007148Y007458D01*
X007073Y007383D01*
X002825Y024178D02*
X002975Y024328D01*
D17*
X010205Y023967D02*
X010255Y024017D01*
X010255Y023867D01*
X010205Y023867D02*
X010305Y023867D01*
X010352Y023892D02*
X010377Y023867D01*
X010427Y023867D01*
X010452Y023892D01*
X010452Y024017D01*
X010500Y024017D02*
X010500Y023867D01*
X010500Y023942D02*
X010550Y023942D01*
X010500Y024017D02*
X010600Y024017D01*
X010647Y023942D02*
X010747Y023942D01*
X010794Y023867D02*
X010844Y023867D01*
X010819Y023867D02*
X010819Y024017D01*
X010794Y024017D02*
X010844Y024017D01*
X010893Y024017D02*
X010993Y023867D01*
X010993Y024017D01*
X011040Y024017D02*
X011115Y024017D01*
X011140Y023992D01*
X011140Y023942D01*
X011115Y023917D01*
X011040Y023917D01*
X011040Y023867D02*
X011040Y024017D01*
X011187Y024017D02*
X011187Y023892D01*
X011212Y023867D01*
X011262Y023867D01*
X011287Y023892D01*
X011287Y024017D01*
X011334Y024017D02*
X011435Y024017D01*
X011385Y024017D02*
X011385Y023867D01*
X010893Y023867D02*
X010893Y024017D01*
X010352Y024017D02*
X010352Y023892D01*
X009708Y010727D02*
X009608Y010727D01*
X009560Y010727D02*
X009560Y010602D01*
X009535Y010577D01*
X009485Y010577D01*
X009460Y010602D01*
X009460Y010727D01*
X009413Y010702D02*
X009413Y010652D01*
X009388Y010627D01*
X009313Y010627D01*
X009313Y010577D02*
X009313Y010727D01*
X009388Y010727D01*
X009413Y010702D01*
X009266Y010727D02*
X009166Y010727D01*
X009118Y010727D02*
X009118Y010602D01*
X009093Y010577D01*
X009043Y010577D01*
X009018Y010602D01*
X009018Y010727D01*
X008971Y010702D02*
X008946Y010727D01*
X008896Y010727D01*
X008871Y010702D01*
X008871Y010602D01*
X008896Y010577D01*
X008946Y010577D01*
X008971Y010602D01*
X008971Y010702D01*
X008824Y010652D02*
X008724Y010652D01*
X008676Y010727D02*
X008576Y010727D01*
X008576Y010577D01*
X008529Y010602D02*
X008529Y010727D01*
X008576Y010652D02*
X008626Y010652D01*
X008529Y010602D02*
X008504Y010577D01*
X008454Y010577D01*
X008429Y010602D01*
X008429Y010727D01*
X008332Y010727D02*
X008332Y010577D01*
X008282Y010577D02*
X008382Y010577D01*
X008282Y010677D02*
X008332Y010727D01*
X009216Y010727D02*
X009216Y010577D01*
X009658Y010577D02*
X009658Y010727D01*
X005978Y007692D02*
X005953Y007717D01*
X005903Y007717D01*
X005878Y007692D01*
X005830Y007692D02*
X005830Y007642D01*
X005805Y007617D01*
X005730Y007617D01*
X005730Y007567D02*
X005730Y007717D01*
X005805Y007717D01*
X005830Y007692D01*
X005780Y007617D02*
X005830Y007567D01*
X005878Y007567D02*
X005978Y007667D01*
X005978Y007692D01*
X005978Y007567D02*
X005878Y007567D01*
D18*
X012254Y017640D02*
X012885Y017640D01*
X012885Y018060D01*
X012885Y018285D02*
X012254Y018285D01*
X012465Y018495D01*
X012254Y018705D01*
X012885Y018705D01*
X012885Y018929D02*
X012780Y018929D01*
X012360Y019350D01*
X012254Y019350D01*
X012254Y018929D01*
X012360Y019574D02*
X012465Y019574D01*
X012570Y019679D01*
X012570Y019889D01*
X012675Y019994D01*
X012780Y019994D01*
X012885Y019889D01*
X012885Y019679D01*
X012780Y019574D01*
X012675Y019574D01*
X012570Y019679D01*
X012570Y019889D02*
X012465Y019994D01*
X012360Y019994D01*
X012254Y019889D01*
X012254Y019679D01*
X012360Y019574D01*
X012360Y020218D02*
X012254Y020323D01*
X012254Y020534D01*
X012360Y020639D01*
X012780Y020218D01*
X012885Y020323D01*
X012885Y020534D01*
X012780Y020639D01*
X012360Y020639D01*
X012254Y020863D02*
X012570Y020863D01*
X012465Y021073D01*
X012465Y021178D01*
X012570Y021283D01*
X012780Y021283D01*
X012885Y021178D01*
X012885Y020968D01*
X012780Y020863D01*
X012254Y020863D02*
X012254Y021283D01*
X012360Y020218D02*
X012780Y020218D01*
D19*
X011070Y021397D03*
X010070Y021397D03*
X009070Y021397D03*
D20*
X009070Y020722D03*
X010070Y020722D03*
X011070Y020722D03*
M02*
