G75*
G70*
%OFA0B0*%
%FSLAX24Y24*%
%IPPOS*%
%LPD*%
%AMOC8*
5,1,8,0,0,1.08239X$1,22.5*
%
%ADD10C,0.0000*%
D10*
X000500Y007222D02*
X001500Y006252D01*
X020500Y006252D01*
X021500Y007252D01*
X021520Y028748D01*
X020504Y028748D01*
X019500Y029752D01*
X006500Y029752D01*
X005500Y028752D01*
X001000Y028752D01*
X000490Y028248D01*
X000500Y007222D01*
X000850Y008752D02*
X000852Y008802D01*
X000858Y008852D01*
X000868Y008902D01*
X000881Y008950D01*
X000898Y008998D01*
X000919Y009044D01*
X000943Y009088D01*
X000971Y009130D01*
X001002Y009170D01*
X001036Y009207D01*
X001073Y009242D01*
X001112Y009273D01*
X001153Y009302D01*
X001197Y009327D01*
X001243Y009349D01*
X001290Y009367D01*
X001338Y009381D01*
X001387Y009392D01*
X001437Y009399D01*
X001487Y009402D01*
X001538Y009401D01*
X001588Y009396D01*
X001638Y009387D01*
X001686Y009375D01*
X001734Y009358D01*
X001780Y009338D01*
X001825Y009315D01*
X001868Y009288D01*
X001908Y009258D01*
X001946Y009225D01*
X001981Y009189D01*
X002014Y009150D01*
X002043Y009109D01*
X002069Y009066D01*
X002092Y009021D01*
X002111Y008974D01*
X002126Y008926D01*
X002138Y008877D01*
X002146Y008827D01*
X002150Y008777D01*
X002150Y008727D01*
X002146Y008677D01*
X002138Y008627D01*
X002126Y008578D01*
X002111Y008530D01*
X002092Y008483D01*
X002069Y008438D01*
X002043Y008395D01*
X002014Y008354D01*
X001981Y008315D01*
X001946Y008279D01*
X001908Y008246D01*
X001868Y008216D01*
X001825Y008189D01*
X001780Y008166D01*
X001734Y008146D01*
X001686Y008129D01*
X001638Y008117D01*
X001588Y008108D01*
X001538Y008103D01*
X001487Y008102D01*
X001437Y008105D01*
X001387Y008112D01*
X001338Y008123D01*
X001290Y008137D01*
X001243Y008155D01*
X001197Y008177D01*
X001153Y008202D01*
X001112Y008231D01*
X001073Y008262D01*
X001036Y008297D01*
X001002Y008334D01*
X000971Y008374D01*
X000943Y008416D01*
X000919Y008460D01*
X000898Y008506D01*
X000881Y008554D01*
X000868Y008602D01*
X000858Y008652D01*
X000852Y008702D01*
X000850Y008752D01*
X009420Y015272D02*
X009422Y015322D01*
X009428Y015372D01*
X009438Y015422D01*
X009451Y015470D01*
X009468Y015518D01*
X009489Y015564D01*
X009513Y015608D01*
X009541Y015650D01*
X009572Y015690D01*
X009606Y015727D01*
X009643Y015762D01*
X009682Y015793D01*
X009723Y015822D01*
X009767Y015847D01*
X009813Y015869D01*
X009860Y015887D01*
X009908Y015901D01*
X009957Y015912D01*
X010007Y015919D01*
X010057Y015922D01*
X010108Y015921D01*
X010158Y015916D01*
X010208Y015907D01*
X010256Y015895D01*
X010304Y015878D01*
X010350Y015858D01*
X010395Y015835D01*
X010438Y015808D01*
X010478Y015778D01*
X010516Y015745D01*
X010551Y015709D01*
X010584Y015670D01*
X010613Y015629D01*
X010639Y015586D01*
X010662Y015541D01*
X010681Y015494D01*
X010696Y015446D01*
X010708Y015397D01*
X010716Y015347D01*
X010720Y015297D01*
X010720Y015247D01*
X010716Y015197D01*
X010708Y015147D01*
X010696Y015098D01*
X010681Y015050D01*
X010662Y015003D01*
X010639Y014958D01*
X010613Y014915D01*
X010584Y014874D01*
X010551Y014835D01*
X010516Y014799D01*
X010478Y014766D01*
X010438Y014736D01*
X010395Y014709D01*
X010350Y014686D01*
X010304Y014666D01*
X010256Y014649D01*
X010208Y014637D01*
X010158Y014628D01*
X010108Y014623D01*
X010057Y014622D01*
X010007Y014625D01*
X009957Y014632D01*
X009908Y014643D01*
X009860Y014657D01*
X009813Y014675D01*
X009767Y014697D01*
X009723Y014722D01*
X009682Y014751D01*
X009643Y014782D01*
X009606Y014817D01*
X009572Y014854D01*
X009541Y014894D01*
X009513Y014936D01*
X009489Y014980D01*
X009468Y015026D01*
X009451Y015074D01*
X009438Y015122D01*
X009428Y015172D01*
X009422Y015222D01*
X009420Y015272D01*
X017850Y028752D02*
X017852Y028802D01*
X017858Y028852D01*
X017868Y028902D01*
X017881Y028950D01*
X017898Y028998D01*
X017919Y029044D01*
X017943Y029088D01*
X017971Y029130D01*
X018002Y029170D01*
X018036Y029207D01*
X018073Y029242D01*
X018112Y029273D01*
X018153Y029302D01*
X018197Y029327D01*
X018243Y029349D01*
X018290Y029367D01*
X018338Y029381D01*
X018387Y029392D01*
X018437Y029399D01*
X018487Y029402D01*
X018538Y029401D01*
X018588Y029396D01*
X018638Y029387D01*
X018686Y029375D01*
X018734Y029358D01*
X018780Y029338D01*
X018825Y029315D01*
X018868Y029288D01*
X018908Y029258D01*
X018946Y029225D01*
X018981Y029189D01*
X019014Y029150D01*
X019043Y029109D01*
X019069Y029066D01*
X019092Y029021D01*
X019111Y028974D01*
X019126Y028926D01*
X019138Y028877D01*
X019146Y028827D01*
X019150Y028777D01*
X019150Y028727D01*
X019146Y028677D01*
X019138Y028627D01*
X019126Y028578D01*
X019111Y028530D01*
X019092Y028483D01*
X019069Y028438D01*
X019043Y028395D01*
X019014Y028354D01*
X018981Y028315D01*
X018946Y028279D01*
X018908Y028246D01*
X018868Y028216D01*
X018825Y028189D01*
X018780Y028166D01*
X018734Y028146D01*
X018686Y028129D01*
X018638Y028117D01*
X018588Y028108D01*
X018538Y028103D01*
X018487Y028102D01*
X018437Y028105D01*
X018387Y028112D01*
X018338Y028123D01*
X018290Y028137D01*
X018243Y028155D01*
X018197Y028177D01*
X018153Y028202D01*
X018112Y028231D01*
X018073Y028262D01*
X018036Y028297D01*
X018002Y028334D01*
X017971Y028374D01*
X017943Y028416D01*
X017919Y028460D01*
X017898Y028506D01*
X017881Y028554D01*
X017868Y028602D01*
X017858Y028652D01*
X017852Y028702D01*
X017850Y028752D01*
M02*
